SplineFontDB: 3.0
FontName: TriodionUnicode
FullName: Triodion Unicode
FamilyName: Triodion Unicode
Weight: Normal
Copyright: Copyright 2019 Aleksandr Andreev (Slavonic Computing Initiative). Licensed under the SIL OFL. Based on Tridion UCS Copyright 2003 by Vladislav V. Dorosh, Calmius Software.
Version: 1.1
ItalicAngle: 0
UnderlinePosition: -45
UnderlineWidth: 7
Ascent: 800
Descent: 200
InvalidEm: 0
LayerCount: 2
Layer: 0 0 "Back" 1
Layer: 1 0 "Fore" 0
UniqueID: 4777033
FSType: 0
OS2Version: 0
OS2_WeightWidthSlopeOnly: 0
OS2_UseTypoMetrics: 0
CreationTime: 1291789194
ModificationTime: 1565790393
PfmFamily: 17
TTFWeight: 400
TTFWidth: 5
LineGap: 90
VLineGap: 0
OS2TypoAscent: 0
OS2TypoAOffset: 1
OS2TypoDescent: 0
OS2TypoDOffset: 1
OS2TypoLinegap: 90
OS2WinAscent: 0
OS2WinAOffset: 1
OS2WinDescent: 0
OS2WinDOffset: 1
HheadAscent: 0
HheadAOffset: 1
HheadDescent: 0
HheadDOffset: 1
OS2Vendor: 'PfEd'
Lookup: 4 0 0 "'ccmp' Precomposed Glyphs for Cyrillic" { "'ccmp' Precomposed Glyphs for Cyrillic-1"  } ['ccmp' ('DFLT' <'dflt' > 'cyrl' <'dflt' > ) ]
Lookup: 4 0 0 "'ccmp' Round 2 of Cyrillic Composition" { "'ccmp' Round 2 of Cyrillic Composition-1"  } ['ccmp' ('DFLT' <'dflt' > 'cyrl' <'dflt' > ) ]
Lookup: 6 0 0 "'ccmp' Substitution of Uppercase Forms" { "'ccmp' Substitution of Uppercase Forms-1"  } ['ccmp' ('DFLT' <'dflt' > 'cyrl' <'dflt' > ) ]
Lookup: 6 0 0 "'ccmp' Wide Titlo Substitution" { "'ccmp' Wide Titlo Substitution-1"  } ['ccmp' ('DFLT' <'dflt' > 'cyrl' <'dflt' > ) ]
Lookup: 1 0 0 "Wide Titlo" { "Wide Titlo-1"  } []
Lookup: 1 0 0 "Uppercase Forms" { "Uppercase Forms-1" ("upper") } []
Lookup: 1 0 0 "'ss01' Hyphen Alternatives" { "Hyphen Replacement-1"  } ['ss01' ('DFLT' <'dflt' > 'cyrl' <'dflt' > ) ]
Lookup: 258 8 0 "kernHorizontalKerning" { "kernHorizontalKerning subtable" [150,0,0] } ['kern' ('latn' <'dflt' > 'geor' <'dflt' > 'cyrl' <'dflt' > 'DFLT' <'dflt' > ) ]

StartChar: .notdef
Encoding: 1114112 -1 0
Width: 651
Flags: W
HStem: 0 46<92 559> 705 46<92 559>
VStem: 46 46<46 705> 559 46<46 705>
LayerCount: 2
Fore
SplineSet
46 0 m 1
 46 751 l 1
 605 751 l 5
 605 0 l 5
 46 0 l 1
559 46 m 5
 559 705 l 5
 92 705 l 1
 92 46 l 1
 559 46 l 5
EndSplineSet
Validated: 1
EndChar

StartChar: .null
Encoding: 0 0 1
Width: 427
Flags: W
HStem: 0 19<29 398> 748 22<29 398>
VStem: 0 22<34 733> 405 22<34 733>
DStem2: 29 748 22 733 0.465951 -0.884811<10.0105 395.419 421.078 806.952> 22 34 29 19 0.465951 0.884811<0 385.408 411.068 796.942>
LayerCount: 2
Fore
SplineSet
0 0 m 1
 0 770 l 1
 427 770 l 1
 427 0 l 1
 0 0 l 1
398 748 m 1
 29 748 l 1
 213 398 l 1
 398 748 l 1
405 733 m 1
 221 383 l 1
 405 34 l 1
 405 733 l 1
29 19 m 1
 398 19 l 1
 213 369 l 1
 29 19 l 1
206 383 m 1
 22 733 l 1
 22 34 l 1
 206 383 l 1
EndSplineSet
Validated: 1
EndChar

StartChar: period
Encoding: 46 46 3
Width: 176
Flags: W
HStem: -3 143<32.375 133.625>
VStem: 11 144<17.875 118.625>
LayerCount: 2
Fore
SplineSet
83 140 m 0
 122 140 155 107 155 68 c 0
 155 29 122 -3 83 -3 c 0
 44 -3 11 29 11 68 c 0
 11 107 44 140 83 140 c 0
EndSplineSet
Validated: 1
EndChar

StartChar: slash
Encoding: 47 47 4
Width: 405
Flags: W
DStem2: -35 -281 24 -281 0.337416 0.941356<19.9076 1114.35>
LayerCount: 2
Fore
SplineSet
400 768 m 1
 24 -281 l 1
 -35 -281 l 1
 341 768 l 1
 400 768 l 1
EndSplineSet
Validated: 1
EndChar

StartChar: uni0443
Encoding: 1091 1091 5
Width: 484
Flags: W
HStem: 344.036 100.413<351.527 413.051> 417 20G<41 126.5>
AnchorPoint: "Yerok" 368 502 basechar 0
AnchorPoint: "Diacritic" 237 502 basechar 0
LayerCount: 2
Fore
SplineSet
122 437 m 2x40
 131 437 139 429 142 423 c 0
 179 343 203 185 214 101 c 1
 223 102 231 102 238 103 c 1
 246 152 252 232 272 314 c 0
 290 388 350 440 416 444 c 0
 419.857142857 444.285714286 423.693877551 444.448979592 427.422740525 444.448979592 c 0
 447.601660514 444.448979592 464.621573477 439.667779769 464.621573477 423.636957353 c 0
 464.621573477 421.89376406 464.420323045 420.017550615 464 418 c 0
 462 407 446 393 441 376 c 0
 439.730717947 370.922871789 439.367666667 365.845743577 439.367666667 361.088132715 c 0
 439.367666667 354.72833182 440.016416378 348.939488249 440.016416378 344.484836957 c 0
 440.016416378 341.770170712 439.775490951 339.550981903 439 338 c 0
 433 327 427 325 414 325 c 0
 393.512195122 325 388.253420583 344.036287924 371.294293466 344.036287924 c 0x80
 370.870315289 344.036287924 370.43902439 344.024390244 370 344 c 0
 346 343 323 321 319 301 c 0
 288 146 281 -116 275 -300 c 0
 273 -348 260 -389 230 -415 c 0
 217.765475918 -425.624718282 207.500472619 -429.718920283 199.538731785 -429.718920283 c 0
 187.170076013 -429.718920283 180.360109067 -419.837981717 180.360109067 -409.210434848 c 0
 180.360109067 -405.431111259 181.221315178 -401.557369645 183 -398 c 0
 203 -359 210 -335 213 -294 c 0
 217 -218 222 -78 225 32 c 1
 200 29 172 21 141 10 c 0
 132 7 124 14 123 25 c 0
 112 130 86 306 33 419 c 0
 30 426 37 437 45 437 c 2
 122 437 l 2x40
EndSplineSet
Validated: 1
EndChar

StartChar: acutecomb
Encoding: 769 769 6
Width: 1
Flags: W
HStem: 518.948 246.052
VStem: -255.286 181.286
AnchorPoint: "Stacking" -232 861 basemark 0
AnchorPoint: "Stacking" -193 515 mark 0
AnchorPoint: "Diacritic" -235 514 mark 0
LayerCount: 2
Fore
SplineSet
-209 534 m 2
 -213.918823416 525.801960973 -224.214274344 518.948078823 -234.927600038 518.948078823 c 0
 -237.282430837 518.948078823 -239.657450735 519.279215611 -242 520 c 0
 -251.084885764 522.795349466 -255.286034881 532.916303904 -255.286034881 542.854400466 c 0
 -255.286034881 547.137204273 -254.505813168 551.386048398 -253 555 c 2
 -166 751 l 2
 -162 759 -154 765 -144 765 c 2
 -87 765 l 2
 -79 765 -70 755 -74 748 c 2
 -209 534 l 2
EndSplineSet
Validated: 1
EndChar

StartChar: gravecomb
Encoding: 768 768 7
Width: 1
Flags: W
HStem: 507.632 244.368
VStem: -308 188
AnchorPoint: "Stacking" -143 504 mark 0
AnchorPoint: "Stacking" -182 850 basemark 0
AnchorPoint: "Diacritic" -145 503 mark 0
LayerCount: 2
Fore
SplineSet
-120 544 m 2
 -118.516652288 541.033304576 -117.827864733 537.638769068 -117.827864733 534.148821653 c 0
 -117.827864733 523.522264673 -124.213920042 512.011101525 -134 509 c 0
 -137.004629927 508.075498484 -140.222935618 507.631767435 -143.482066451 507.631767435 c 0
 -154.324073479 507.631767435 -165.617877653 512.542379169 -171 521 c 2
 -308 735 l 2
 -312 742 -303 752 -295 752 c 2
 -238 752 l 2
 -228 752 -220 746 -216 738 c 2
 -120 544 l 2
EndSplineSet
Validated: 1
EndChar

StartChar: uni0486
Encoding: 1158 1158 8
Width: 1
Flags: W
HStem: 676 70<-235.633 -160.018>
VStem: -285 43<622.609 670.453> -154.958 68.9583<576.922 670.717>
AnchorPoint: "Stacking" -182 856 basemark 0
AnchorPoint: "Stacking" -193 510 mark 0
AnchorPoint: "Diacritic" -195 513 mark 0
LayerCount: 2
Fore
SplineSet
-183 513 m 0
 -186.201134244 512.126963388 -189.381096463 511.719711342 -192.407418322 511.719711342 c 0
 -203.782120517 511.719711342 -212.986345869 517.472959614 -212.986345869 525.871520772 c 0
 -212.986345869 530.595192102 -210.074711687 536.155672954 -203 542 c 0
 -171.890956084 568.248255805 -154.958268809 593.551421166 -154.958268809 631.691149252 c 0
 -154.958268809 632.783462563 -154.972157622 633.886304896 -155 635 c 0
 -156 657 -172 676 -194 676 c 0
 -222 676 -242 665 -242 623 c 0
 -242 609 -265 615 -271 622 c 0
 -283 635 -285 648 -285 666 c 0
 -285 714 -238 746 -190 746 c 0
 -135 746 -86 704 -86 648 c 0
 -86 582 -140 525 -183 513 c 0
EndSplineSet
Validated: 1
Substitution2: "Uppercase Forms-1" uni0486.upper
EndChar

StartChar: uni04860301
Encoding: 57345 57345 9
Width: 1
GlyphClass: 4
Flags: W
HStem: 696 70<-278.633 -203.018>
VStem: -328 43<642.609 690.453> -197.958 68.9583<596.922 690.717>
AnchorPoint: "Stacking" -175 520 mark 0
AnchorPoint: "Stacking" -172 866 basemark 0
AnchorPoint: "Diacritic" -175 520 mark 0
LayerCount: 2
Fore
SplineSet
-226 533 m 0
 -229.201134244 532.126963388 -232.381096463 531.719711342 -235.407418322 531.719711342 c 0
 -246.782120517 531.719711342 -255.986345869 537.472959614 -255.986345869 545.871520772 c 0
 -255.986345869 550.595192102 -253.074711687 556.155672954 -246 562 c 0
 -214.890956084 588.248255805 -197.958268809 613.551421166 -197.958268809 651.691149252 c 0
 -197.958268809 652.783462563 -197.972157622 653.886304896 -198 655 c 0
 -199 677 -215 696 -237 696 c 0
 -265 696 -285 685 -285 643 c 0
 -285 629 -308 635 -314 642 c 0
 -326 655 -328 668 -328 686 c 0
 -328 734 -281 766 -233 766 c 0
 -178 766 -129 724 -129 668 c 0
 -129 602 -183 545 -226 533 c 0
-101 534 m 2
 -105.918823416 525.801960973 -116.214274344 518.948078823 -126.927600038 518.948078823 c 0
 -129.282430837 518.948078823 -131.657450735 519.279215611 -134 520 c 0
 -143.084885764 522.795349466 -147.286034881 532.916303904 -147.286034881 542.854400466 c 0
 -147.286034881 547.137204273 -146.505813168 551.386048398 -145 555 c 2
 -58 751 l 2
 -54 759 -46 765 -36 765 c 2
 21 765 l 2
 29 765 38 755 34 748 c 2
 -101 534 l 2
EndSplineSet
Validated: 1
LCarets2: 1 0
Substitution2: "Uppercase Forms-1" uni04860301.upper
Ligature2: "'ccmp' Precomposed Glyphs for Cyrillic-1" uni0486 acutecomb
EndChar

StartChar: uni04860300
Encoding: 57347 57347 10
Width: 1
GlyphClass: 4
Flags: W
HStem: 668 70<-245.633 -170.018>
VStem: -295 43<614.609 662.453> -164.958 68.9583<568.922 662.717>
DStem2: -175 866 -215 822 0.738332 -0.674438<-20.1621 302.315>
AnchorPoint: "Stacking" -127 501 mark 0
AnchorPoint: "Stacking" -124 847 basemark 0
AnchorPoint: "Diacritic" -126 500 mark 0
LayerCount: 2
Fore
SplineSet
-96 640 m 0
 -96 574 -150 517 -193 505 c 0
 -196.201134244 504.126963388 -199.381096463 503.719711342 -202.407418322 503.719711342 c 0
 -213.782120517 503.719711342 -222.986345869 509.472959614 -222.986345869 517.871520772 c 0
 -222.986345869 522.595192102 -220.074711687 528.155672954 -213 534 c 0
 -181.890956084 560.248255805 -164.958268809 585.551421166 -164.958268809 623.691149252 c 0
 -164.958268809 624.783462563 -164.972157622 625.886304896 -165 627 c 0
 -166 649 -182 668 -204 668 c 0
 -232 668 -252 657 -252 615 c 0
 -252 601 -275 607 -281 614 c 0
 -293 627 -295 640 -295 658 c 0
 -295 706 -248 738 -200 738 c 0
 -145 738 -96 696 -96 640 c 0
33 676 m 2
 40.1943152118 669.301844458 43.203665319 661.55744764 43.203665319 654.110369543 c 0
 43.203665319 638.148304896 29.3782231291 623.552170645 13.3037671211 623.552170645 c 0
 6.64749251273 623.552170645 -0.394422044282 626.05497984 -7 632 c 2
 -215 822 l 2
 -222.102651976 828.612813909 -225.066315972 836.245378479 -225.066315972 843.604837328 c 0
 -225.066315972 859.677651011 -210.930495454 874.447829355 -194.902075333 874.447829355 c 0
 -188.304084338 874.447829355 -181.385392024 871.94502016 -175 866 c 2
 33 676 l 2
EndSplineSet
Validated: 1
LCarets2: 1 0
Substitution2: "Uppercase Forms-1" uni04860300.upper
Ligature2: "'ccmp' Precomposed Glyphs for Cyrillic-1" uni0486 gravecomb
EndChar

StartChar: uni0311
Encoding: 785 785 11
Width: 1
Flags: W
HStem: 674 60<-279.651 -163.626>
VStem: -386.01 59.9928<536 621.336> -118 60<536 622.123>
AnchorPoint: "Stacking" -222 880 basemark 0
AnchorPoint: "Stacking" -223 534 mark 0
AnchorPoint: "Diacritic" -225 535 mark 0
LayerCount: 2
Fore
SplineSet
-58 536 m 1
 -118 536 l 1
 -119 610 -156 674 -222 674 c 0
 -284.265249746 674 -326.017476604 614.414552561 -326.017476604 538.687483984 c 0
 -326.017476604 537.793879878 -326.011662702 536.898028088 -326 536 c 1
 -386 536 l 1
 -386.006866106 536.789602175 -386.010290743 537.577695761 -386.010290743 538.36426425 c 0
 -386.010290743 652.135860672 -314.361452154 734 -222 734 c 0
 -124 734 -59 646 -58 536 c 1
EndSplineSet
Validated: 1
EndChar

StartChar: uni0483
Encoding: 1155 1155 12
Width: 1
Flags: W
HStem: 622.608 142.392<-126 -22> 622.608 40.3923<-270 -126 -22 13.2451> 634 48.232<-397.389 -374>
VStem: -374 104<536 627> -126 104<663 765>
AnchorPoint: "Stacking" -185 881 basemark 0
AnchorPoint: "Stacking" -183 535 mark 0
AnchorPoint: "Diacritic" -185 535 mark 0
LayerCount: 2
Fore
SplineSet
-270 547 m 2x98
 -270 541 -276 536 -282 536 c 2
 -361 536 l 2
 -368 536 -374 542 -374 549 c 2
 -374 633 l 2
 -376 633 -378 634 -380 634 c 0
 -392.116446447 635.346271827 -397.587250838 645.956165914 -397.587250838 656.882841586 c 0
 -397.587250838 669.351199929 -390.463747486 682.232037777 -377.962327908 682.232037777 c 0x38
 -377.006089849 682.232037777 -376.018386814 682.156674894 -375 682 c 0
 -328 674 -252 669 -181 665 c 0
 -162 664 -144 663 -126 663 c 1x58
 -126 752 l 2
 -126 759 -120 765 -113 765 c 2
 -34 765 l 2x98
 -28 765 -22 760 -22 754 c 2
 -22 662 l 1
 -17 662 -12 663 -7 663 c 0x58
 6.5 663 13.25 653 13.25 643 c 0
 13.25 633 6.5 623 -7 623 c 0
 -24.1487483156 622.732050808 -40.0769515459 622.607695155 -55.4579357172 622.607695155 c 0
 -122.112564004 622.607695155 -200.361022498 624.598655948 -270 627 c 1
 -270 547 l 2x98
EndSplineSet
Validated: 1
Substitution2: "Wide Titlo-1" uni0483.long
EndChar

StartChar: uni033E
Encoding: 830 830 13
Width: 1
Flags: W
HStem: 529.364 211.92
VStem: -201.166 133.17
AnchorPoint: "Stacking" -130 874 basemark 0
AnchorPoint: "Stacking" -143 528 mark 0
AnchorPoint: "Yerok" -172 529 mark 0
LayerCount: 2
Fore
SplineSet
-90 739 m 0
 -87.0018551535 740.577970972 -84.202909698 741.284444608 -81.6738880763 741.284444608 c 0
 -73.3851495465 741.284444608 -67.9958436918 733.695738136 -67.9958436918 724.328029277 c 0
 -67.9958436918 718.440632779 -70.124534733 711.85055832 -75 706 c 0
 -84 695 -103 675 -115 665 c 0
 -117 663 -114 659 -112 657 c 0
 -102 646 -90 633 -78 620 c 0
 -73.7255653302 615.250628145 -71.4812186322 609.147864308 -71.4812186322 603.191519573 c 0
 -71.4812186322 596.606532705 -74.2243090409 590.200502516 -80 586 c 0
 -111 563 -145 545 -169 531 c 0
 -170.939362242 529.868705359 -173.296627362 529.364265035 -175.831188545 529.364265035 c 0
 -186.134396589 529.364265035 -199.367407982 537.700101301 -199.367407982 546.148587384 c 0
 -199.367407982 548.481516698 -198.358378024 550.82303567 -196 553 c 0
 -184 564 -172 579 -161 591 c 0
 -159 593 -159 598 -162 601 c 0
 -167 607 -187 630 -195 640 c 0
 -199.266155818 645.119386982 -201.166300526 651.330779092 -201.166300526 657.314221522 c 0
 -201.166300526 665.356151545 -197.733844182 672.986309073 -192 677 c 0
 -160 699 -120 724 -90 739 c 0
EndSplineSet
Validated: 1
EndChar

StartChar: colon
Encoding: 58 58 14
Width: 204
Flags: W
VStem: 36 137
LayerCount: 2
Fore
SplineSet
36 356 m 2
 32 361 32 366 36 371 c 2
 95 444 l 2
 99 449 107 449 111 444 c 2
 173 367 l 2
 176 363 176 357 173 353 c 2
 114 279 l 2
 110 274 102 274 98 279 c 2
 36 356 l 2
36 82 m 2
 32 87 32 92 36 97 c 2
 95 170 l 2
 99 175 107 175 111 170 c 2
 173 93 l 2
 176 89 176 83 173 79 c 2
 114 5 l 2
 110 0 102 0 98 5 c 2
 36 82 l 2
EndSplineSet
Validated: 1
EndChar

StartChar: semicolon
Encoding: 59 59 15
Width: 314
Flags: W
HStem: 88 102<110.394 220> 316 143<98.375 199.625>
VStem: 17 36<27.1472 63.7671> 77 144<336.875 437.625> 201 93<-58.7681 64.6456>
LayerCount: 2
Fore
SplineSet
17 51 m 0xe8
 29 119 111 190 182 190 c 0
 258 190 294 111 294 36 c 0
 294 -47 239 -137 173 -183 c 0
 166.150379619 -187.794734267 158.831586244 -192.12029554 151.686351256 -192.12029554 c 0
 148.400008155 -192.12029554 145.150379619 -191.205265733 142 -189 c 0
 137.787466223 -185.936339071 136.214750089 -181.112799715 136.214750089 -175.877299624 c 0
 136.214750089 -167.441573786 140.297745696 -157.936339071 144 -153 c 0
 176 -107 201 -65 201 -15 c 0
 201 39 181 88 135 88 c 0
 101 88 74 76 53 43 c 0
 48 35 39 24 28 27 c 0
 18 30 15 42 17 51 c 0xe8
149 459 m 0
 188 459 221 426 221 387 c 0
 221 348 188 316 149 316 c 0
 110 316 77 348 77 387 c 0xf0
 77 426 110 459 149 459 c 0
EndSplineSet
Validated: 1
EndChar

StartChar: uni2DEF
Encoding: 11759 11759 16
Width: 0
Flags: W
HStem: 723.743 54.2383<-115.434 -40.4517>
VStem: -47.9756 65.1553<701.634 752.709>
AnchorPoint: "Stacking" -203 482 mark 0
AnchorPoint: "Stacking" -200 871 basemark 0
AnchorPoint: "Diacritic" -205 481 mark 0
LayerCount: 2
Fore
SplineSet
-227 596 m 1
 -248 574 -304.41015625 533 -326.41015625 520 c 0
 -348.41015625 506 -359.41015625 527 -345.41015625 538 c 0
 -317.41015625 556 -268 600 -251 628 c 1
 -268.769062824 646.427176262 -280.219070317 671.540208611 -315.615234375 703.94517616 c 0
 -334.003360407 720.779390918 -358.853953796 739.581516187 -394.41015625 760.436523438 c 1
 -378.41015625 784.436737061 -359.41015625 799.436523438 -330.41015625 804.436523438 c 1
 -312.253361739 800.053982649 -275.753114378 778.824988444 -244.615235415 749.57311081 c 0
 -226.019749308 732.103941352 -209.336728951 711.77344484 -199.615234375 690.4609375 c 1
 -185.116533951 704.090811921 -164.918132996 722.993801223 -141.615236497 739.745379739 c 0
 -112.719512405 760.5174323 -79.0502722104 777.981445312 -45.5556640625 777.981445312 c 0
 -35.34765625 777.981445312 -25.064453125 775.915039062 -15 771 c 0
 2.8564453125 761.602539062 17.1796875 757.50390625 17.1796875 747.9140625 c 0
 17.1796875 747.298828125 17.1106268336 746.663761001 17 746 c 0
 15 734 -3.41015625 682.436523438 -13.41015625 668.436523438 c 0
 -16.134765625 664.803710938 -25.5556640625 659.842773438 -30.9697265625 659.842773438 c 0
 -43.4404296875 659.842773438 -59 667.935546875 -59 677 c 0
 -59 693.434570312 -47.9755859375 710.482421875 -47.9755859375 718.555664062 c 0
 -47.9755859375 720.797851562 -48.826171875 722.34765625 -51 723 c 0
 -53.2294921875 723.50390625 -55.681640625 723.743164062 -58.3212890625 723.743164062 c 0
 -92.380859375 723.743164062 -157.654296875 683.841796875 -179 656 c 1
 -142.41015625 595.436737061 -105 573 -82 549 c 0
 -78.466796875 545.466796875 -76.9619140625 542.05859375 -76.9619140625 538.875 c 0
 -76.9619140625 526.646484375 -99.1533203125 517.72265625 -113.875 517.72265625 c 0
 -117.020507812 517.72265625 -119.825195312 518.129882812 -122 519 c 0
 -158 534 -199 563 -227 596 c 1
EndSplineSet
Validated: 1
EndChar

StartChar: uni2DE90487
Encoding: 62697 62697 17
Width: 0
GlyphClass: 4
Flags: W
HStem: 616 41<-220 -104> 693 54<116.841 205.667> 864 61<-274.247 -138.845>
VStem: -410 79.8984<704 802.365> -281 61<521 616 657 739> -104 55<521 616 657 742>
AnchorPoint: "Stacking" -155 993 basemark 0
AnchorPoint: "Stacking" -155 480 mark 0
AnchorPoint: "Diacritic" -156 480 mark 0
LayerCount: 2
Fore
SplineSet
210.393554688 729.975585938 m 0
 210.393554688 700.087890625 168.459960938 693 140 693 c 0
 67 693 7.228515625 736.301757812 -56 784 c 0
 -113 827 -150.993164062 864 -224 864 c 0
 -238 864 -251.051757812 860.096679688 -266 852 c 0
 -290 839 -304.475585938 832.366210938 -319 813 c 0
 -328.142578125 800.809570312 -330.1015625 781.217773438 -330.1015625 760.754882812 c 0
 -330.1015625 745.408203125 -329 729.572265625 -329 716 c 0
 -329 711 -333 704 -339 704 c 2
 -401 704 l 2
 -406 704 -410 710 -410 715 c 0
 -410 771.989257812 -386.451171875 817.581054688 -352.303710938 851.528320312 c 0
 -303.278320312 900.264648438 -232.40625 925 -178 925 c 0
 -96 925 -52.8466796875 875.231445312 15 830 c 0
 69 794 122.89453125 754.043945312 191 747 c 0
 205.021484375 745.549804688 210.393554688 738.254882812 210.393554688 729.975585938 c 0
-281 739 m 1
 -220 739 l 1
 -220 657 l 1
 -104 657 l 1
 -104 742 l 1
 -49 742 l 1
 -49 521 l 1
 -104 521 l 1
 -104 616 l 1
 -220 616 l 1
 -220 521 l 1
 -281 521 l 1
 -281 739 l 1
EndSplineSet
Validated: 1
LCarets2: 1 0
Ligature2: "'ccmp' Precomposed Glyphs for Cyrillic-1" uni2DE9 uni0487
EndChar

StartChar: uni2DEC0487
Encoding: 62700 62700 18
Width: 0
GlyphClass: 4
Flags: W
HStem: 633.99 27.0098<-193.365 -143.226> 693 54<116.841 205.667> 731 24<-190.736 -146.14> 864 61<-269.104 -138.845>
VStem: -410 79.8984<704 802.365> -266 64.8213<567.845 595.854 629.45 727.872> -258 62.0107<526.569 626.462 691.054 699.431> -135.953 59.0098<663.026 728.627>
AnchorPoint: "Stacking" -164 993 basemark 0
AnchorPoint: "Stacking" -164 480 mark 0
AnchorPoint: "Diacritic" -165 480 mark 0
LayerCount: 2
Fore
SplineSet
210.393554688 729.975585938 m 0xdd
 210.393554688 700.087890625 168.459960938 693 140 693 c 0
 67 693 7.228515625 736.301757812 -56 784 c 0
 -113 827 -150.993164062 864 -224 864 c 0
 -238 864 -251.051757812 860.096679688 -266 852 c 0
 -290 839 -304.475585938 832.366210938 -319 813 c 0
 -328.142578125 800.809570312 -330.1015625 781.217773438 -330.1015625 760.754882812 c 0
 -330.1015625 745.408203125 -329 729.572265625 -329 716 c 0
 -329 711 -333 704 -339 704 c 2
 -401 704 l 2
 -406 704 -410 710 -410 715 c 0
 -410 771.989257812 -386.451171875 817.581054688 -352.303710938 851.528320312 c 0
 -303.278320312 900.264648438 -232.40625 925 -178 925 c 0
 -96 925 -52.8466796875 875.231445312 15 830 c 0
 69 794 122.89453125 754.043945312 191 747 c 0
 205.021484375 745.549804688 210.393554688 738.254882812 210.393554688 729.975585938 c 0xdd
-266 512 m 1
 -262 526 -258 536 -258 566 c 0xbb
 -258 605 -266 668 -266 701 c 0xbd
 -266 741 -208 755 -168 755 c 0
 -126.801757812 755 -76.943359375 734.793945312 -76.943359375 693.4375 c 0
 -76.943359375 692.6328125 -76.9619140625 691.8203125 -77 691 c 0
 -77.8876953125 654.623046875 -119.708984375 633.990234375 -154.970703125 633.990234375 c 0
 -159.452148438 633.990234375 -163.828125 634.323242188 -168 635 c 0
 -184 636 -192 639 -205 649 c 1
 -196 548 l 2
 -195.993164062 547.83203125 -195.989257812 547.665039062 -195.989257812 547.498046875 c 0xbb
 -195.989257812 523.833007812 -266 512 -266 512 c 1
-201 691 m 0
 -196 674 -187 661 -168 661 c 0
 -152 661 -139 674 -136 691 c 0
 -135.96875 691.6015625 -135.953125 692.205078125 -135.953125 692.809570312 c 0
 -135.953125 711.30859375 -150.5703125 731 -168 731 c 0
 -186.797851562 730.060546875 -201.178710938 712.334960938 -201.178710938 694.431640625 c 0xbd
 -201.178710938 693.287109375 -201.120117188 692.141601562 -201 691 c 0
EndSplineSet
Validated: 1
LCarets2: 1 0
Ligature2: "'ccmp' Precomposed Glyphs for Cyrillic-1" uni2DEC uni0487
EndChar

StartChar: uni2DF10487
Encoding: 62705 62705 19
Width: 0
GlyphClass: 4
Flags: W
HStem: 693 54<116.841 205.667> 864 61<-274.247 -138.845>
VStem: -410 79.8984<704 802.365> -120 66<520 613 646 739>
AnchorPoint: "Stacking" -155 992 basemark 0
AnchorPoint: "Stacking" -155 479 mark 0
AnchorPoint: "Diacritic" -157 481 mark 0
LayerCount: 2
Fore
SplineSet
210.393554688 729.975585938 m 0
 210.393554688 700.087890625 168.459960938 693 140 693 c 0
 67 693 7.228515625 736.301757812 -56 784 c 0
 -113 827 -150.993164062 864 -224 864 c 0
 -238 864 -251.051757812 860.096679688 -266 852 c 0
 -290 839 -304.475585938 832.366210938 -319 813 c 0
 -328.142578125 800.809570312 -330.1015625 781.217773438 -330.1015625 760.754882812 c 0
 -330.1015625 745.408203125 -329 729.572265625 -329 716 c 0
 -329 711 -333 704 -339 704 c 2
 -401 704 l 2
 -406 704 -410 710 -410 715 c 0
 -410 771.989257812 -386.451171875 817.581054688 -352.303710938 851.528320312 c 0
 -303.278320312 900.264648438 -232.40625 925 -178 925 c 0
 -96 925 -52.8466796875 875.231445312 15 830 c 0
 69 794 122.89453125 754.043945312 191 747 c 0
 205.021484375 745.549804688 210.393554688 738.254882812 210.393554688 729.975585938 c 0
-284 739 m 1
 -204 739 l 1
 -204 739 -205.975585938 727.741210938 -205.975585938 713.474609375 c 0
 -205.975585938 695.641601562 -202.888671875 673.111328125 -189 662 c 0
 -167 646 -120 646 -120 646 c 1
 -120 739 l 1
 -54 739 l 1
 -54 520 l 1
 -120 520 l 1
 -120 613 l 1
 -120 613 -189 613 -220 630 c 0
 -266 654 -278 685 -284 739 c 1
EndSplineSet
Validated: 1
LCarets2: 1 0
Ligature2: "'ccmp' Precomposed Glyphs for Cyrillic-1" uni2DF1 uni0487
EndChar

StartChar: uni2DED0487
Encoding: 62701 62701 20
Width: 0
GlyphClass: 4
Flags: W
HStem: 520 44.9639<-168.333 -118.563> 675 67<-172.877 -116.38> 693 54<116.841 205.667> 864 61<-274.247 -138.845>
VStem: -410 79.8984<704 802.365> -249 69.9375<576.684 672.227>
AnchorPoint: "Stacking" -259 993 basemark 0
AnchorPoint: "Stacking" -159 481 mark 0
AnchorPoint: "Diacritic" -161 481 mark 0
LayerCount: 2
Fore
SplineSet
210.393554688 729.975585938 m 0xbc
 210.393554688 700.087890625 168.459960938 693 140 693 c 0
 67 693 7.228515625 736.301757812 -56 784 c 0
 -113 827 -150.993164062 864 -224 864 c 0
 -238 864 -251.051757812 860.096679688 -266 852 c 0
 -290 839 -304.475585938 832.366210938 -319 813 c 0
 -328.142578125 800.809570312 -330.1015625 781.217773438 -330.1015625 760.754882812 c 0
 -330.1015625 745.408203125 -329 729.572265625 -329 716 c 0
 -329 711 -333 704 -339 704 c 2
 -401 704 l 2
 -406 704 -410 710 -410 715 c 0
 -410 771.989257812 -386.451171875 817.581054688 -352.303710938 851.528320312 c 0
 -303.278320312 900.264648438 -232.40625 925 -178 925 c 0
 -96 925 -52.8466796875 875.231445312 15 830 c 0
 69 794 122.89453125 754.043945312 191 747 c 0
 205.021484375 745.549804688 210.393554688 738.254882812 210.393554688 729.975585938 c 0xbc
-116 721 m 0
 -112.4921875 715.299804688 -110.907226562 707.293945312 -110.907226562 699.424804688 c 0
 -110.907226562 689.345703125 -113.5078125 679.4921875 -118 675 c 0
 -127 665 -140 676 -149 675 c 0
 -168.162109375 673.083984375 -179.0625 650.971679688 -179.0625 620.098632812 c 0
 -179.0625 618.749023438 -179.041992188 617.381835938 -179 616 c 0
 -178.024414062 584.765625 -152.27734375 564.963867188 -125.938476562 564.963867188 c 0
 -125.291992188 564.963867188 -124.646484375 564.975585938 -124 565 c 0
 -117.220703125 565 -113.48046875 555.884765625 -113.48046875 547.016601562 c 0
 -113.48046875 541.495117188 -114.930664062 536.069335938 -118 533 c 0
 -130 522 -143 520 -161 520 c 0
 -214 520 -249 569 -249 621 c 0
 -249 685 -203 742 -161 742 c 0xdc
 -139 742 -124 735 -116 721 c 0
EndSplineSet
Validated: 1
LCarets2: 1 0
Ligature2: "'ccmp' Precomposed Glyphs for Cyrillic-1" uni2DED uni0487
EndChar

StartChar: uni0450
Encoding: 1104 1104 21
Width: 280
Flags: W
HStem: -2 124.472<72 216.435> 184 98<156.453 234.215> 352 89<168.296 239.998>
VStem: 46.858 90.142<95.4314 163.249 258 322.366>
AnchorPoint: "Yerok" 140 801 basechar 0
AnchorPoint: "Diacritic" 142 799 basechar 0
LayerCount: 2
Fore
SplineSet
226 441 m 0
 237 442 238 437 239 429 c 0
 240.154700538 419.185045424 241.309401077 406.036757514 241.309401077 392.441887617 c 0
 241.309401077 382.48975213 240.690598923 372.298294078 239 363 c 0
 238 355 237 353 227 352 c 0
 175.652765572 345.087872288 136.981196929 315.749566648 136.981196929 278.427251333 c 0
 136.981196929 277.95278133 136.987446816 277.477020995 137 277 c 2
 137 258 l 1
 147 261 158 265 166 268 c 0
 180 273 202 281 217 282 c 0
 234 283 233 275 234 267 c 0
 234.845299462 260.660254038 235.154700538 250.926484972 235.154700538 240.592159601 c 0
 235.154700538 226.475208614 234.577350269 211.237604307 234 202 c 0
 233 190 233 187 221 184 c 0
 194 178 160 166 138 152 c 1
 139 126 140 104 141 95 c 1
 163 100 187 114 209 121 c 0
 212 122 214.444444444 122.472222222 216.435185185 122.472222222 c 0
 224.217171717 122.472222222 225.066115702 115.256198347 225.066115702 104.142749812 c 0
 225.066115702 101.041322314 225 97.6363636364 225 94 c 0
 225 58 192 -2 72 -2 c 0
 59 -2 51 1 51 13 c 0
 52.1715728753 42.2893218813 52.6568542495 67.375108319 52.6568542495 90.8453646951 c 0
 52.6568542495 147.507575951 49.8284271247 194.753787975 47 269 c 0
 46.9050335409 271.635319241 46.8579785449 274.237945954 46.8579785449 276.80805411 c 0
 46.8579785449 382.491246275 126.421644708 433.189932918 226 441 c 0
158 544 m 2
 159.483347712 541.033304576 160.172135267 537.638769068 160.172135267 534.148821653 c 0
 160.172135267 523.522264673 153.786079958 512.011101525 144 509 c 0
 140.995370073 508.075498484 137.777064382 507.631767435 134.517933549 507.631767435 c 0
 123.675926521 507.631767435 112.382122347 512.542379169 107 521 c 2
 -30 735 l 2
 -34 742 -25 752 -17 752 c 2
 40 752 l 2
 50 752 58 746 62 738 c 2
 158 544 l 2
EndSplineSet
Validated: 1
LCarets2: 1 0
Ligature2: "'ccmp' Precomposed Glyphs for Cyrillic-1" afii10070 gravecomb
EndChar

StartChar: uni0472
Encoding: 1138 1138 22
Width: 861
Flags: W
HStem: -3.03663 21G<365.913 413.892> 214 40<2 39 140 226 350 533 652 731.249> 660.288 20G<435.304 503.783>
VStem: 39 101<-12 214> 212.565 117.835<255.363 460.811> 533 108<167.82 214> 544.274 114.95<254.844 434.378> 734 24<11.2257 60.1323>
AnchorPoint: "Yerok" 600 754 basechar 0
AnchorPoint: "Diacritic" 430 754 basechar 0
LayerCount: 2
Fore
SplineSet
39 214 m 1xfd
 2 214 l 1
 2 254 l 1
 226 254 l 1
 217.458980338 283.039466852 212.565411519 314.267404211 212.565411519 348.306871064 c 0
 212.565411519 354.121506177 212.708203932 360.018180616 213 366 c 0
 217.879518072 524.096385542 368.474379445 680.287995355 502.1328012 680.287995355 c 0
 505.433009145 680.287995355 508.722891566 680.192771084 512 680 c 1
 515 649 521 611 540 588 c 0
 582.67759361 537.562843916 659.22376773 448.553137806 659.22376773 321.883400303 c 0xfb
 659.22376773 317.958416345 659.150273453 313.997273861 659 310 c 0
 658 290 655 272 652 254 c 1
 861 254 l 2
 868.277389996 254 871.210371757 248.207455686 871.210371757 240.762551384 c 0
 871.210371757 231.839160336 866.996794378 220.541957503 861 214 c 0
 827 179 801 132 779 82 c 0
 769 60 762 41 758 19 c 0
 756 7 737 6 734 21 c 0
 729.402020254 45.9604614807 726.961328032 70.9209229614 726.961328032 101.26607366 c 0
 726.961328032 117.118615558 727.627416998 134.440692221 729 154 c 0
 729.842673963 164.112087551 731.572972184 176.354473323 731.572972184 187.136863629 c 0
 731.572972184 201.945367988 728.309249431 214 715 214 c 2
 641 214 l 1
 593.586370439 76.6980310633 461.285350545 -3.03662718766 366.499250786 -3.03662718766 c 0
 365.327018931 -3.03662718766 364.160524827 -3.02443210163 363 -3 c 1
 359 22 350 51 331 74 c 0
 292 121 261 166 241 214 c 1
 140 214 l 1
 140 -12 l 1
 39 -12 l 1
 39 214 l 1xfd
544 309 m 0
 544.184065618 315.56500705 544.274019704 321.983200108 544.274019704 328.265665702 c 0
 544.274019704 424.378188178 523.220699024 488.724350868 496 561 c 0
 486 587 480 606 476 635 c 1
 393 616 336 519 331 374 c 0
 330.6 364.4 330.4 355.28 330.4 346.544 c 0
 330.4 311.6 333.6 282.8 340 254 c 1
 539 254 l 1
 541 272 543 290 544 309 c 0
391 42 m 1
 472 61 514 128 533 214 c 1xfd
 350 214 l 1
 356 192 363 168 372 140 c 0
 383 104 389 74 391 42 c 1
EndSplineSet
Validated: 1
EndChar

StartChar: uni047A
Encoding: 1146 1146 23
Width: 1036
Flags: W
HStem: -66 171<461.647 574.353> 571 171<460.815 573.76>
VStem: 31 134<226.303 449.583> 871 134<226.303 449.583>
AnchorPoint: "Yerok" 900 754 basechar 0
AnchorPoint: "Diacritic" 520 800 basechar 0
LayerCount: 2
Fore
SplineSet
518 742 m 0
 555 742 588 717 599 683 c 1
 822 666 1005 577 1005 338 c 0
 1005 99 822 9 600 -7 c 1
 589 -41 556 -66 518 -66 c 0
 480 -66 447 -41 436 -7 c 1
 213 9 31 99 31 338 c 0
 31 577 213 666 436 683 c 1
 448 717 480 742 518 742 c 0
518 105 m 0
 555 105 588 80 599 46 c 1
 755 71 871 170 871 338 c 0
 871 506 755 604 599 629 c 1
 588 595 556 571 518 571 c 0
 480 571 448 595 436 629 c 1
 280 604 165 506 165 338 c 0
 165 170 280 71 436 46 c 1
 448 80 480 105 518 105 c 0
EndSplineSet
Validated: 1
EndChar

StartChar: uni0470
Encoding: 1136 1136 24
Width: 850
Flags: W
HStem: 0 40<298 380 476 548> 660 20G<17 173.5>
VStem: 17 120<560 680> 206.927 93.9928<21.0869 340.802> 379 111<410.5 1045.09> 380 96<-131.308 0 40 304.643> 548 41.5318<40.5433 380.255>
AnchorPoint: "Yerok" 690 754 basechar 0
AnchorPoint: "Diacritic" 640 754 basechar 0
LayerCount: 2
Fore
SplineSet
474 -100 m 1xf6
 491 -132 518 -156 537 -170 c 0
 542 -174 542 -184 537 -186 c 0
 502 -205 466 -227 435 -253 c 0
 430 -257 424 -257 419 -253 c 0
 388 -227 352 -205 317 -186 c 0
 312 -184 312 -174 317 -170 c 0
 336 -156 363 -132 380 -100 c 1
 380 0 l 1
 205 0 l 1
 206.021537451 23.4953613819 206.927126151 53.1360065996 206.927126151 86.7109437985 c 0
 206.927126151 151.737199791 203.530262808 231.520985572 191 310 c 0
 166 466 92 602 17 680 c 1
 137 680 l 1
 210 601 258 477 285 336 c 0
 297.332744425 270.636454545 300.91993521 195.766872524 300.91993521 134.134944714 c 0
 300.91993521 95.8184333384 299.533451115 62.6184039451 298 40 c 1
 380 40 l 1xf6
 379 782 l 2
 378 929 376 1012 356 1049 c 0
 352.652348688 1055.69530262 343.925448108 1069.11466683 343.925448108 1078.4533821 c 0
 343.925448108 1083.0628269 346.051544724 1086.67812105 352 1088 c 2
 510 1126 l 2
 511.224429875 1126.27209553 512.347060282 1126.40074635 513.373556964 1126.40074635 c 0
 520.186347035 1126.40074635 522.764553719 1120.73382108 522.764553719 1113.72495415 c 0
 522.764553719 1106.26531374 519.844049174 1097.28556761 516 1092 c 0
 485 1048 493 925 490 781 c 2xfa
 476 40 l 1
 548 40 l 1
 546.607695155 60.8845726812 545.861561237 92.5386608211 545.861561237 128.864522007 c 0
 545.861561237 170.810013475 546.856406461 218.984535672 549 264 c 0
 553 364 577 466 615 539 c 0
 650 607 713 659 769 676 c 0
 809 688 871 693 918 705 c 0
 925 707 935 698 930 692 c 0
 908 665 878 594 869 545 c 0
 868 537 854 535 849 540 c 0
 829.460077779 559.539922221 799.420420148 580.034365842 765.408972983 580.034365842 c 0
 764.608155513 580.034365842 763.805136114 580.023003889 763 580 c 0
 726 579 681 550 658 506 c 0
 623 439 596 356 592 262 c 0
 590.33030278 223.179539631 589.531820812 183.83635011 589.531820812 148.407161777 c 0
 589.531820812 98.9606303571 591.087121525 57.1378764083 594 35 c 0
 596 21 597 11 600 0 c 1
 476 0 l 1
 474 -100 l 1xf6
EndSplineSet
Validated: 1
EndChar

StartChar: uni047C
Encoding: 1148 1148 25
Width: 870
Flags: W
HStem: -4 96.9506<173.967 323.82 517.284 696.672> 338 89<575.677 704.685> 350 83<157.937 280.449> 467 49<816.9 847.795> 578 77<394.95 475.286> 716.019 53.9812<337.042 505.562>
VStem: 24 91<151.145 305.292> 142 117<544 627.796> 299 88<284.175 329.948> 317 61<440.708 560.698> 485 74<470.18 570.153> 755 88<147.563 287.383>
AnchorPoint: "Yerok" 428 844 basechar 0
AnchorPoint: "Diacritic" 430 844 basechar 0
LayerCount: 2
Fore
SplineSet
486 138 m 0xbfb0
 512 115 544 92 602 92 c 0
 687 92 755 132 755 216 c 0
 755 285 710 338 629 338 c 0
 594 338 575 320 555 291 c 0
 546.400860803 278.432027327 532.113629688 273.739874233 518.216215398 273.739874233 c 0
 511.103807469 273.739874233 504.093499573 274.968833476 498 277 c 0
 483.933407243 281.688864252 474.752469592 303.477521375 474.752469592 322.798573106 c 0
 474.752469592 328.201271979 475.470341628 333.411024883 477 338 c 0
 496 395 559 427 629 427 c 0xdfb0
 753 427 843 344 843 210 c 0
 843 81 742 -2 601 -3 c 0
 600.272882407 -3.00932202042 599.547155216 -3.01395143734 598.822824906 -3.01395143734 c 0
 521.84615507 -3.01395143734 460.645763224 49.2703385921 423 78 c 1
 381 46 311 -4 222 -4 c 0
 102 -4 24 106 24 222 c 0
 24 332 103 433 213 433 c 0
 296 433 387 399 387 319 c 0
 387 294 370 281 352 279 c 0
 350.109406171 278.800990123 348.159404946 278.700992574 346.171671198 278.700992574 c 0
 328.183172806 278.700992574 307.104455555 286.890593829 299 304 c 0
 282 340 253 350 217 350 c 0
 153 350 115 292 115 230 c 0
 115 151.318601268 161.430718799 92.9506420097 250.486704417 92.9506420097 c 0
 251.979170711 92.9506420097 253.483608542 92.9670349683 255 93 c 0
 301 94 347 99 392 129 c 0
 410 141 432 163 454 166 c 0
 454.134037458 166.026807492 454.274542691 166.039960793 454.421323048 166.039960793 c 0
 459.749891124 166.039960793 473.348497391 148.705117592 486 138 c 0xbfb0
147 544 m 2
 143 544 142 550 142 554 c 0
 147 601 164 645 203 674 c 0
 204 675 207 676 210 678 c 0
 233 693 318 740 349 755 c 2
 357 759 l 2
 380 768 400 770 428 770 c 0
 537 770 624 746 685 653 c 0
 726 590 753 538 831 516 c 0
 840 514 848 503 848 492 c 0
 848 480 841 468 829 467 c 0
 825.192307692 466.653846154 821.065088757 466.480769231 816.695152481 466.480769231 c 0
 783.192307692 466.480769231 735.423076923 476.653846154 708 497 c 0
 668 527 634 568 591 619 c 0
 541.626965428 677.260180795 498.104402559 716.018789247 422.88109098 716.018789247 c 0
 421.925864788 716.018789247 420.965526759 716.012539309 420 716 c 0
 394 716 373 713 355 708 c 0
 354 708 349 705 347 703 c 0
 338 696 298 662 290 654 c 0
 288 652 286 649 285 648 c 0
 266 620 259 577 259 550 c 0
 259 546 255 544 251 544 c 2
 147 544 l 2
500 430 m 0
 494.708497378 426.976284216 483.702709041 423.952568432 475.189863548 423.952568432 c 0
 472.441272978 423.952568432 469.952568432 424.267786838 468 425 c 0
 458 429 456 439 459 448 c 0
 469 473 485 485 485 517 c 0
 485 547 471 578 439 578 c 0
 401 578 378 543 378 507 c 0
 378 480 384 476 384 451 c 0
 384 441 378 432 371 430 c 0
 368.767604969 429.391164992 366.411649916 429.111823376 364.024079766 429.111823376 c 0
 354.647033315 429.111823376 344.782329983 433.42061502 340 439 c 0
 325 457 317 482 317 511 c 0x9f70
 317 583 360 655 432 655 c 0
 494 655 559 615 559 550 c 0
 559 495 531 449 500 430 c 0
EndSplineSet
Validated: 1
LCarets2: 1 0
Ligature2: "'ccmp' Round 2 of Cyrillic Composition-1" uniA64C uni04860311
EndChar

StartChar: uni047E
Encoding: 1150 1150 26
Width: 987
Flags: W
HStem: -6 40<277.475 429.745 555.898 709.525> 302 31<394.114 422.568 562.828 591.886> 440 158<346.736 416.027 571.26 639.868> 641 42<259.714 393.585 593.415 727.286> 713 160<434 552> 721.555 151.445<285.451 330 658 702.384> 833 40<330 434 552 658>
VStem: 36 128<196.182 484.51> 321 158<465.736 572.538> 434 118<713 833> 508 158<466.132 572.538> 823 128<196.182 484.51>
AnchorPoint: "Yerok" 870 754 basechar 0
AnchorPoint: "Diacritic" 870 754 basechar 0
LayerCount: 2
Fore
SplineSet
592 158 m 0xf1b0
 592 131 569 108 524 101 c 0
 523 99 522 96 521 94 c 0
 537 59 575 34 625 34 c 0
 781 34 823 171 823 344 c 0
 823 470 791 641 659 641 c 0
 622 641 590 625 570 597 c 1
 576 598 581 598 587 598 c 0
 631 598 666 562 666 519 c 0
 666 476 630 440 587 440 c 0
 544 440 508 475 508 519 c 0
 508 612 554 683 674 683 c 0
 842 683 951 529 951 360 c 0
 951 109 841 -6 621 -6 c 0
 571 -6 525 18 493 54 c 1
 460 18 411 -6 366 -6 c 0
 146 -6 36 109 36 360 c 0
 36 529 145 683 313 683 c 0
 433 683 479 612 479 519 c 0
 479 475 444 440 400 440 c 0
 356 440 321 476 321 519 c 0
 321 562 356 598 400 598 c 0
 406 598 411 598 417 597 c 1
 397 625 365 641 328 641 c 0
 196 641 164 470 164 344 c 0
 164 171 206 34 362 34 c 0
 412 34 449 59 466 95 c 1
 463 101 l 1
 417 108 394 130 394 158 c 0
 394 185 417 209 462 216 c 1
 452 256 431 287 400 302 c 0
 395.758844994 303.92779773 393.896188604 308.977374893 393.896188604 314.454888754 c 0
 393.896188604 323.18403614 398.626714552 333 406 333 c 0
 443 332 459 330 493 330 c 0
 527 330 543 332 580 333 c 0
 587.373285448 333 592.103811396 323.18403614 592.103811396 314.454888754 c 0
 592.103811396 308.977374893 590.241155006 303.92779773 586 302 c 0
 554 287 533 255 523 215 c 1
 568 208 592 185 592 158 c 0xf1b0
194 873 m 6xf350
 795 873 l 6xf350
 802.471263744 873 806.0795668 867.785003072 806.0795668 860.580672537 c 4
 806.0795668 851.392378839 800.210277948 838.968222359 789 830 c 4
 750 798 731 780 696 734 c 4
 690.627518594 726.478526031 680.059597025 721.554772144 671.429405632 721.554772144 c 4xf550
 663.995899934 721.554772144 658 725.207714672 658 734 c 6
 658 833 l 5
 552 833 l 5xf350
 552 713 l 5
 434 713 l 5xf950
 434 833 l 5
 330 833 l 5xf350
 330 734 l 6
 330 725.207714672 324.004100066 721.554772144 316.570594368 721.554772144 c 4xf550
 307.940402975 721.554772144 297.372481406 726.478526031 292 734 c 4
 256 781 238 798 199 830 c 4
 187.953136439 838.837490849 182.092683645 851.030894548 182.092683645 860.17681186 c 4
 182.092683645 867.589290984 185.942177205 873 194 873 c 6xf350
EndSplineSet
Validated: 1
EndChar

StartChar: uni0478
Encoding: 1144 1144 27
Width: 1042
Flags: W
HStem: -5 46<245.78 311.954> 344.036 100.413<914.527 976.051> 417 20G<604 689.5> 636 46<265.456 330.483>
VStem: 37 121<246.318 454.968> 425.014 112.986<215.038 424.445>
AnchorPoint: "Yerok" 928 502 basechar 0
AnchorPoint: "Diacritic" 817 502 basechar 0
LayerCount: 2
Fore
SplineSet
365 682 m 1x9c
 370 652 381 616 402 592 c 0
 449 537 538 451 538 318 c 0
 538 121 338 -5 218 -5 c 1
 212 20 199 46 177 71 c 0
 95 164 37 241 37 358 c 0
 37 520 212 682 365 682 c 1x9c
249 41 m 1
 373.791026951 41.9904049758 425.014402695 182.268896236 425.014402695 309.311506493 c 0
 425.014402695 310.542292838 425.009595024 311.771836902 425 313 c 0
 424 420 389 487 351 563 c 0
 338 589 331 607 326 636 c 1
 216 636 158 515 158 370 c 0
 158 277 186 232 223 138 c 0
 237 102 245 73 249 41 c 1
685 437 m 2xbc
 694 437 702 429 705 423 c 0
 742 343 766 185 777 101 c 1
 786 102 794 102 801 103 c 1
 809 152 815 232 835 314 c 0
 853 388 913 440 979 444 c 0
 982.857142857 444.285714286 986.693877551 444.448979592 990.422740525 444.448979592 c 0
 1010.60166051 444.448979592 1027.62157348 439.667779769 1027.62157348 423.636957353 c 0
 1027.62157348 421.89376406 1027.42032304 420.017550615 1027 418 c 0
 1025 407 1009 393 1004 376 c 0
 1002.73071795 370.922871789 1002.36766667 365.845743577 1002.36766667 361.088132715 c 0
 1002.36766667 354.72833182 1003.01641638 348.939488249 1003.01641638 344.484836957 c 0
 1003.01641638 341.770170712 1002.77549095 339.550981903 1002 338 c 0
 996 327 990 325 977 325 c 0
 956.512195122 325 951.253420583 344.036287924 934.294293466 344.036287924 c 0xdc
 933.870315289 344.036287924 933.43902439 344.024390244 933 344 c 0
 909 343 886 321 882 301 c 0
 851 146 844 -116 838 -300 c 0
 836 -348 823 -389 793 -415 c 0
 780.765475918 -425.624718282 770.500472619 -429.718920283 762.538731785 -429.718920283 c 0
 750.170076013 -429.718920283 743.360109067 -419.837981717 743.360109067 -409.210434848 c 0
 743.360109067 -405.431111259 744.221315178 -401.557369645 746 -398 c 0
 766 -359 773 -335 776 -294 c 0
 780 -218 785 -78 788 32 c 1
 763 29 735 21 704 10 c 0
 695 7 687 14 686 25 c 0
 675 130 649 306 596 419 c 0
 593 426 600 437 608 437 c 2
 685 437 l 2xbc
EndSplineSet
Validated: 1
EndChar

StartChar: uni0474
Encoding: 1140 1140 28
Width: 616
Flags: W
HStem: 0 40<88 146 261 329 369 420> 636 40<27 81>
DStem2: 198 676 81 636 0.0985742 -0.99513<28.272 627.777> 329 40 369 40 0.0836388 0.996496<3.34555 497.081>
AnchorPoint: "Yerok" 490 754 basechar 0
AnchorPoint: "Diacritic" 310 754 basechar 0
LayerCount: 2
Fore
SplineSet
420 0 m 1
 88 0 l 1
 88 40 l 1
 146 40 l 1
 81 636 l 1
 27 636 l 1
 27 676 l 1
 198 676 l 1
 261 40 l 1
 329 40 l 1
 364 457 l 2
 369 520 395 578 418 605 c 0
 431 621 461 652 496 659 c 0
 538 667 566 677 593 682 c 0
 600 683 606 676 604 669 c 0
 596.984845005 640.93938002 593.814408729 599.806716395 593.814408729 555.716245772 c 0
 593.814408729 549.526463823 593.876894374 543.278386907 594 537 c 0
 594 530 586 522 580 525 c 0
 538 546 523 554 483 554 c 0
 434 554 409 516 404 454 c 2
 369 40 l 1
 420 40 l 1
 420 0 l 1
EndSplineSet
Validated: 1
EndChar

StartChar: uni0460
Encoding: 1120 1120 29
Width: 972
Flags: W
HStem: 662 20G<169.5 189.5>
VStem: 38 123<301.44 613.464> 396 132<257.735 529.694> 823 116<344.945 550.37>
AnchorPoint: "Yerok" 820 754 basechar 0
AnchorPoint: "Diacritic" 490 754 basechar 0
LayerCount: 2
Fore
SplineSet
82 662 m 0
 112 672 152 680 187 682 c 0
 192 682 201 677 199 672 c 0
 183 623 161 538 161 450 c 0
 161 297 227 150 322 90 c 1
 343 107 401 163 438 202 c 1
 411 262 396 328 396 396 c 0
 396 500 414 592 438 660 c 0
 441 668 448 674 456 676 c 0
 494 687 562 699 604 702 c 0
 612 703 621 690 616 682 c 0
 573 616 528 498 528 380 c 0
 528 245 589 144 686 90 c 1
 755 141 823 265 823 390 c 0
 823 482 807 557 771 623 c 0
 768 628 771 636 775 639 c 0
 808 660 851 682 895 693 c 0
 900 694 903 688 905 683 c 0
 918 644 939 579 939 512 c 0
 939 284 824 77 654 -4 c 0
 646 -8 640 -8 632 -4 c 0
 561 28 502 86 460 158 c 1
 410 105 323 19 295 -4 c 0
 290 -8 282 -6 279 -4 c 0
 108 97 38 272 38 482 c 0
 38 542 50 604 70 652 c 0
 72 657 76 660 82 662 c 0
EndSplineSet
Validated: 1
EndChar

StartChar: uni046E
Encoding: 1134 1134 30
Width: 597
Flags: W
HStem: -310 62<178.602 301.687> -6 70<202.362 417.303> 105 40<33 67 187 221> 331 47<253.407 385.683> 425 40<41 75 189 223> 800 82<418.033 504>
VStem: 51 103<-223.733 -80.8577> 67 120<145 243.422> 75 113.973<465 559.187> 441 115<435.62 582.596> 455.019 113.981<107.26 264.586>
DStem2: 339 730 178 871 0.438157 -0.898899<-178.255 0>
AnchorPoint: "Yerok" 490 964 basechar 0
AnchorPoint: "Diacritic" 330 964 basechar 0
LayerCount: 2
Fore
SplineSet
189 465 m 1xfcc0
 223 465 l 1
 223 425 l 1
 41 425 l 1
 41 465 l 1
 75 465 l 1
 75 571 149 667 271 679 c 1
 178 871 l 2
 176 876 179 881 183 881 c 2
 260 881 l 2
 264 881 267 878 269 874 c 2
 339 730 l 1
 366 816 l 2
 375 843 387 863 411 876 c 0
 415 878 419 882 425 882 c 2
 525 882 l 2
 533.159396888 882 541.318793776 870.96969697 541.318793776 859.293777857 c 0
 541.318793776 852.366980305 538.447081711 845.212957198 531 840 c 2
 477 803 l 2
 473 800 472 801 467 800 c 0
 464 799 418 788 418 788 c 2
 413 787 412 783 410 779 c 2
 364 679 l 1
 366 675 l 1
 472 660 556 608 556 504 c 0xfcc0
 556 422 483 371 437 358 c 1
 513 330 569 269 569 175 c 0xfc20
 569 50 457 -6 322 -6 c 0
 310.8 -6 296.24 -5.52 281.2 -5.52 c 0
 258.64 -5.52 235 -6.6 220 -12 c 0
 217 -13 216 -14 214 -16 c 0
 187 -39 154 -84 154 -151 c 0
 154 -209 172 -248 244 -248 c 0
 314 -248 346 -214 390 -172 c 0
 393 -169 395 -167 399 -166 c 0
 409.900714249 -164.322967039 430.644966937 -160.536604412 447.67266579 -160.536604412 c 0
 450.951900963 -160.536604412 454.093296653 -160.677032961 457 -161 c 1
 494 -201 514 -215 555 -249 c 0
 560 -253 562 -260 556 -266 c 0
 537.206436541 -282.914207113 502.518961845 -297.17942902 480.14843647 -297.17942902 c 0
 478.712379955 -297.17942902 477.327080195 -297.120643654 476 -297 c 0
 472 -297 468 -293 466 -291 c 0
 436 -265 421 -246 400 -218 c 1
 354 -259 296 -310 205 -310 c 0
 112 -310 51 -241 51 -157 c 0xfe40
 51 -55 162 22 206 49 c 0
 208 50 211 53 214 54 c 0
 237.913043478 64.5217391304 259.310018904 67.2665406427 281.144571382 67.2665406427 c 0
 304.964083176 67.2665406427 329.304347826 64 358 64 c 0
 428 64 454 124 455 188 c 0
 455.01247084 189.010138012 455.018720806 190.017321109 455.018720806 191.021465893 c 0
 455.018720806 270.536741763 415.827741072 331 323 331 c 0
 223 331 187 237 187 145 c 1
 221 145 l 1
 221 105 l 1
 33 105 l 1
 33 145 l 1
 67 145 l 1xfd20
 67 292 183 378 323 378 c 0
 332 378 340 377 349 377 c 0
 388 395 441 433 441 513 c 0
 441 582 389 635 313 635 c 0
 215.805290426 635 188.97250765 557.891039125 188.97250765 469.913119149 c 0
 188.97250765 468.279020983 188.981764743 466.641173115 189 465 c 1xfcc0
EndSplineSet
Validated: 1
EndChar

StartChar: uni0476
Encoding: 1142 1142 31
Width: 619
Flags: W
HStem: 0 40<88 146 261 329 369 420> 636 40<27 81> 741 135<215.734 257.266 341.734 383.266>
DStem2: 198 676 81 636 0.0985742 -0.99513<28.272 627.777> 284 754 189 863 0.257111 -0.966382<-132.056 2.30449> 410 754 315 863 0.257111 -0.966382<-132.064 2.30449> 329 40 369 40 0.0836388 0.996496<3.34555 497.081>
AnchorPoint: "Yerok" 510 754 basechar 0
AnchorPoint: "Diacritic" 290 934 basechar 0
LayerCount: 2
Fore
SplineSet
420 0 m 1
 88 0 l 1
 88 40 l 1
 146 40 l 1
 81 636 l 1
 27 636 l 1
 27 676 l 1
 198 676 l 1
 261 40 l 1
 329 40 l 1
 364 457 l 2
 369 520 395 578 418 605 c 0
 431 621 461 652 496 659 c 0
 538 667 566 677 593 682 c 0
 600 683 606 676 604 669 c 0
 596.984845005 640.93938002 593.814408729 599.806716395 593.814408729 555.716245772 c 0
 593.814408729 549.526463823 593.876894374 543.278386907 594 537 c 0
 594 530 586 522 580 525 c 0
 538 546 523 554 483 554 c 0
 434 554 409 516 404 454 c 2
 369 40 l 1
 420 40 l 1
 420 0 l 1
315 863 m 2
 313 869 317 876 324 876 c 2
 370 876 l 2
 375 876 380 868 381 863 c 2
 410 754 l 2
 412 748 406 741 399 741 c 2
 357 741 l 2
 352 741 345 749 344 754 c 2
 315 863 l 2
189 863 m 2
 187 869 191 876 198 876 c 2
 242 876 l 2
 247 876 254 868 255 863 c 2
 284 754 l 2
 286 748 280 741 273 741 c 2
 231 741 l 2
 226 741 219 749 218 754 c 2
 189 863 l 2
EndSplineSet
Validated: 1
LCarets2: 1 0
Ligature2: "'ccmp' Precomposed Glyphs for Cyrillic-1" uni0474 uni030F
EndChar

StartChar: uni0466
Encoding: 1126 1126 32
Width: 859
Flags: W
HStem: 0 40<22 76 185.155 247 314 368 486 540 605 662.38 783 837> 390 40<327 368 486 521> 636 40<272 334.09 505 559>
VStem: 72 104<40.5778 229.391> 368 118<40 390> 663.082 129.918<41.0378 232.47>
DStem2: 520 597 414 566 0.617031 -0.786939<-39.3363 132.036 182.641 343.069>
AnchorPoint: "Yerok" 690 754 basechar 0
AnchorPoint: "Diacritic" 410 754 basechar 0
LayerCount: 2
Fore
SplineSet
837 0 m 1
 605 0 l 1
 605 40 l 1
 659 40 l 1
 662.571428571 53.5714285714 663.081632653 66.1224489796 663.081632653 80.5685131195 c 0
 663.081632653 86.3469387755 663 92.4285714286 663 99 c 0
 663 220 620 299 552 390 c 1
 486 390 l 1
 486 40 l 1
 540 40 l 1
 540 0 l 1
 314 0 l 1
 314 40 l 1
 368 40 l 1
 368 390 l 1
 297 390 l 1
 283 372 269 353 254 334 c 0
 201 264 176 206 176 119 c 0
 176 88 185 54 193 40 c 1
 247 40 l 1
 247 0 l 1
 22 0 l 1
 22 40 l 1
 76 40 l 1
 75 50 72 82 72 114 c 0
 72 223 120 300 193 379 c 0
 259 451 320 491 332 588 c 0
 333.236067977 599.124611797 334.090169944 608.72135955 334.090169944 618.206651122 c 0
 334.090169944 624.068883707 333.763932023 629.88854382 333 636 c 1
 272 636 l 1
 272 676 l 1
 559 676 l 1
 559 636 l 1
 505 636 l 1
 507 621 511 610 520 597 c 0
 554 550 598 506 646 446 c 0
 722 351 793 253 793 127 c 0
 793 93 787 62 783 40 c 1
 837 40 l 1
 837 0 l 1
414 566 m 0
 407 575 400 584 395 593 c 1
 384 525 359 476 327 430 c 1
 521 430 l 1
 478 486 452 517 414 566 c 0
EndSplineSet
Validated: 1
EndChar

StartChar: bracketleft
Encoding: 91 91 33
Width: 304
Flags: W
HStem: -240 40<138 304> 760 40<138 304>
VStem: 56 82<-200 760>
LayerCount: 2
Fore
SplineSet
304 -240 m 1
 56 -240 l 1
 56 800 l 1
 304 800 l 1
 304 760 l 1
 138 760 l 1
 138 -200 l 1
 304 -200 l 1
 304 -240 l 1
EndSplineSet
Validated: 1
EndChar

StartChar: bracketright
Encoding: 93 93 34
Width: 304
Flags: W
HStem: -240 40<0 166> 760 40<0 166>
VStem: 166 82<-200 760>
LayerCount: 2
Fore
SplineSet
0 800 m 1
 248 800 l 1
 248 -240 l 1
 0 -240 l 1
 0 -200 l 1
 166 -200 l 1
 166 760 l 1
 0 760 l 1
 0 800 l 1
EndSplineSet
Validated: 1
EndChar

StartChar: uni2E2F
Encoding: 11823 11823 35
Width: 183
Flags: W
HStem: 539 266
VStem: 51 96<612 673.71>
LayerCount: 2
Fore
SplineSet
18 539 m 2
 14 537 7 539 5 544 c 0
 3 549 4 555 8 557 c 2
 51 581 l 1
 51 600 49 623 43 636 c 0
 34 659 22 687 22 718 c 0
 22 726 22 730 23 735 c 2
 148 805 l 2
 150 806 152 807 154 807 c 0
 159 807 164 803 164 797 c 0
 164 794 163 790 158 787 c 2
 110 759 l 1
 123 727 141 672 146 635 c 0
 147 627 148 619 147 612 c 1
 18 539 l 2
EndSplineSet
Validated: 1
EndChar

StartChar: grave
Encoding: 96 96 36
Width: 196
Flags: W
HStem: 506 211
VStem: 1 182
LayerCount: 2
Fore
SplineSet
147 506 m 5
 1 715 l 6
 0 716 1 716 1 717 c 4
 1 719 2 719 4 719 c 6
 7 719 l 5
 72 719 l 5
 183 514 l 6
 184 513 184 512 184 511 c 4
 184 508 183 506 180 506 c 6
 147 506 l 5
EndSplineSet
Validated: 1
EndChar

StartChar: uni2DE3
Encoding: 11747 11747 37
Width: 0
Flags: W
HStem: 578 40<-259.549 -205.336 -174 -80 -10.1719 8.66762>
AnchorPoint: "Stacking" -131 500 mark 0
AnchorPoint: "Stacking" -128 866 basemark 0
AnchorPoint: "Diacritic" -132 500 mark 0
LayerCount: 2
Fore
SplineSet
84 618 m 2
 91.171875 618 93.89453125 613.728515625 93.89453125 608.114257812 c 0
 93.89453125 600.419921875 88.78125 590.203125 83 585 c 0
 63 567 46 544 33 523 c 0
 31 519 23 519 22 523 c 0
 19 541 9 560 -4 578 c 1
 -248 578 l 1
 -260 561 -267 543 -272 524 c 0
 -273 519 -284 519 -288 524 c 0
 -307 550 -322 569 -341 585 c 0
 -345.907226562 589.416015625 -349.12890625 597.444335938 -349.12890625 604.4765625 c 0
 -349.12890625 611.774414062 -345.658203125 618 -337 618 c 2
 -212 618 l 1
 -206 637 -199 655 -188 677 c 0
 -176 700 -163 719 -149 735 c 1
 -165 762 -178 785 -181 791 c 1
 -196 795 l 1
 -208 764 -227 730 -247 704 c 0
 -251 698 -255 694 -263 694 c 2
 -326 694 l 2
 -334 694 -332 708 -326 714 c 0
 -292 749 -268 795 -248 835 c 0
 -243 845 -230 842 -219 839 c 0
 -185 828 -143 818 -117 813 c 0
 -110 812 -108 804 -105 800 c 0
 -96 785 -21 654 0 618 c 1
 84 618 l 2
-80 618 m 1
 -89 633 -109 666 -129 700 c 1
 -138 688 -147 675 -155 660 c 0
 -164 645 -169 631 -174 618 c 1
 -80 618 l 1
EndSplineSet
Validated: 1
EndChar

StartChar: uni0473
Encoding: 1139 1139 38
Width: 714
Flags: W
HStem: -141 21G<571 581.5> 0 40<155 250 445 551>
VStem: 54 101<-158 -0.299973> 241 61<41.2909 217.961> 393 61<41.2444 213.305>
AnchorPoint: "Yerok" 548 502 basechar 0
AnchorPoint: "Diacritic" 345 502 basechar 0
LayerCount: 2
Fore
SplineSet
54 -19 m 2
 54 -3 47 -8 37 10 c 0
 34.4344884772 14.3980197534 33.0778880638 19.6019802466 33.0778880638 24.4303670483 c 0
 33.0778880638 32.7762370414 37.1310230457 40 46 40 c 2
 250 40 l 1
 244 71 241 102 241 132 c 0
 241 225 298 392 337 436 c 0
 342 442 352 442 357 436 c 0
 397 390 454 220 454 126 c 0
 454 99 451 69 445 40 c 1
 677 40 l 2
 685.829352165 40 691.874509343 29.6587043308 691.874509343 19.2606860519 c 0
 691.874509343 13.1713955026 689.801315846 7.06265187006 685 3 c 0
 660 -18 609 -98 598 -121 c 0
 594 -128 587 -141 576 -141 c 0
 566 -141 559 -141 557 -130 c 0
 552.5 -107.5 550.25 -57.4375 550.25 -24.953125 c 0
 550.25 -14.125 550.5 -5.25 551 0 c 1
 436 0 l 1
 420 -60 393 -115 358 -147 c 0
 351 -153 342 -152 336 -147 c 0
 302 -116 275 -61 259 0 c 1
 164 0 l 2
 159 0 155 -5 155 -10 c 2
 155 -142 l 2
 155 -150 151 -158 143 -158 c 2
 68 -158 l 2
 60 -158 54 -150 54 -142 c 2
 54 -19 l 2
345 252 m 1
 316 219 302 165 302 120 c 0
 302 93 304 64 316 40 c 1
 378 40 l 1
 389 64 393 93 393 119 c 0
 393 164 372 228 345 252 c 1
EndSplineSet
Validated: 1
EndChar

StartChar: uni2DE20487
Encoding: 62690 62690 39
Width: 0
GlyphClass: 4
Flags: W
HStem: 693 54<116.841 205.667> 700 40<-217 -138.732> 864 61<-274.247 -138.845>
VStem: -410 79.8984<704 802.365> -287 70<520 700>
AnchorPoint: "Stacking" -175 990 basemark 0
AnchorPoint: "Stacking" -181 477 mark 0
AnchorPoint: "Diacritic" -182 479 mark 0
LayerCount: 2
Fore
SplineSet
210.393554688 729.975585938 m 0xb8
 210.393554688 700.087890625 168.459960938 693 140 693 c 0
 67 693 7.228515625 736.301757812 -56 784 c 0
 -113 827 -150.993164062 864 -224 864 c 0
 -238 864 -251.051757812 860.096679688 -266 852 c 0
 -290 839 -304.475585938 832.366210938 -319 813 c 0
 -328.142578125 800.809570312 -330.1015625 781.217773438 -330.1015625 760.754882812 c 0
 -330.1015625 745.408203125 -329 729.572265625 -329 716 c 0
 -329 711 -333 704 -339 704 c 2
 -401 704 l 2
 -406 704 -410 710 -410 715 c 0
 -410 771.989257812 -386.451171875 817.581054688 -352.303710938 851.528320312 c 0
 -303.278320312 900.264648438 -232.40625 925 -178 925 c 0
 -96 925 -52.8466796875 875.231445312 15 830 c 0
 69 794 122.89453125 754.043945312 191 747 c 0
 205.021484375 745.549804688 210.393554688 738.254882812 210.393554688 729.975585938 c 0xb8
-57 708 m 0
 -74 691 -95 657 -104 638 c 0
 -107 633 -111 621 -118 621 c 0
 -123 621 -126 630 -128 637 c 0
 -133 655 -140 685 -143 700 c 1
 -212 700 l 2
 -215 700 -217 695 -217 692 c 2
 -217 528 l 2
 -217 524 -218 520 -222 520 c 2
 -281 520 l 2
 -285 520 -287 524 -287 528 c 2
 -287 729 l 2
 -287 733 -285 740 -281 740 c 2
 -64 740 l 2x78
 -53.8134765625 740 -50.37109375 733.514648438 -50.37109375 726.224609375 c 0
 -50.37109375 719.203125 -53.5654296875 711.434570312 -57 708 c 0
EndSplineSet
Validated: 1
LCarets2: 1 0
Ligature2: "'ccmp' Precomposed Glyphs for Cyrillic-1" uni2DE2 uni0487
EndChar

StartChar: uni047B
Encoding: 1147 1147 40
Width: 722
Flags: W
HStem: -43 114<315.635 404.061> 366 114<315.199 403.673>
VStem: 46 107<118.056 317.741> 567 107<118.056 317.741>
AnchorPoint: "Yerok" 598 502 basechar 0
AnchorPoint: "Diacritic" 357 524 basechar 0
LayerCount: 2
Fore
SplineSet
46 218 m 0
 46 375 160 431 306 442 c 1
 314 464 335 480 360 480 c 0
 384 480 405 464 413 442 c 1
 560 431 674 375 674 218 c 0
 674 60 560 5 413 -5 c 1
 405 -27 384 -43 360 -43 c 0
 335 -43 314 -27 306 -5 c 1
 160 5 46 60 46 218 c 0
567 218 m 0
 567 328 508 389 414 405 c 1
 406 382 385 366 360 366 c 0
 335 366 313 382 306 405 c 1
 212 389 153 328 153 218 c 0
 153 108 212 47 305 31 c 1
 313 54 335 71 360 71 c 0
 385 71 407 54 414 31 c 1
 508 47 567 108 567 218 c 0
EndSplineSet
Validated: 1
EndChar

StartChar: uni0471
Encoding: 1137 1137 41
Width: 853
Flags: W
HStem: -511 62.1807<437.251 493.939> 10 49<451 477.921>
VStem: 371 78<-227.4 8 59 298.218> 475 72.5171<58.9337 152.332>
AnchorPoint: "Yerok" 668 532 basechar 0
AnchorPoint: "Diacritic" 417 892 basechar 0
LayerCount: 2
Fore
SplineSet
258 -7 m 0
 250 -8 243 -1 241 6 c 0
 201 178 109 335 28 437 c 0
 24 442 31 457 39 458 c 0
 48.9311570522 459.354248689 66.8096019875 459.893390928 85.1843011315 459.893390928 c 0
 107.514162296 459.893390928 130.576908363 459.097167541 141 458 c 0
 149 457 153 450 157 444 c 0
 216 350 309 157 348 53 c 1
 355 54 362 55 370 56 c 1
 369 65 369 73 369 82 c 0
 366 313 359 535 341 710 c 0
 340 724 329 727 313 739 c 0
 308.346153846 742.384615385 306.019230769 748.99112426 306.019230769 755.563211197 c 0
 306.019230769 764.525147929 310.346153846 773.423076923 319 774 c 0
 395 779 432 778 493 794 c 0
 493.709257029 794.189135208 494.407335269 794.279897067 495.092860422 794.279897067 c 0
 505.372800371 794.279897067 512.829909282 773.870144048 512.829909282 758.717407771 c 0
 512.829909282 753.510272154 511.94929417 748.923941255 510 746 c 0
 500 732 499 731 497 708 c 0
 485 552 470 322 452 70 c 0
 451 66 451 62 451 59 c 1
 459 59 467 58 475 58 c 1
 504 234 602 466 763 482 c 0
 764.955656566 482.209534632 766.877164983 482.311746512 768.764865977 482.311746512 c 0
 793.904215007 482.311746512 813.04767316 464.184033189 827 440 c 0
 830 435 827 429 826 424 c 0
 818 394 776 331 747 313 c 0
 744 311 736 314 733 317 c 0
 711 337 694 356 677 377 c 1
 626 327 562 227 550 120 c 0
 548.291561976 105.990808202 547.517127306 93.0323701782 547.517127306 80.925225072 c 0
 547.517127306 57.5989949685 550.391813234 37.432747065 555 19 c 0
 557 11 549 2 541 3 c 0
 508 7 478 9 449 10 c 1
 446 -100 437 -309 425 -422 c 0
 424 -430 430 -445 437 -447 c 0
 442.366750419 -448.341687605 447.589490788 -448.819314908 452.726186057 -448.819314908 c 0
 465.42399351 -448.819314908 477.59600649 -445.900685092 490.117813943 -445.900685092 c 0
 491.40784422 -445.900685092 492.701587102 -445.931662479 494 -446 c 0
 512.130469046 -447.00724828 520.876358934 -456.638163896 520.876358934 -467.611689151 c 0
 520.876358934 -478.427280777 512.380403374 -490.547113822 496 -497 c 0
 467 -509 438 -511 404 -511 c 0
 374.44159444 -511 345.792345321 -478.270368145 345.792345321 -448.353098181 c 0
 345.792345321 -446.894001547 345.860490861 -445.44159444 346 -444 c 0
 360 -304 371 -94 371 8 c 1
 335 6 299 0 258 -7 c 0
EndSplineSet
Validated: 1
EndChar

StartChar: uni047D
Encoding: 1149 1149 42
Width: 870
Flags: W
HStem: -4 96.9506<173.967 323.82 517.284 696.672> 338 89<575.677 704.685> 350 83<157.937 280.449> 467 49<816.9 847.795> 578 77<394.95 475.286> 716.019 53.9812<337.042 505.562>
VStem: 24 91<151.145 305.292> 142 117<544 627.796> 299 88<284.175 329.948> 317 61<440.708 560.698> 485 74<470.18 570.153> 755 88<147.563 287.383>
AnchorPoint: "Yerok" 424 824 basechar 0
AnchorPoint: "Diacritic" 425 824 basechar 0
LayerCount: 2
Fore
SplineSet
486 138 m 0xbfb0
 512 115 544 92 602 92 c 0
 687 92 755 132 755 216 c 0
 755 285 710 338 629 338 c 0
 594 338 575 320 555 291 c 0
 546.400860803 278.432027327 532.113629688 273.739874233 518.216215398 273.739874233 c 0
 511.103807469 273.739874233 504.093499573 274.968833476 498 277 c 0
 483.933407243 281.688864252 474.752469592 303.477521375 474.752469592 322.798573106 c 0
 474.752469592 328.201271979 475.470341628 333.411024883 477 338 c 0
 496 395 559 427 629 427 c 0xdfb0
 753 427 843 344 843 210 c 0
 843 81 742 -2 601 -3 c 0
 600.272882407 -3.00932202042 599.547155216 -3.01395143734 598.822824906 -3.01395143734 c 0
 521.84615507 -3.01395143734 460.645763224 49.2703385921 423 78 c 1
 381 46 311 -4 222 -4 c 0
 102 -4 24 106 24 222 c 0
 24 332 103 433 213 433 c 0
 296 433 387 399 387 319 c 0
 387 294 370 281 352 279 c 0
 350.109406171 278.800990123 348.159404946 278.700992574 346.171671198 278.700992574 c 0
 328.183172806 278.700992574 307.104455555 286.890593829 299 304 c 0
 282 340 253 350 217 350 c 0
 153 350 115 292 115 230 c 0
 115 151.318601268 161.430718799 92.9506420097 250.486704417 92.9506420097 c 0
 251.979170711 92.9506420097 253.483608542 92.9670349683 255 93 c 0
 301 94 347 99 392 129 c 0
 410 141 432 163 454 166 c 0
 454.134037458 166.026807492 454.274542691 166.039960793 454.421323048 166.039960793 c 0
 459.749891124 166.039960793 473.348497391 148.705117592 486 138 c 0xbfb0
147 544 m 2
 143 544 142 550 142 554 c 0
 147 601 164 645 203 674 c 0
 204 675 207 676 210 678 c 0
 233 693 318 740 349 755 c 2
 357 759 l 2
 380 768 400 770 428 770 c 0
 537 770 624 746 685 653 c 0
 726 590 753 538 831 516 c 0
 840 514 848 503 848 492 c 0
 848 480 841 468 829 467 c 0
 825.192307692 466.653846154 821.065088757 466.480769231 816.695152481 466.480769231 c 0
 783.192307692 466.480769231 735.423076923 476.653846154 708 497 c 0
 668 527 634 568 591 619 c 0
 541.626965428 677.260180795 498.104402559 716.018789247 422.88109098 716.018789247 c 0
 421.925864788 716.018789247 420.965526759 716.012539309 420 716 c 0
 394 716 373 713 355 708 c 0
 354 708 349 705 347 703 c 0
 338 696 298 662 290 654 c 0
 288 652 286 649 285 648 c 0
 266 620 259 577 259 550 c 0
 259 546 255 544 251 544 c 2
 147 544 l 2
500 430 m 0
 494.708497378 426.976284216 483.702709041 423.952568432 475.189863548 423.952568432 c 0
 472.441272978 423.952568432 469.952568432 424.267786838 468 425 c 0
 458 429 456 439 459 448 c 0
 469 473 485 485 485 517 c 0
 485 547 471 578 439 578 c 0
 401 578 378 543 378 507 c 0
 378 480 384 476 384 451 c 0
 384 441 378 432 371 430 c 0
 368.767604969 429.391164992 366.411649916 429.111823376 364.024079766 429.111823376 c 0
 354.647033315 429.111823376 344.782329983 433.42061502 340 439 c 0
 325 457 317 482 317 511 c 0x9f70
 317 583 360 655 432 655 c 0
 494 655 559 615 559 550 c 0
 559 495 531 449 500 430 c 0
EndSplineSet
Validated: 1
LCarets2: 1 0
Ligature2: "'ccmp' Round 2 of Cyrillic Composition-1" uniA64D uni04860311
EndChar

StartChar: uni047F
Encoding: 1151 1151 43
Width: 699
Flags: W
HStem: 424.336 20G<618.241 623.512> 573 164<58 167> 590 147<289 399> 697 40<167 289 399 506.757>
VStem: 44.258 94.4547<181.299 380.038> 58 109<573 696.7> 279.521 104.479<170.112 343.572> 289 110<590 697> 563.025 95.9749<186.476 326.017>
AnchorPoint: "Yerok" 338 802 basechar 0
AnchorPoint: "Diacritic" 337 802 basechar 0
LayerCount: 2
Fore
SplineSet
49 389 m 0x8a80
 51 403 59 414 72 418 c 0
 109 429 142 436 182 439 c 0
 193 440 200 422 194 413 c 0
 183 396 163 383 147 369 c 0
 145 367 141 362 141 359 c 0
 139.468851232 343.549316977 138.712716199 328.156759985 138.712716199 312.954479943 c 0
 138.712716199 218.941323866 167.630111238 132.205060817 221 84 c 1
 258 98 284 131 304 163 c 1
 285.566201313 212.924871444 279.521124179 277.008281805 279.521124179 334.406827993 c 0
 279.521124179 351.738679587 280.072299781 368.461021334 281 384 c 0
 281 394 288 415 299 417 c 0
 334 422 384 431 430 447 c 0
 439 450 450 438 445 429 c 0
 415 376 384 306 384 222 c 0
 384 154 427 93 488 71 c 1
 534.214038002 86.7324384687 563.025055835 153.707102988 563.025055835 211.081339344 c 0
 563.025055835 212.057102801 563.016722596 213.030089449 563 214 c 0
 562 279 550 333 507 370 c 0
 500 376 500 392 507 394 c 0
 545 404 579 422 614 443 c 0
 615.479202711 443.924501694 617.266098639 444.336181359 619.215295635 444.336181359 c 0
 627.807977626 444.336181359 639.554701016 436.335896951 642 429 c 0
 651 404 659 347 659 309 c 0
 659 217 612 58 489 -4 c 0
 483 -7 479 -6 472 -4 c 0
 418 16 374 51 335 105 c 1
 299 58 254 21 204 -4 c 0
 199 -7 195 -6 189 -4 c 0
 156 9 124 47 98 89 c 0
 57.7202659936 154.17993321 44.2580025926 238.668445257 44.2580025926 313.005520247 c 0
 44.2580025926 340.172072957 46.0559468013 365.98285681 49 389 c 0x8a80
58 678 m 2xc580
 58 694 51 689 41 707 c 0
 38.4344884772 711.398019753 37.0778880638 716.601980247 37.0778880638 721.430367048 c 0
 37.0778880638 729.776237041 41.1310230457 737 50 737 c 2
 642 737 l 2
 656 737 659 715 650 707 c 0
 626 687 594 646 584 622 c 0
 581 614 573 602 562 602 c 0
 552 602 544 615 538 625 c 0
 519 656 507 680 494 697 c 1
 409 697 l 2x9580
 403 697 399 690 399 684 c 2
 399 606 l 2
 399 598 395 590 387 590 c 2
 303 590 l 2xa580
 295 590 289 598 289 606 c 2
 289 684 l 2
 289 690 285 697 279 697 c 2
 176 697 l 2x9580
 171 697 167 692 167 687 c 2
 167 589 l 2
 167 581 163 573 155 573 c 2
 72 573 l 2
 64 573 58 581 58 589 c 2
 58 678 l 2xc580
EndSplineSet
Validated: 1
EndChar

StartChar: uni0479
Encoding: 1145 1145 44
Width: 738
Flags: W
HStem: 344.036 100.413<610.527 672.051> 417 20G<300 385.5>
VStem: 30 60<145.854 313.251> 184 60<146.761 309.447>
AnchorPoint: "Yerok" 628 502 basechar 0
AnchorPoint: "Diacritic" 497 502 basechar 0
LayerCount: 2
Fore
SplineSet
381 437 m 2x70
 390 437 398 429 401 423 c 0
 438 343 462 185 473 101 c 1
 482 102 490 102 497 103 c 1
 505 152 511 232 531 314 c 0
 549 388 609 440 675 444 c 0
 678.857142857 444.285714286 682.693877551 444.448979592 686.422740525 444.448979592 c 0
 706.601660514 444.448979592 723.621573477 439.667779769 723.621573477 423.636957353 c 0
 723.621573477 421.89376406 723.420323045 420.017550615 723 418 c 0
 721 407 705 393 700 376 c 0
 698.730717947 370.922871789 698.367666667 365.845743577 698.367666667 361.088132715 c 0
 698.367666667 354.72833182 699.016416378 348.939488249 699.016416378 344.484836957 c 0
 699.016416378 341.770170712 698.775490951 339.550981903 698 338 c 0
 692 327 686 325 673 325 c 0
 652.512195122 325 647.253420583 344.036287924 630.294293466 344.036287924 c 0xb0
 629.870315289 344.036287924 629.43902439 344.024390244 629 344 c 0
 605 343 582 321 578 301 c 0
 547 146 540 -116 534 -300 c 0
 532 -348 519 -389 489 -415 c 0
 476.765475918 -425.624718282 466.500472619 -429.718920283 458.538731785 -429.718920283 c 0
 446.170076013 -429.718920283 439.360109067 -419.837981717 439.360109067 -409.210434848 c 0
 439.360109067 -405.431111259 440.221315178 -401.557369645 442 -398 c 0
 462 -359 469 -335 472 -294 c 0
 476 -218 481 -78 484 32 c 1
 459 29 431 21 400 10 c 0
 391 7 383 14 382 25 c 0
 371 130 345 306 292 419 c 0
 289 426 296 437 304 437 c 2
 381 437 l 2x70
150 446 m 0
 208 413 244 320 244 226 c 0
 244 130 210 40 145 0 c 0
 137 -5 129 -6 123 0 c 0
 69 53 30 129 30 232 c 0
 30 325 77 413 130 446 c 0
 137 450 143 450 150 446 c 0
135 347 m 1
 106 314 90 275 90 230 c 0
 90 188 104 141 138 114 c 1
 168 141 184 188 184 229 c 0
 184 274 162 323 135 347 c 1
EndSplineSet
Validated: 1
LCarets2: 1 0
Ligature2: "'ccmp' Precomposed Glyphs for Cyrillic-1" uni1C82 uni0443
EndChar

StartChar: uni0475
Encoding: 1141 1141 45
Width: 537
Flags: W
HStem: 0 21G<182 306> 327.504 114.496<412.157 485.541>
VStem: 175 138<0 104.741> 273 39.5556<150.692 194.533>
AnchorPoint: "Yerok" 338 502 basechar 0
AnchorPoint: "Diacritic" 337 502 basechar 0
LayerCount: 2
Fore
SplineSet
175 13 m 0xe0
 175.607625219 24.5448791517 176.584458843 39.0434255528 176.584458843 54.4765761569 c 0
 176.584458843 64.4425533934 176.177124344 74.7982556813 175 85 c 0xe0
 163 190 105 300 36 393 c 0
 29 402 27 410 27 420 c 0
 27 428 33 437 41 437 c 2
 136 437 l 2
 148 437 151 428 154 423 c 0
 205 321 252 180 258 108 c 0
 258 104 273 104 273 108 c 0xd0
 279 206 351 442 472 442 c 0
 485 442 496 442 506 436 c 0
 511 433 513 428 512 424 c 0
 503 389 493 345 490 316 c 0
 490 312 481 308 477 310 c 0
 461.949129623 317.968107847 450.817440892 327.503888351 434.583378111 327.503888351 c 0
 432.481021777 327.503888351 430.293093674 327.343964051 428 327 c 0
 410 324 391 317 380 300 c 0
 332 229 317 144 313 80 c 0xe0
 312.666666667 71.6666666667 312.555555556 62.7777777778 312.555555556 54.1851851852 c 0xd0
 312.555555556 37 313 21 313 13 c 0
 313 7 309 0 303 0 c 2
 185 0 l 2
 179 0 175 8 175 13 c 0xe0
EndSplineSet
Validated: 1
EndChar

StartChar: uni0461
Encoding: 1121 1121 46
Width: 699
Flags: W
HStem: 424.336 20G<618.241 623.512>
VStem: 44.258 94.4547<181.299 380.038> 279.521 104.479<170.112 343.572> 563.025 95.9749<186.476 326.017>
AnchorPoint: "Yerok" 568 502 basechar 0
AnchorPoint: "Diacritic" 463 516 basechar 0
LayerCount: 2
Fore
SplineSet
49 389 m 0
 51 403 59 414 72 418 c 0
 109 429 142 436 182 439 c 0
 193 440 200 422 194 413 c 0
 183 396 163 383 147 369 c 0
 145 367 141 362 141 359 c 0
 139.468851232 343.549316977 138.712716199 328.156759985 138.712716199 312.954479943 c 0
 138.712716199 218.941323866 167.630111238 132.205060817 221 84 c 1
 258 98 284 131 304 163 c 1
 285.566201313 212.924871444 279.521124179 277.008281805 279.521124179 334.406827993 c 0
 279.521124179 351.738679587 280.072299781 368.461021334 281 384 c 0
 281 394 288 415 299 417 c 0
 334 422 384 431 430 447 c 0
 439 450 450 438 445 429 c 0
 415 376 384 306 384 222 c 0
 384 154 427 93 488 71 c 1
 534.214038002 86.7324384687 563.025055835 153.707102988 563.025055835 211.081339344 c 0
 563.025055835 212.057102801 563.016722596 213.030089449 563 214 c 0
 562 279 550 333 507 370 c 0
 500 376 500 392 507 394 c 0
 545 404 579 422 614 443 c 0
 615.479202711 443.924501694 617.266098639 444.336181359 619.215295635 444.336181359 c 0
 627.807977626 444.336181359 639.554701016 436.335896951 642 429 c 0
 651 404 659 347 659 309 c 0
 659 217 612 58 489 -4 c 0
 483 -7 479 -6 472 -4 c 0
 418 16 374 51 335 105 c 1
 299 58 254 21 204 -4 c 0
 199 -7 195 -6 189 -4 c 0
 156 9 124 47 98 89 c 0
 57.7202659936 154.17993321 44.2580025926 238.668445257 44.2580025926 313.005520247 c 0
 44.2580025926 340.172072957 46.0559468013 365.98285681 49 389 c 0
EndSplineSet
Validated: 1
EndChar

StartChar: uni046F
Encoding: 1135 1135 47
Width: 547
Flags: W
HStem: -287 65<110.647 240.314> -234 56<265.42 429.184> -94 54.1242<206.326 380.413> -86.9135 48.3405<136.23 314.801> 167.021 51.9792<238 351.968>
VStem: 16 85<-210.698 -125.748> 69 122<35 106.196> 392 93<244.038 371.099> 402.039 96.9606<-18.9461 124.588>
DStem2: 284 509 116 611 0.565231 -0.824932<-158.762 0>
AnchorPoint: "Yerok" 277 725 basechar 0
AnchorPoint: "Diacritic" 277 723 basechar 0
LayerCount: 2
Fore
SplineSet
214 611 m 2x2b
 284 509 l 1
 296 542 309 573 325 607 c 0
 337 633 368 651 397 651 c 0
 423 651 450 639 451 617 c 0
 451.063250108 615.861498055 451.094495607 614.734997839 451.094495607 613.621764536 c 0
 451.094495607 597.134501368 444.240998704 583.557249244 433 577 c 0
 387 552 347 511 318 460 c 1
 323 453 l 1
 403 443 485 395 485 317 c 0x2b
 485 258 448 218 410 191 c 1
 463 163 499 115 499 46 c 0
 499 -42 437 -94 348 -94 c 0x2880
 289.647058824 -94 249.010380623 -86.9134948097 196.910238144 -86.9134948097 c 0
 193.653979239 -86.9134948097 190.352941176 -86.9411764706 187 -87 c 0
 145 -88 101 -130 101 -180 c 0
 101 -202 133 -222 155 -222 c 0x9c80
 233 -221 285 -178 366 -178 c 0
 430 -178 489 -200 502 -262 c 0
 502.548368747 -264.741843737 502.814823479 -267.540070278 502.814823479 -270.33026594 c 0
 502.814823479 -287.892766707 492.258156263 -305.137092187 475 -306 c 0
 474.616187163 -306.017446038 474.238157247 -306.026065513 473.865745644 -306.026065513 c 0
 452.891671401 -306.026065513 449.73830943 -278.685971316 435 -261 c 0
 417 -239 394 -234 367 -234 c 0x4c80
 275 -234 229 -287 141 -287 c 0
 77 -287 16 -265 16 -198 c 0
 16 -117 84 -59 178 -40 c 0
 183.101020514 -38.9261009443 195.69822571 -38.5729888773 211.843948009 -38.5729888773 c 0x9c80
 242.856394282 -38.5729888773 286.960780233 -39.8757645853 316.181711708 -39.8757645853 c 0
 328.412385442 -39.8757645853 338.035606746 -39.6475295549 343 -39 c 0
 383.898537654 -34.1311264697 402.039383033 6.77075983061 402.039383033 47.694253103 c 0x2c80
 402.039383033 48.7963875428 402.026225294 49.8985376544 402 51 c 0
 401 107 368 166 312 167 c 0
 311.084919267 167.01386486 310.172529814 167.020809283 309.262924927 167.020809283 c 0
 244.567474084 167.020809283 193.958405421 131.890811232 191 53 c 0
 191 44 186 35 177 35 c 2
 79 35 l 2
 71 35 67 46 69 53 c 0
 94 155 182 219 285 219 c 0
 308 219 331 216 353 211 c 1
 384 235 392 266 392 310 c 0
 392 366 346 411 289 411 c 0
 211.048591841 411 173.923144222 329.348078918 173.923144222 277.059624438 c 0
 173.923144222 275.685464513 173.948785204 274.331584696 174 273 c 0
 174 265 169 255 160 255 c 2
 76 255 l 2
 68 255 65 265 65 273 c 0
 70 371 129 432 227 449 c 1
 116 611 l 2
 113 615 114 628 125 628 c 2
 190 628 l 2
 203 628 210 617 214 611 c 2x2b
EndSplineSet
Validated: 1
EndChar

StartChar: uni0477
Encoding: 1143 1143 48
Width: 537
Flags: W
HStem: 0 21G<182 306> 327.504 114.496<412.157 485.541> 501 135<246.734 293.266 372.734 419.266>
VStem: 175 138<0 104.741> 273 39.5556<150.692 194.533>
DStem2: 320 514 220 623 0.257111 -0.966382<-131.93 0.879898> 446 514 346 623 0.257111 -0.966382<-131.93 0.879898>
AnchorPoint: "Yerok" 308 692 basechar 0
AnchorPoint: "Diacritic" 307 692 basechar 0
LayerCount: 2
Fore
SplineSet
175 13 m 0xf0
 175.607625219 24.5448791517 176.584458843 39.0434255528 176.584458843 54.4765761569 c 0
 176.584458843 64.4425533934 176.177124344 74.7982556813 175 85 c 0xf0
 163 190 105 300 36 393 c 0
 29 402 27 410 27 420 c 0
 27 428 33 437 41 437 c 2
 136 437 l 2
 148 437 151 428 154 423 c 0
 205 321 252 180 258 108 c 0
 258 104 273 104 273 108 c 0xe8
 279 206 351 442 472 442 c 0
 485 442 496 442 506 436 c 0
 511 433 513 428 512 424 c 0
 503 389 493 345 490 316 c 0
 490 312 481 308 477 310 c 0
 461.949129623 317.968107847 450.817440892 327.503888351 434.583378111 327.503888351 c 0
 432.481021777 327.503888351 430.293093674 327.343964051 428 327 c 0
 410 324 391 317 380 300 c 0
 332 229 317 144 313 80 c 0xf0
 312.666666667 71.6666666667 312.555555556 62.7777777778 312.555555556 54.1851851852 c 0xe8
 312.555555556 37 313 21 313 13 c 0
 313 7 309 0 303 0 c 2
 185 0 l 2
 179 0 175 8 175 13 c 0xf0
346 623 m 2
 344 629 348 636 355 636 c 2
 404 636 l 2
 409 636 416 628 417 623 c 2
 446 514 l 2
 448 508 442 501 435 501 c 2
 388 501 l 2
 383 501 376 509 375 514 c 2
 346 623 l 2
220 623 m 2
 218 629 222 636 229 636 c 2
 278 636 l 2
 283 636 290 628 291 623 c 2
 320 514 l 2
 322 508 316 501 309 501 c 2
 262 501 l 2
 257 501 250 509 249 514 c 2
 220 623 l 2
EndSplineSet
Validated: 1
LCarets2: 1 0
Ligature2: "'ccmp' Precomposed Glyphs for Cyrillic-1" uni0475 uni030F
EndChar

StartChar: uni0467
Encoding: 1127 1127 49
Width: 665
Flags: W
HStem: 0 192.869<269.22 377.23> 417 20G<246.5 404>
VStem: 269 109<2.99991e-07 151.993> 272 128.75<297.625 378.331>
AnchorPoint: "Yerok" 488 502 basechar 0
AnchorPoint: "Diacritic" 327 502 basechar 0
LayerCount: 2
Back
SplineSet
614 25 m 4
 612 13 607 0 595 0 c 6
 508 0 l 6
 490 0 487 10 486 22 c 4
 485 33 489 41 498 47 c 5
 497 56 493 64 487 74 c 4
 476 91 449 120 419 154 c 5
 404 154 390 152 390 152 c 6
 382 152 378 143 378 135 c 6
 378 19 l 6
 378 10 372 0 363 0 c 6
 285 0 l 6
 275 0 269 10 269 21 c 6
 269 142 l 6
 269 150 265 158 257 158 c 6
 257 158 246 160 234 160 c 5
 223 148 210 136 196 122 c 4
 167 94 138 65 133 38 c 5
 141 35 145 28 145 19 c 4
 145 10 140 0 131 0 c 6
 57 -1 l 6
 42 -1 41 21 45 34 c 4
 64 87 99 125 147 166 c 4
 190 203 225 227 256 279 c 4
 267 298 271 317 272 339 c 5
 262 355 253 372 245 390 c 4
 241 399 237 406 237 417 c 4
 237 426 242 437 251 437 c 6
 399 437 l 6
 409 437 414 424 414 414 c 4
 414 405 409 396 401 393 c 5
 401 393 400 372 402 360 c 4
 411 309 429 280 461 240 c 4
 512 177 556 152 594 81 c 4
 600 70 605 63 609 51 c 4
 612 41 616 35 614 25 c 4
488 544 m 6
 494 532 487 513 474 509 c 4
 461 505 444 510 437 521 c 6
 300 735 l 6
 296 742 305 752 313 752 c 6
 370 752 l 6
 380 752 388 746 392 738 c 6
 488 544 l 6
380 198 m 5
 358 224 333 253 309 286 c 5
 307 277 304 268 300 260 c 4
 288 235 277 216 265 199 c 5
 309 191 339 191 380 198 c 5
EndSplineSet
Fore
SplineSet
614 25 m 0xd0
 612 13 607 0 595 0 c 2
 508 0 l 2
 490 0 487 10 486 22 c 0
 485 33 489 41 498 47 c 1
 497 56 493 64 487 74 c 0
 476 91 449 120 419 154 c 1
 404 154 390 152 390 152 c 2
 382 152 378 143 378 135 c 2
 378 19 l 2
 378 10 372 0 363 0 c 2
 285 0 l 2
 275 0 269 10 269 21 c 2
 269 142 l 2xe0
 269 150 265 158 257 158 c 2
 257 158 246 160 234 160 c 1
 223 148 210 136 196 122 c 0
 167 94 138 65 133 38 c 1
 141 35 145 28 145 19 c 0
 145 10 140 0 131 0 c 2
 57 -1 l 2
 46.6837494598 -1 42.9895004881 9.40600246471 42.9895004881 20.1335262276 c 0
 42.9895004881 25.0040005762 43.751000144 29.9407504681 45 34 c 0
 64 87 99 125 147 166 c 0
 190 203 225 227 256 279 c 0
 267 298 271 317 272 339 c 1
 262 355 253 372 245 390 c 0
 241 399 237 406 237 417 c 0
 237 426 242 437 251 437 c 2
 399 437 l 2
 409 437 414 424 414 414 c 0
 414 405 409 396 401 393 c 1
 401 393 400.75 387.75 400.75 381 c 0
 400.75 374.25 401 366 402 360 c 0
 411 309 429 280 461 240 c 0
 512 177 556 152 594 81 c 0
 600 70 605 63 609 51 c 0
 612 41 616 35 614 25 c 0xd0
380 198 m 1
 358 224 333 253 309 286 c 1
 307 277 304 268 300 260 c 0
 288 235 277 216 265 199 c 1
 287.734149964 194.866518188 306.730809203 192.868745363 325.438381719 192.868745363 c 0
 342.937713443 192.868745363 360.184094285 194.616796585 380 198 c 1
EndSplineSet
Validated: 1
EndChar

StartChar: uniE8E5
Encoding: 59621 59621 50
Width: 381
Flags: W
HStem: 0 60<134.566 227.676> 609 49<201.549 254.954>
VStem: 16 102<408.883 545.142> 51 66<77.8229 182.657> 154 43<562 606.663> 248 91.0442<80.6732 184.147> 259 43<562 606.663> 263.535 140.465<696.609 752>
DStem2: 132 262 142 186 0.655828 0.75491<-108.737 0 98.563 285.473>
AnchorPoint: "Yerok" 157 702 basechar 0
AnchorPoint: "Diacritic" 157 702 basechar 0
LayerCount: 2
Fore
SplineSet
242 297 m 1xe9
 261 282 279 265 293 250 c 0
 323.086652365 218.942810462 339.044168665 186.001736116 339.044168665 136.54973507 c 0
 339.044168665 135.048508956 339.029462827 133.532067001 339 132 c 0
 338 52 267 0 187 0 c 0
 115 0 51 48 51 124 c 0xdc
 51 158 62 190 81 209 c 0
 98 226 115 244 132 262 c 1
 60 324 16 398 16 506 c 0
 16 520 46 565 89 588 c 0
 93.970106474 590.631232839 99.3675824699 591.809409304 104.567700921 591.809409304 c 0
 117.154326904 591.809409304 128.584718409 584.906971139 130 575 c 0
 130.037037037 574.666666667 130.054869684 574.29218107 130.054869684 573.879591526 c 0
 130.054869684 563.152263374 118 526.666666667 118 518 c 0
 118 438 143 381 197 333 c 1
 211 349 224 365 237 380 c 0
 296 449 336 542 348 712 c 1
 331 701 309 682 301 675 c 0
 299.427641611 673.58487745 297.237205497 672.960894389 294.696919413 672.960894389 c 0
 282.892892566 672.960894389 263.534866088 686.434006367 263.534866088 696.608967675 c 0
 263.534866088 698.170536649 263.990816791 699.654422388 265 701 c 0
 288 733 313 765 347 796 c 0
 351.335680868 799.793720759 362.426939196 801.531396204 372.951267998 801.531396204 c 0
 381.845949263 801.531396204 390.335680868 800.290199458 394 798 c 0
 400 794 404 774 404 752 c 0
 404 559 354 439 281 346 c 0
 268 330 255 314 242 297 c 1xe9
179 225 m 1
 167 212 154 198 142 186 c 0
 128 172 117 151 117 130 c 0
 117 92 140 60 191 60 c 0
 217 60 248 96 248 132 c 0
 248 157 239 172 225 186 c 0
 213 199 198 211 179 225 c 1
302 562 m 5xca
 259 562 l 5
 259 590 249 609 228 609 c 4
 208 609 197 590 197 562 c 5
 154 562 l 5
 154 622 182 658 228 658 c 4
 276 658 302 622 302 562 c 5xca
EndSplineSet
Validated: 1
LCarets2: 1 0
Ligature2: "'ccmp' Precomposed Glyphs for Cyrillic-1" uniA64B uni0311
EndChar

StartChar: quotesinglbase
Encoding: 8218 8218 51
Width: 245
Flags: W
HStem: 45 80<87.2978 142.425>
VStem: 151.062 67.9381<-69.6299 37.4346>
LayerCount: 2
Fore
SplineSet
37 15 m 0
 36.9911816854 15.4056424705 36.9867958431 15.8126846691 36.9867958431 16.2210703655 c 0
 36.9867958431 62.1237674548 92.3968241559 125 137 125 c 0
 191 125 219 66 219 12 c 0
 219 -48 179 -114 131 -147 c 0
 123 -152 115 -157 108 -152 c 0
 100 -146 105 -131 110 -125 c 0
 133 -92 150 -61 151 -25 c 0
 151.041103501 -23.4791704725 151.061933028 -21.9650989362 151.061933028 -20.4597992748 c 0
 151.061933028 14.6570776225 139.725791477 45 110 45 c 0
 91 45 74 28 66 10 c 0
 63 4 54 -4 47 -2 c 0
 40 -1 37 9 37 15 c 0
EndSplineSet
Validated: 1
EndChar

StartChar: quotedblbase
Encoding: 8222 8222 52
Width: 457
Flags: W
HStem: 45 80<87.2978 142.425 302.298 357.425>
VStem: 151.062 67.9381<-69.6299 37.4346> 366.062 67.9381<-69.6299 37.4346>
LayerCount: 2
Fore
SplineSet
37 15 m 0
 36.9911816854 15.4056424705 36.9867958431 15.8126846691 36.9867958431 16.2210703655 c 0
 36.9867958431 62.1237674548 92.3968241559 125 137 125 c 0
 191 125 219 66 219 12 c 0
 219 -48 179 -114 131 -147 c 0
 123 -152 115 -157 108 -152 c 0
 100 -146 105 -131 110 -125 c 0
 133 -92 150 -61 151 -25 c 0
 151.041103501 -23.4791704725 151.061933028 -21.9650989362 151.061933028 -20.4597992748 c 0
 151.061933028 14.6570776225 139.725791477 45 110 45 c 0
 91 45 74 28 66 10 c 0
 63 4 54 -4 47 -2 c 0
 40 -1 37 9 37 15 c 0
252 15 m 0
 251.991181685 15.4056424705 251.986795843 15.8126846691 251.986795843 16.2210703655 c 0
 251.986795843 62.1237674548 307.396824156 125 352 125 c 0
 406 125 434 66 434 12 c 0
 434 -48 394 -114 346 -147 c 0
 338 -152 330 -157 323 -152 c 0
 315 -146 320 -131 325 -125 c 0
 348 -92 365 -61 366 -25 c 0
 366.041103501 -23.4791704725 366.061933028 -21.9650989362 366.061933028 -20.4597992748 c 0
 366.061933028 14.6570776225 354.725791477 45 325 45 c 0
 306 45 289 28 281 10 c 0
 278 4 269 -4 262 -2 c 0
 255 -1 252 9 252 15 c 0
EndSplineSet
Validated: 1
EndChar

StartChar: quoteleft
Encoding: 8216 8216 53
Width: 225
Flags: W
HStem: 522 80<100.54 154.48>
VStem: 23 67.938<609.565 716.723>
LayerCount: 2
Fore
SplineSet
205 632 m 0
 205.008817625 631.594389236 205.013203471 631.187378963 205.013203471 630.779025397 c 0
 205.013203471 584.876319994 149.594389236 522 104 522 c 0
 50 522 23 581 23 635 c 0
 23 695 63 761 111 795 c 0
 118 800 126 804 134 799 c 0
 142 793 137 779 132 773 c 0
 109 739 91 708 91 672 c 0
 90.9588277532 670.517799116 90.9379973533 669.03898854 90.9379973533 667.565801657 c 0
 90.9379973533 633.257922452 102.235167403 602 131 602 c 0
 151 602 168 619 176 638 c 0
 179 644 188 651 194 649 c 0
 202 648 205 638 205 632 c 0
EndSplineSet
Validated: 1
EndChar

StartChar: quoteright
Encoding: 8217 8217 54
Width: 225
Flags: W
HStem: 720 80<75.5202 129.46>
VStem: 139.062 67.938<605.277 712.435>
LayerCount: 2
Fore
SplineSet
207 687 m 0
 207 627 167 561 119 527 c 0
 112 522 104 518 96 523 c 0
 88 529 93 543 98 549 c 0
 121 583 139 614 139 650 c 0
 139.041172247 651.482200884 139.062002647 652.96101146 139.062002647 654.434198343 c 0
 139.062002647 688.742077548 127.764832597 720 99 720 c 0
 79 720 62 703 54 684 c 0
 51 678 42 671 36 673 c 0
 28 674 25 684 25 690 c 0
 24.9911823747 690.405610764 24.9867965288 690.812621037 24.9867965288 691.220974603 c 0
 24.9867965288 737.123680006 80.4056107639 800 126 800 c 0
 180 800 207 741 207 687 c 0
EndSplineSet
Validated: 1
EndChar

StartChar: quotedblleft
Encoding: 8220 8220 55
Width: 436
Flags: W
HStem: 522 80<100.54 154.48 310.54 364.48>
VStem: 23 67.938<609.565 716.723> 233 67.938<609.565 716.723>
LayerCount: 2
Fore
SplineSet
205 632 m 0
 205.008817625 631.594389236 205.013203471 631.187378963 205.013203471 630.779025397 c 0
 205.013203471 584.876319994 149.594389236 522 104 522 c 0
 50 522 23 581 23 635 c 0
 23 695 63 761 111 795 c 0
 118 800 126 804 134 799 c 0
 142 793 137 779 132 773 c 0
 109 739 91 708 91 672 c 0
 90.9588277532 670.517799116 90.9379973533 669.03898854 90.9379973533 667.565801657 c 0
 90.9379973533 633.257922452 102.235167403 602 131 602 c 0
 151 602 168 619 176 638 c 0
 179 644 188 651 194 649 c 0
 202 648 205 638 205 632 c 0
415 632 m 0
 415.008817625 631.594389236 415.013203471 631.187378963 415.013203471 630.779025397 c 0
 415.013203471 584.876319994 359.594389236 522 314 522 c 0
 260 522 233 581 233 635 c 0
 233 695 273 761 321 795 c 0
 328 800 336 804 344 799 c 0
 352 793 347 779 342 773 c 0
 319 739 301 708 301 672 c 0
 300.958827753 670.517799116 300.937997353 669.03898854 300.937997353 667.565801657 c 0
 300.937997353 633.257922452 312.235167403 602 341 602 c 0
 361 602 378 619 386 638 c 0
 389 644 398 651 404 649 c 0
 412 648 415 638 415 632 c 0
EndSplineSet
Validated: 1
EndChar

StartChar: quotedblright
Encoding: 8221 8221 56
Width: 436
Flags: W
HStem: 717 80<70.5202 124.46 280.52 334.46>
VStem: 134.062 67.938<602.277 709.435> 344.062 67.938<602.277 709.435>
LayerCount: 2
Fore
SplineSet
412 684 m 0
 412 624 372 558 324 524 c 0
 317 519 309 515 301 520 c 0
 293 526 298 540 303 546 c 0
 326 580 344 611 344 647 c 0
 344.041172247 648.482200884 344.062002647 649.96101146 344.062002647 651.434198343 c 0
 344.062002647 685.742077548 332.764832597 717 304 717 c 0
 284 717 267 700 259 681 c 0
 256 675 247 668 241 670 c 0
 233 671 230 681 230 687 c 0
 229.991182375 687.405610764 229.986796529 687.812621037 229.986796529 688.220974603 c 0
 229.986796529 734.123680006 285.405610764 797 331 797 c 0
 385 797 412 738 412 684 c 0
202 684 m 0
 202 624 162 558 114 524 c 0
 107 519 99 515 91 520 c 0
 83 526 88 540 93 546 c 0
 116 580 134 611 134 647 c 0
 134.041172247 648.482200884 134.062002647 649.96101146 134.062002647 651.434198343 c 0
 134.062002647 685.742077548 122.764832597 717 94 717 c 0
 74 717 57 700 49 681 c 0
 46 675 37 668 31 670 c 0
 23 671 20 681 20 687 c 0
 19.9911823747 687.405610764 19.9867965288 687.812621037 19.9867965288 688.220974603 c 0
 19.9867965288 734.123680006 75.4056107639 797 121 797 c 0
 175 797 202 738 202 684 c 0
EndSplineSet
Validated: 1
EndChar

StartChar: uni2DE4
Encoding: 11748 11748 57
Width: 0
Flags: W
HStem: 724 54<-110.35 -40.5>
VStem: -48 65<683.102 722.953>
AnchorPoint: "Stacking" -203 482 mark 0
AnchorPoint: "Stacking" -200 871 basemark 0
AnchorPoint: "Diacritic" -205 481 mark 0
LayerCount: 2
Fore
SplineSet
-227 596 m 1
 -248 574 -304 533 -326 520 c 0
 -348 506 -359 527 -345 538 c 0
 -317 556 -268 600 -251 628 c 1
 -278 656 -290 699 -394 760 c 1
 -378 784 -359 799 -330 804 c 1
 -301 797 -249 757 -230 728 c 1
 -212 756 -204 805 -203 824 c 0
 -203 824.662022717 -201.965673178 824.955895208 -200.168597495 824.955895208 c 0
 -188.393059749 824.955895208 -143.867595457 812.337977283 -143 808 c 0
 -142.839191727 806.391917267 -142.762426181 804.673932506 -142.762426181 802.86060008 c 0
 -142.762426181 782.121206966 -152.804041366 748.909492447 -162 725 c 1
 -141 742 -79 778 -46 778 c 0
 -35 778 -25 776 -15 771 c 0
 3 762 17 758 17 748 c 0
 17 747 17 747 17 746 c 0
 15 734 -3 682 -13 668 c 0
 -16 665 -26 660 -31 660 c 0
 -43 660 -59 668 -59 677 c 0
 -59 693 -48 710 -48 719 c 0
 -48 721 -49 722 -51 723 c 0
 -53 724 -56 724 -58 724 c 0
 -92 724 -158 684 -179 656 c 1
 -142 595 -105 573 -82 549 c 0
 -78 545 -77 542 -77 539 c 0
 -77 527 -99 518 -114 518 c 0
 -117 518 -120 518 -122 519 c 0
 -158 534 -199 563 -227 596 c 1
EndSplineSet
Validated: 1
EndChar

StartChar: endash
Encoding: 8211 8211 58
Width: 465
Flags: W
HStem: 165 70<25 436>
LayerCount: 2
Fore
SplineSet
436 165 m 1
 25 165 l 1
 25 235 l 1
 436 235 l 1
 436 165 l 1
EndSplineSet
Validated: 1
EndChar

StartChar: emdash
Encoding: 8212 8212 59
Width: 641
Flags: W
HStem: 165 70<30 618>
LayerCount: 2
Fore
SplineSet
618 165 m 1
 30 165 l 1
 30 235 l 1
 618 235 l 1
 618 165 l 1
EndSplineSet
Validated: 1
EndChar

StartChar: uniE8E3
Encoding: 59619 59619 61
Width: 381
Flags: W
HStem: 0 60<134.566 227.676>
VStem: 16 102<408.883 545.142> 51 66<77.8229 182.657> 177 48.6501<611.209 625> 248 91.0442<80.6732 184.147> 263.535 140.465<696.609 752>
DStem2: 132 262 142 186 0.655828 0.75491<-108.737 0 98.563 285.473>
AnchorPoint: "Yerok" 57 702 basechar 0
AnchorPoint: "Diacritic" 57 702 basechar 0
LayerCount: 2
Fore
SplineSet
242 297 m 1xd4
 261 282 279 265 293 250 c 0
 323.086652365 218.942810462 339.044168665 186.001736116 339.044168665 136.54973507 c 0
 339.044168665 135.048508956 339.029462827 133.532067001 339 132 c 0
 338 52 267 0 187 0 c 0
 115 0 51 48 51 124 c 0xb8
 51 158 62 190 81 209 c 0
 98 226 115 244 132 262 c 1
 60 324 16 398 16 506 c 0
 16 520 46 565 89 588 c 0
 93.970106474 590.631232839 99.3675824699 591.809409304 104.567700921 591.809409304 c 0
 117.154326904 591.809409304 128.584718409 584.906971139 130 575 c 0
 130.037037037 574.666666667 130.054869684 574.29218107 130.054869684 573.879591526 c 0
 130.054869684 563.152263374 118 526.666666667 118 518 c 0
 118 438 143 381 197 333 c 1
 211 349 224 365 237 380 c 0
 296 449 336 542 348 712 c 1
 331 701 309 682 301 675 c 0
 299.427641611 673.58487745 297.237205497 672.960894389 294.696919413 672.960894389 c 0
 282.892892566 672.960894389 263.534866088 686.434006367 263.534866088 696.608967675 c 0
 263.534866088 698.170536649 263.990816791 699.654422388 265 701 c 0
 288 733 313 765 347 796 c 0
 351.335680868 799.793720759 362.426939196 801.531396204 372.951267998 801.531396204 c 0
 381.845949263 801.531396204 390.335680868 800.290199458 394 798 c 0
 400 794 404 774 404 752 c 0
 404 559 354 439 281 346 c 0
 268 330 255 314 242 297 c 1xd4
224 646 m 2
 225.080332901 642.488918071 225.650051162 638.759001296 225.650051162 635.066365367 c 0
 225.650051162 625.086786276 221.488918071 615.379500648 212 611 c 0
 209.194284548 609.597142274 206.115234401 608.959621692 202.96735606 608.959621692 c 0
 192.651809213 608.959621692 181.597142274 615.805715452 177 625 c 2
 64 845 l 2
 60 853 69 862 77 862 c 2
 134 862 l 2
 144 862 153 857 156 848 c 2
 224 646 l 2
179 225 m 1
 167 212 154 198 142 186 c 0
 128 172 117 151 117 130 c 0
 117 92 140 60 191 60 c 0
 217 60 248 96 248 132 c 0
 248 157 239 172 225 186 c 0
 213 199 198 211 179 225 c 1
EndSplineSet
Validated: 1
LCarets2: 1 0
Ligature2: "'ccmp' Precomposed Glyphs for Cyrillic-1" uniA64B gravecomb
EndChar

StartChar: uniE8E1
Encoding: 59617 59617 62
Width: 381
Flags: W
HStem: 0 60<134.566 227.676>
VStem: 16 102<408.883 545.142> 51 66<77.8229 182.657> 248 91.0442<80.6732 184.147> 259.847 144.153<681.885 752>
DStem2: 132 262 142 186 0.655828 0.75491<-108.737 0 98.563 285.473>
AnchorPoint: "Yerok" 57 702 basechar 0
AnchorPoint: "Diacritic" 57 702 basechar 0
LayerCount: 2
Fore
SplineSet
242 297 m 1xc8
 261 282 279 265 293 250 c 0
 323.086652365 218.942810462 339.044168665 186.001736116 339.044168665 136.54973507 c 0
 339.044168665 135.048508956 339.029462827 133.532067001 339 132 c 0
 338 52 267 0 187 0 c 0
 115 0 51 48 51 124 c 0xb0
 51 158 62 190 81 209 c 0
 98 226 115 244 132 262 c 1
 60 324 16 398 16 506 c 0
 16 520 46 565 89 588 c 0
 93.970106474 590.631232839 99.3675824699 591.809409304 104.567700921 591.809409304 c 0
 117.154326904 591.809409304 128.584718409 584.906971139 130 575 c 0
 130.037037037 574.666666667 130.054869684 574.29218107 130.054869684 573.879591526 c 0
 130.054869684 563.152263374 118 526.666666667 118 518 c 0
 118 438 143 381 197 333 c 1
 211 349 224 365 237 380 c 0
 296 449 336 542 348 712 c 1
 324 695 307 676 296 660 c 0
 294.806906213 658.295580304 292.77134894 657.549825953 290.254781731 657.549825953 c 0
 279.468825992 657.549825953 259.846899927 671.249050882 259.846899927 681.884630263 c 0
 259.846899927 683.32666864 260.207622205 684.712386083 261 686 c 0
 288 731 313 763 347 796 c 0
 351.15500122 800.15500122 361.514265068 801.882247499 371.633111847 801.882247499 c 0
 380.996996828 801.882247499 390.15500122 800.403124237 394 798 c 0
 400 794 404 774 404 752 c 0
 404 559 354 439 281 346 c 0
 268 330 255 314 242 297 c 1xc8
172 645 m 6
 167.081054688 636.801757812 156.786132812 629.948242188 146.072265625 629.948242188 c 4
 143.717773438 629.948242188 141.342773438 630.279296875 139 631 c 4
 129.915039062 633.794921875 125.713867188 643.916015625 125.713867188 653.854492188 c 4
 125.713867188 658.13671875 126.494140625 662.385742188 128 666 c 6
 215 862 l 6
 219 870 227 876 237 876 c 6
 294 876 l 6
 302 876 311 866 307 859 c 6
 172 645 l 6
179 225 m 1
 167 212 154 198 142 186 c 0
 128 172 117 151 117 130 c 0
 117 92 140 60 191 60 c 0
 217 60 248 96 248 132 c 0
 248 157 239 172 225 186 c 0
 213 199 198 211 179 225 c 1
EndSplineSet
Validated: 1
LCarets2: 1 0
Ligature2: "'ccmp' Precomposed Glyphs for Cyrillic-1" uniA64B acutecomb
EndChar

StartChar: afii10057
Encoding: 1032 1032 63
Width: 485
Flags: W
HStem: 0 23<150.937 248.741> 165 37<105.188 161.052> 636 40<237 290 405 455>
VStem: 26 84<49.3949 154.826> 290 115<90.4265 636>
LayerCount: 2
Fore
SplineSet
290 636 m 1
 237 636 l 1
 237 676 l 1
 455 676 l 1
 455 636 l 1
 405 636 l 1
 405 226 l 2
 405 186 403 155 400 134 c 0
 396 112 385 89 367 66 c 0
 331 18 259 0 191 0 c 0
 90 0 26 35 26 107 c 0
 26 128 34 150 49 171 c 0
 64 192 87 202 118 202 c 0
 149 202 186 186 201 160 c 1
 189 165 181 165 166 165 c 0
 127 165 110 138 110 102 c 0
 110 61 142 23 199 23 c 0
 239 23 264 37 275 64 c 0
 285 91 290 127 290 172 c 2
 290 328 l 1
 290 636 l 1
EndSplineSet
Validated: 1
EndChar

StartChar: uni0482
Encoding: 1154 1154 64
Width: 307
Flags: W
VStem: 12 283
DStem2: 33 6 12 -50 0.93873 -0.344654<0 79.847 139.617 220.098> 49 -184 105 -204 0.341091 0.94003<0.300485 112.813 173.214 275.178 334.859 491.898> 88 158 68 102 0.940191 -0.340649<0.272519 79.9639 139.688 219.5>
LayerCount: 2
Fore
SplineSet
143.450213096 -98.2619139868 m 1
 105 -204 l 1
 49 -184 l 1
 87.5563627324 -77.7405003269 l 1
 12 -50 l 1
 33 6 l 1
 108.072122168 -21.2000442637 l 1
 142.882902073 74.7368074978 l 1
 68 102 l 1
 88 158 l 1
 163.207652087 130.750850693 l 1
 217 279 l 1
 273 258 l 1
 219.332945285 110.415599534 l 1
 295 83 l 1
 274 27 l 1
 198.937646142 54.3285268901 l 1
 164.091967404 -41.4970896391 l 1
 240 -69 l 1
 219 -126 l 1
 143.450213096 -98.2619139868 l 1
EndSplineSet
Validated: 1
EndChar

StartChar: uniE903
Encoding: 59651 59651 65
Width: 597
Flags: W
HStem: 0 40<338 423> 397 40<141 242 342 427.206>
VStem: 41 100<188 397> 241.402 96.5981<40 158 196 397 437 696.293>
AnchorPoint: "Yerok" 107 702 basechar 0
AnchorPoint: "Diacritic" 107 702 basechar 0
LayerCount: 2
Fore
SplineSet
56 437 m 2
 242 437 l 1
 244 585 253 723 258 767 c 0
 259 779 271 784 282 787 c 0
 308.09081537 794.827244611 323.592487347 800.385387066 344.950217431 800.385387066 c 0
 348.150244299 800.385387066 351.481733833 800.260612309 355 800 c 0
 364 799 373 798 369 781 c 0
 359 736 347 590 342 437 c 1
 527 437 l 2
 541 437 540 419 535 407 c 0
 522 377 511 329 502 303 c 0
 499 294 493 282 480 282 c 0
 470 282 463 294 458 305 c 0
 443 336 429 380 416 397 c 1
 341 397 l 1
 340 331 339 259 339 196 c 1
 359 202 375 208 400 215 c 0
 410.937253933 218.038126093 421.136091054 222.922294216 429.699150009 222.922294216 c 0
 435.228756555 222.922294216 440.076252185 220.885621722 444 215 c 0
 484 155 520 87 548 21 c 0
 553 9 545 0 531 0 c 2
 270 0 l 2
 259 0 244 1 244 13 c 0
 242.098076211 58.0121963313 241.401923789 137.187914698 241.401923789 229.123159483 c 0
 241.401923789 282.201997808 241.633974596 339.534011606 242 397 c 1
 154 397 l 2
 148 397 141 393 141 387 c 2
 141 202 l 2
 141 196 138 188 132 188 c 2
 49 188 l 2
 44 188 41 194 41 199 c 2
 41 416 l 2
 41 426 46 437 56 437 c 2
575 544 m 2
 576.483347712 541.033304576 577.172135267 537.638769068 577.172135267 534.148821653 c 0
 577.172135267 523.522264673 570.786079958 512.011101525 561 509 c 0
 557.995370073 508.075498484 554.777064382 507.631767435 551.517933549 507.631767435 c 0
 540.675926521 507.631767435 529.382122347 512.542379169 524 521 c 2
 387 735 l 2
 383 742 392 752 400 752 c 2
 457 752 l 2
 467 752 475 746 479 738 c 2
 575 544 l 2
425 50 m 0
 413 87 390 126 338 158 c 1
 338 40 l 1
 423 40 l 2
 427 40 426 46 425 50 c 0
EndSplineSet
Validated: 1
LCarets2: 1 0
Ligature2: "'ccmp' Precomposed Glyphs for Cyrillic-1" uni0463 gravecomb
EndChar

StartChar: guillemotleft
Encoding: 171 171 66
Width: 510
Flags: W
HStem: -5 21G<212.767 285 422.498 497> 417 20G<212.47 285 422.196 497>
LayerCount: 2
Fore
SplineSet
497 -5 m 1
 439 -5 l 1
 255 218 l 1
 439 437 l 1
 497 437 l 1
 384 218 l 1
 497 -5 l 1
285 -5 m 1
 229 -5 l 1
 48 218 l 1
 229 437 l 1
 285 437 l 1
 171 218 l 1
 285 -5 l 1
EndSplineSet
Validated: 1
EndChar

StartChar: logicalnot
Encoding: 172 172 67
Width: 466
Flags: W
HStem: 165 70<25 380>
VStem: 380 60<66 166>
LayerCount: 2
Fore
SplineSet
440 66 m 1
 380 66 l 1
 380 166 l 1
 25 165 l 1
 25 235 l 1
 440 235 l 1
 440 66 l 1
EndSplineSet
Validated: 1
EndChar

StartChar: afii10056
Encoding: 1031 1031 68
Width: 270
Flags: W
HStem: 0 40<22 76 194 248> 636 40<22 76 194 248> 741 135<35.7344 77.2656 161.734 203.266>
VStem: 76 118<40 636>
DStem2: 104 754 9 863 0.257111 -0.966382<-132.056 2.30449> 230 754 135 863 0.257111 -0.966382<-132.064 2.30449>
AnchorPoint: "Yerok" 119 934 basechar 0
AnchorPoint: "Diacritic" 120 934 basechar 0
LayerCount: 2
Fore
SplineSet
248 0 m 1
 22 0 l 1
 22 40 l 1
 76 40 l 1
 76 636 l 5
 22 636 l 5
 22 676 l 5
 248 676 l 5
 248 636 l 5
 194 636 l 5
 194 40 l 1
 248 40 l 1
 248 0 l 1
135 863 m 2
 133 869 137 876 144 876 c 2
 190 876 l 2
 195 876 200 868 201 863 c 2
 230 754 l 2
 232 748 226 741 219 741 c 2
 177 741 l 2
 172 741 165 749 164 754 c 2
 135 863 l 2
9 863 m 2
 7 869 11 876 18 876 c 2
 62 876 l 2
 67 876 74 868 75 863 c 2
 104 754 l 2
 106 748 100 741 93 741 c 2
 51 741 l 2
 46 741 39 749 38 754 c 2
 9 863 l 2
EndSplineSet
Validated: 1
LCarets2: 1 0
Ligature2: "'ccmp' Precomposed Glyphs for Cyrillic-1" afii10055 uni0308
EndChar

StartChar: uniA67E
Encoding: 42622 42622 69
Width: 362
Flags: W
HStem: 510 60<127.349 243.374>
VStem: 20.9897 59.9928<622.664 708> 289 60<621.877 708>
LayerCount: 2
Fore
SplineSet
349 708 m 1
 348 598 283 510 185 510 c 0
 92.6385478461 510 20.9897092572 591.864139328 20.9897092572 705.63573575 c 0
 20.9897092572 706.422304239 20.9931338941 707.210397825 21 708 c 1
 81 708 l 1
 80.9883372976 707.101971912 80.9825233961 706.206120122 80.9825233961 705.312516016 c 0
 80.9825233961 629.585447439 122.734750254 570 185 570 c 0
 251 570 288 634 289 708 c 1
 349 708 l 1
EndSplineSet
Validated: 1
EndChar

StartChar: afii10055
Encoding: 1030 1030 70
Width: 270
Flags: W
HStem: 0 40<22 76 194 248> 636 40<22 76 194 248>
VStem: 76 118<40 636>
AnchorPoint: "Yerok" 150 754 basechar 0
AnchorPoint: "Diacritic" 150 754 basechar 0
LayerCount: 2
Fore
SplineSet
248 0 m 1
 22 0 l 1
 22 40 l 1
 76 40 l 1
 76 636 l 1
 22 636 l 1
 22 676 l 1
 248 676 l 1
 248 636 l 1
 194 636 l 1
 194 40 l 1
 248 40 l 1
 248 0 l 1
EndSplineSet
Validated: 1
EndChar

StartChar: afii10103
Encoding: 1110 1110 71
Width: 230
Flags: W
HStem: 0 21G<78 161.5> 417 20G<77.5 159.5>
VStem: 63.7986 103.671<0 18.9089 26.1777 437>
AnchorPoint: "Yerok" 117 502 basechar 0
AnchorPoint: "Diacritic" 117 502 basechar 0
LayerCount: 2
Fore
SplineSet
172 414 m 0
 169.295835001 356.130869029 167.469171003 278.079215039 167.469171003 205.788826617 c 0
 167.469171003 144.414315786 168.785830998 87.1925270216 172 50 c 0
 172.642079918 42.2950409838 175.345492942 34.1778153465 175.345492942 26.1777393246 c 0
 175.345492942 21.7181887527 174.505440574 17.2950409838 172 13 c 0
 168 7 165 0 158 0 c 2
 82 0 l 2
 74 0 67 9 67 16 c 0
 64.8388218142 59.223563717 63.7986095045 120.008926162 63.7986095045 184.304966741 c 0
 63.7986095045 268.761215539 65.593413823 359.274862637 69 424 c 0
 69 430 74 437 81 437 c 2
 155 437 l 2
 164 437 173 426 172 414 c 0
EndSplineSet
Validated: 1
EndChar

StartChar: paragraph
Encoding: 182 182 72
Width: 614
Flags: W
HStem: 658 20G<203.5 315 396 477>
VStem: 35 280<385.375 569.697> 235 80<-277 273> 396 81<-277 678>
LayerCount: 2
Fore
SplineSet
235 -277 m 1xb0
 235 273 l 1xb0
 177 274 131 293 96 329 c 0
 63 365 43 404 35 447 c 0
 35 453.666666667 33.6666666667 473.222222222 33.6666666667 484.037037037 c 0
 33.6666666667 488.474631637 33.891156052 491.440573599 34.5243622737 491.440573599 c 0
 34.6627461413 491.440573599 34.8206510561 491.298914906 35 491 c 1xd0
 36 536 55 578 89 616 c 0
 124 654 172 674 235 678 c 1
 315 678 l 1
 315 -277 l 1
 235 -277 l 1xb0
396 -277 m 1
 396 678 l 1
 477 678 l 1
 477 -277 l 1
 396 -277 l 1
EndSplineSet
Validated: 1
EndChar

StartChar: uniE901
Encoding: 59649 59649 73
Width: 597
Flags: W
HStem: 0 40<338 423> 397 40<141 242 342 427.206>
VStem: 41 100<188 397> 241.402 96.5981<40 158 196 397 437 696.293>
AnchorPoint: "Yerok" 117 702 basechar 0
AnchorPoint: "Diacritic" 117 702 basechar 0
LayerCount: 2
Fore
SplineSet
56 437 m 2
 242 437 l 1
 244 585 253 723 258 767 c 0
 259 779 271 784 282 787 c 0
 308.09081537 794.827244611 323.592487347 800.385387066 344.950217431 800.385387066 c 0
 348.150244299 800.385387066 351.481733833 800.260612309 355 800 c 0
 364 799 373 798 369 781 c 0
 359 736 347 590 342 437 c 1
 527 437 l 2
 541 437 540 419 535 407 c 0
 522 377 511 329 502 303 c 0
 499 294 493 282 480 282 c 0
 470 282 463 294 458 305 c 0
 443 336 429 380 416 397 c 1
 341 397 l 1
 340 331 339 259 339 196 c 1
 359 202 375 208 400 215 c 0
 410.937253933 218.038126093 421.136091054 222.922294216 429.699150009 222.922294216 c 0
 435.228756555 222.922294216 440.076252185 220.885621722 444 215 c 0
 484 155 520 87 548 21 c 0
 553 9 545 0 531 0 c 2
 270 0 l 2
 259 0 244 1 244 13 c 0
 242.098076211 58.0121963313 241.401923789 137.187914698 241.401923789 229.123159483 c 0
 241.401923789 282.201997808 241.633974596 339.534011606 242 397 c 1
 154 397 l 2
 148 397 141 393 141 387 c 2
 141 202 l 2
 141 196 138 188 132 188 c 2
 49 188 l 2
 44 188 41 194 41 199 c 2
 41 416 l 2
 41 426 46 437 56 437 c 2
453 534 m 2
 448.081176584 525.801960973 437.785725656 518.948078823 427.072399962 518.948078823 c 0
 424.717569163 518.948078823 422.342549265 519.279215611 420 520 c 0
 410.915114236 522.795349466 406.713965119 532.916303904 406.713965119 542.854400466 c 0
 406.713965119 547.137204273 407.494186832 551.386048398 409 555 c 2
 496 751 l 2
 500 759 508 765 518 765 c 2
 575 765 l 2
 583 765 592 755 588 748 c 2
 453 534 l 2
425 50 m 0
 413 87 390 126 338 158 c 1
 338 40 l 1
 423 40 l 2
 427 40 426 46 425 50 c 0
EndSplineSet
Validated: 1
LCarets2: 1 0
Ligature2: "'ccmp' Precomposed Glyphs for Cyrillic-1" uni0463 acutecomb
EndChar

StartChar: afii10101
Encoding: 1108 1108 74
Width: 464
Flags: W
HStem: 326 74<304.032 313.258 313.761 388.809>
VStem: 55.4627 101.567<172 306.951>
AnchorPoint: "Yerok" 338 502 basechar 0
AnchorPoint: "Diacritic" 241 502 basechar 0
LayerCount: 2
Fore
SplineSet
59 92 m 0
 56.6536303943 120.677850736 55.4627256719 145.209621597 55.4627256719 167.225545176 c 0
 55.4627256719 229.656382128 65.0391088171 271.856618717 85 331 c 1
 134 385 173 424 240 440 c 0
 248 442 253 444 260 440 c 0
 301 420 340 409 390 400 c 0
 402.319695815 397.690057035 411.675038017 385.894182509 411.675038017 376.024856046 c 0
 411.675038017 373.076558942 410.840152093 370.300190116 409 368 c 0
 385 336 362 334 332 326 c 0
 325.04261114 324.394448725 319.230908901 323.36174076 313.491875757 323.36174076 c 0
 308.507427381 323.36174076 303.577794898 324.140735034 298 326 c 0
 258 339 229 362 198 368 c 1
 185 355 168 324 162 310 c 1
 158.485281374 284.811183182 157.029437252 259.279220614 157.029437252 232.198051534 c 0
 157.029437252 213.048773235 157.757359313 193.124891681 159 172 c 1
 177 178 194 187 217 199 c 0
 241 212 259 226 279 241 c 0
 286 246 298 248 305 241 c 0
 336 209 358 170 396 132 c 0
 402 126 405 113 396 110 c 0
 376 103 344 93 326 81 c 0
 315 74 306 77 299 84 c 0
 273 110 248 131 237 143 c 0
 232 148 223 149 217 146 c 0
 202 139 181 127 163 118 c 1
 168 53 174 -1 199 -51 c 1
 223 -46 248 -37 265 -22 c 1
 304 -26 329 -27 367 -28 c 0
 378 -28 389 -40 383 -50 c 0
 354 -101 271 -155 234 -162 c 0
 227 -163 226 -164 221 -162 c 0
 123 -119 68 -16 59 92 c 0
EndSplineSet
Validated: 1
EndChar

StartChar: guillemotright
Encoding: 187 187 75
Width: 510
Flags: W
HStem: -5 21G<13 87.6516 225 297.38> 417 20G<13 87.6516 225 297.38>
VStem: 126 129<151.5 280.5> 339 123<154.5 277.5>
LayerCount: 2
Fore
SplineSet
13 437 m 1
 71 437 l 1
 255 216 l 1
 71 -5 l 1
 13 -5 l 1
 126 216 l 1
 13 437 l 1
225 437 m 1
 281 437 l 1
 462 216 l 1
 281 -5 l 1
 225 -5 l 1
 339 216 l 1
 225 437 l 1
EndSplineSet
Validated: 1
EndChar

StartChar: afii10054
Encoding: 1029 1029 76
Width: 560
Flags: W
HStem: -17 106<36.9969 114.198> -8 51<218.61 402> 282 39<274.774 345.797> 382 40<226.686 287.086> 534.244 138.633<389 440> 646 36<237.321 344.824>
VStem: 76 116<456.953 597.796> 388 130<78.9723 236.277> 389 51<534.574 605.617 636 672.635>
DStem2: 138 246 166 216 0.731786 0.681535<-14.2228 113.007 147.23 204.501 238.277 332.666>
AnchorPoint: "Yerok" 440 754 basechar 0
AnchorPoint: "Diacritic" 270 754 basechar 0
LayerCount: 2
Fore
SplineSet
399 433 m 2x3680
 274 316 l 2
 281 319 288 321 296 321 c 0
 415 321 518 272 518 157 c 0
 518 45 448 -8 356 -8 c 0x77
 286 -8 221 10 160 34 c 0
 156.272061837 35.597687784 152.402312216 36.4154125456 148.579559832 36.4154125456 c 0
 138.04624432 36.4154125456 127.869749621 30.206936648 122 17 c 0
 114 -1 99 -17 76 -17 c 0
 48 -17 25 1 25 32 c 0
 25 65 50 89 82 89 c 0xb3
 115 89 137 81 167 69 c 0
 205 54 239 43 279 43 c 0
 353 43 388 86 388 149 c 0
 388 232 355 282 286 282 c 0
 248 282 206 248 175 224 c 2
 166 216 l 2
 161.503520603 211.728344573 156.602674667 209.933434199 151.933841226 209.933434199 c 0
 140.875929238 209.933434199 131.119507357 220.002107828 131.119507357 231.080599613 c 0
 131.119507357 236.129851595 133.146178953 241.388870005 138 246 c 2
 288 385 l 1
 272 382 255 382 234 382 c 0
 153 382 76 435 76 523 c 0
 76 622 172 682 271 682 c 0x77
 320 682 374 652 389 636 c 1
 389 653 l 2
 389 666.122608782 401.991635981 672.876768553 414.860742065 672.876768553 c 0
 427.489367701 672.876768553 440 666.372675496 440 653 c 2
 440 556 l 2
 440 541.258390463 427.685480402 534.243538322 415.158830509 534.243538322 c 0x3a80
 402.193047173 534.243538322 389 541.758835568 389 556 c 1
 379 600 349 646 298 646 c 0
 233 646 192 603 192 530 c 0
 192 468 225 422 283 422 c 0
 311 422 337 435 355 448 c 2
 371 463 l 2
 375.496479397 467.271655427 380.397325333 469.066565801 385.066158774 469.066565801 c 0
 396.124070762 469.066565801 405.880492643 458.997892172 405.880492643 447.919400387 c 0
 405.880492643 442.870148405 403.853821047 437.611129995 399 433 c 2x3680
EndSplineSet
Validated: 1
EndChar

StartChar: afii10102
Encoding: 1109 1109 77
Width: 566
Flags: W
HStem: -4 40.8781<259.963 372.7> 21.054 84.946<105.363 220.798> 401 43<192.231 292.276>
VStem: 49 111<263.5 369.069> 415 106<77.8142 189.143>
AnchorPoint: "Yerok" 458 502 basechar 0
AnchorPoint: "Diacritic" 207 502 basechar 0
LayerCount: 2
Fore
SplineSet
314.416765334 36.8781449417 m 0xb8
 370.598060922 36.8781449417 415 84.4581142676 415 139 c 0
 415 185 371 215 327 222 c 0
 323 223 322 224 318 222 c 0
 274 204 230 178 171 164 c 0
 166 163 162 163 157 164 c 0
 88 182 49 244 49 303 c 0
 49 385 123 444 204 444 c 0
 243 444 271 434 300 419 c 0
 305 417 309 416 314 418 c 0
 338 429 364 437 386 444 c 0
 390 445 397 446 406 441 c 0
 412.26804924 437.418257577 429.761367416 429.02568561 429.761367416 422.283966199 c 0
 429.761367416 421.496702657 429.522821971 420.73195076 429 420 c 0
 405 388 376 364 347 345 c 0
 343 342 336 343 334 345 c 0
 298 374 287 401 243 401 c 0
 201 401 160 356 160 318 c 0
 160 282 179 257 213 240 c 0
 217 238 218 240 222 240 c 0
 278 245 312 280 366 295 c 0
 372 297 375 296 381 295 c 0
 461 276 521 216 521 136 c 0
 521 17 419 -4 323 -4 c 0xb8
 249.458300718 -4 228.565160399 21.0540359128 162.626287702 21.0540359128 c 0
 124.45418063 21.0540359128 103.516544958 8.38490888488 64 -8 c 0
 63.3283557128 -8.2518666077 62.6003231695 -8.36981110725 61.8318799788 -8.36981110725 c 0
 54.2157881501 -8.36981110725 42.6301888928 3.21578815006 42.6301888928 10.8318799788 c 0
 42.6301888928 31.3164956509 61.7206598354 49.534433059 68 60 c 0
 70 63 71 64 74 66 c 0
 94 80 126 97 159 106 c 0
 162 107 165 106 168 106 c 0x78
 189 103 204 97 231 78 c 0
 258.812782344 58.8187707973 279.267173613 36.8781449417 314.416765334 36.8781449417 c 0xb8
EndSplineSet
Validated: 1
EndChar

StartChar: afii10104
Encoding: 1111 1111 78
Width: 230
Flags: W
HStem: 0 21G<78 162.585> 417 20G<77.5 159.269> 501 135<26.7344 68.2656 152.734 194.266>
VStem: 63.7986 103.671<26.5528 413.073> 67 108.345<0 202.915 209.221 437>
DStem2: 95 514 0 623 0.257111 -0.966382<-132.056 2.30449> 221 514 126 623 0.257111 -0.966382<-132.064 2.30449>
AnchorPoint: "Yerok" 109 702 basechar 0
AnchorPoint: "Diacritic" 107 702 basechar 0
LayerCount: 2
Fore
SplineSet
175.345492942 26.1777393246 m 4xe8
 175.345492942 15.7293288022 167.169090801 0 158 0 c 6
 82 0 l 6
 74 0 67 9 67 16 c 4xe8
 64.8388218142 59.223563717 63.7986095045 120.008926162 63.7986095045 184.304966741 c 4
 63.7986095045 268.761215539 65.593413823 359.274862637 69 424 c 4
 69 430 74 437 81 437 c 6
 155 437 l 6
 163.538149682 437 172.076299365 427.1 172.076299365 415.838149682 c 4
 172.076299365 357.156628726 167.469171003 278.922583268 167.469171003 205.788826617 c 4xf0
 167.469171003 144.414315786 168.785830998 87.1925270216 172 50 c 4
 172.642079918 42.2950409838 175.345492942 34.1778153465 175.345492942 26.1777393246 c 4xe8
126 623 m 2
 124 629 128 636 135 636 c 2
 181 636 l 2
 186 636 191 628 192 623 c 2
 221 514 l 2
 223 508 217 501 210 501 c 2
 168 501 l 2
 163 501 156 509 155 514 c 2
 126 623 l 2
0 623 m 2
 -2 629 2 636 9 636 c 2
 53 636 l 2
 58 636 65 628 66 623 c 2
 95 514 l 2
 97 508 91 501 84 501 c 2
 42 501 l 2
 37 501 30 509 29 514 c 2
 0 623 l 2
EndSplineSet
Validated: 1
LCarets2: 1 0
Ligature2: "'ccmp' Precomposed Glyphs for Cyrillic-1" afii10103 uni0308
EndChar

StartChar: afii10017
Encoding: 1040 1040 79
Width: 521
Flags: W
HStem: 0 40<273 327 446 500> 636 40<273 327 446 500>
VStem: 77.5256 79.9607<339.441 385.373> 91 55<72.1156 161.91> 327 119<40 447 586.659 636>
AnchorPoint: "Yerok" 420 754 basechar 0
AnchorPoint: "Diacritic" 390 754 basechar 0
LayerCount: 2
Fore
SplineSet
223.378293432 238.55026285 m 0xe8
 223.378293432 190.049701421 187.153648946 161.248972285 146 158 c 1
 146 120 l 2
 146 94 166 63 205 42 c 0
 211.905109903 38.0542229125 216.377539052 27.7834758654 216.377539052 18.3868708429 c 0
 216.377539052 8.7320093193 211.655890874 -1.7763568394e-15 200 0 c 2
 36 0 l 2
 24.8423081373 0 20.3723152008 8.23101406305 20.3723152008 17.3876577524 c 0
 20.3723152008 26.285479417 24.5931815552 36.0573424955 31 40 c 0
 71 66 91 93 91 120 c 2
 91 168 l 1xd8
 59.1097491174 181.79037876 38.3625380597 208.209535988 38.3625380597 240.214412781 c 0
 38.3625380597 277.062220914 58.0166114335 301.09490112 85 314 c 1
 79.9862835855 322.147289174 77.5255795125 333.3385546 77.5255795125 345.543014376 c 0
 77.5255795125 372.285982071 89.3407901049 403.89386007 112 419 c 0
 162 452 178 463 220 497 c 0
 269 537 297 564 327 624 c 1
 327 636 l 1
 273 636 l 1
 273 676 l 1
 500 676 l 1
 500 636 l 1
 446 636 l 1
 446 40 l 1
 500 40 l 1
 500 0 l 1
 273 0 l 1
 273 40 l 1
 327 40 l 1
 327 447 l 1
 315 425 301 402 286 383 c 0
 261 352 236 330 204 310 c 0
 199 307 194 304 188 302 c 1
 209.975404878 286.786258162 223.378293432 264.428752721 223.378293432 238.55026285 c 0xe8
265 428 m 0
 285 454 302 480 315 510 c 1
 300 491 282 474 258 452 c 0
 234 430 197 399 174 382 c 0
 164.485961699 374.864471274 157.48628242 367.100352793 157.48628242 360.701120226 c 0xe8
 157.48628242 354.33753458 163.621873521 352.405696036 170.311377183 352.405696036 c 0
 175.910540456 352.405696036 181.89776445 353.75910578 185 355 c 0
 209 367 246 403 265 428 c 0
EndSplineSet
Validated: 1
EndChar

StartChar: afii10018
Encoding: 1041 1041 80
Width: 547
Flags: W
HStem: 0 40<22 76 194 363 481 525> 312 40<481 505> 636 40<22 76 194 292.119 408.235 439.511>
VStem: 76 118<40 395 429.358 636> 340 28<492.506 555.062> 363 118<40 312>
AnchorPoint: "Yerok" 420 754 basechar 0
AnchorPoint: "Diacritic" 280 754 basechar 0
LayerCount: 2
Fore
SplineSet
241 636 m 2xf8
 194 636 l 1
 194 438 l 1
 255 414 375 366 375 366 c 2
 401 356 425 352 454 352 c 2
 505 352 l 1
 505 312 l 1
 481 312 l 1
 481 40 l 1xf4
 525 40 l 1
 525 0 l 1
 22 0 l 1
 22 40 l 1
 76 40 l 1
 76 636 l 1
 22 636 l 1
 22 676 l 1
 419 676 l 2
 434.342278901 676 440.376909694 669.141732973 440.376909694 661.122673504 c 0
 440.376909694 652.938739587 434.091579993 643.545789997 425 639 c 0
 411 632 376 555 368 501 c 0
 367.041594579 495.249567473 361.031213925 492.484393038 354.810698489 492.484393038 c 0
 348.050245124 492.484393038 341.041594579 495.750432527 340 502 c 0
 333 547 323 574 293 615 c 0
 284 627 262 636 241 636 c 2xf8
360 328 m 2
 360 328 257 370 194 395 c 1
 194 40 l 1
 363 40 l 1
 363 327 l 1
 362 327 361 327 360 328 c 2
EndSplineSet
Validated: 1
EndChar

StartChar: afii10019
Encoding: 1042 1042 81
Width: 539
Flags: W
HStem: 0 40<22 76 194 352 470 514> 276 40<470 495> 315 35<220 270.046> 408 46<289.985 399.66> 636 44<223.683 333.796>
VStem: 76 118<40 306 385 581.87> 352 118<40 276> 363.21 99.7903<459.289 606.345>
DStem2: 194 385 220 350 0.508729 0.860927<0 85.31>
AnchorPoint: "Yerok" 420 754 basechar 0
AnchorPoint: "Diacritic" 280 754 basechar 0
LayerCount: 2
Fore
SplineSet
495 276 m 1xdd
 470 276 l 1
 470 40 l 1xde
 514 40 l 1
 514 0 l 1
 22 0 l 1
 22 40 l 1
 76 40 l 1
 76 507 l 2
 76 603 177 680 282 680 c 0
 413 680 463 619 463 528 c 0
 463 465 443 408 354 408 c 0
 315 408 285 422 272 438 c 1
 220 350 l 1xbd
 251 342 278 336 312 331 c 0
 370 320 418 316 495 316 c 1
 495 276 l 1xdd
352 284 m 1
 296.616337595 290.922957801 246.188777601 301.892006222 199 315 c 1xbe
 194 306 l 1
 194 40 l 1
 352 40 l 1
 352 284 l 1
363.209683117 521.17248505 m 0x9d
 363.209683117 583.809952117 340.715823094 636 282 636 c 0
 227 636 194 597 194 536 c 2
 194 385 l 1
 251 481 l 2
 254.564659966 487.110845656 261.241189486 490.628466685 268.256399354 490.628466685 c 0
 275.017109081 490.628466685 282.09237138 487.361442929 287 480 c 0
 296 467 305 454 323 454 c 0
 358.239865689 454 363.209683117 488.926978763 363.209683117 521.17248505 c 0x9d
EndSplineSet
Validated: 1
EndChar

StartChar: afii10020
Encoding: 1043 1043 82
Width: 490
Flags: W
HStem: 0 40<22 76 194 248> 636 40<22 76 194 341.698>
VStem: 76 118<40 636>
AnchorPoint: "Yerok" 410 754 basechar 0
AnchorPoint: "Diacritic" 260 754 basechar 0
LayerCount: 2
Fore
SplineSet
304 636 m 2
 194 636 l 1
 194 40 l 1
 248 40 l 1
 248 0 l 1
 22 0 l 1
 22 40 l 1
 76 40 l 1
 76 636 l 1
 22 636 l 1
 22 676 l 1
 464 676 l 2
 472.21822349 676 475.762454085 669.456409947 475.762454085 661.905065111 c 0
 475.762454085 653.835897513 471.715476155 644.616025622 465 641 c 0
 457 637 453 621 451 615 c 0
 443 585 438 547 436 517 c 0
 435.510854198 511.130250379 430.475699704 508.370927758 424.873719479 508.370927758 c 0
 419.02312216 508.370927758 412.554270991 511.38060382 410 517 c 0
 390 559 368 586 339 620 c 0
 331 629 319 636 304 636 c 2
EndSplineSet
Validated: 1
EndChar

StartChar: afii10021
Encoding: 1044 1044 83
Width: 570
Flags: W
HStem: 0 40<209.725 368> 439 136<237.978 336.976> 636 40<314 368 486 540>
VStem: 68 31<-150.797 -66.2289> 105 102<40.798 198.968> 110 104<40 94.0632> 355 131<418.138 486.765> 368 118<40 393 533 636> 484 31<-150.797 -76.5625>
AnchorPoint: "Yerok" 420 754 basechar 0
AnchorPoint: "Diacritic" 420 754 basechar 0
LayerCount: 2
Fore
SplineSet
353 487 m 1xfa
 344 460 317 439 287 439 c 0
 250 439 219 470 219 507 c 0
 219 544 250 575 287 575 c 0
 296 575 305 574 314 570 c 0
 331 562 352 549 368 533 c 1
 368 636 l 1
 314 636 l 1
 314 676 l 1
 540 676 l 1
 540 636 l 1
 486 636 l 1
 486 40 l 1xf1
 534 40 l 2
 549.834420305 40 556.396323362 29.2438799916 556.396323362 17.2187896469 c 0
 556.396323362 9.49877136525 553.691806013 1.25574135061 549 -5 c 0
 511 -56 531 -102 515 -140 c 0
 511.731295332 -147.471324955 505.627945916 -150.799707586 499.642730643 -150.799707586 c 0
 492.810481149 -150.799707586 486.132168761 -146.462590664 484 -139 c 0
 471 -97 460 0 427 0 c 2
 149 0 l 2
 116 0 112 -97 99 -139 c 0
 96.8678312388 -146.462590664 90.1895188511 -150.799707586 83.3572693575 -150.799707586 c 0
 77.3720540841 -150.799707586 71.2687046678 -147.471324955 68 -140 c 0
 52 -102 64 -55 24 -5 c 0
 18.9542059871 1.21020801583 16.1681785915 9.37888043323 16.1681785915 17.0501336192 c 0
 16.1681785915 29.1431219308 23.0915880257 40 39 40 c 2
 110 40 l 1xf480
 107 56 105 75 105 95 c 0
 105 225 189 299 284 375 c 0
 319 403 354 427 355 469 c 0
 355 476 354 482 353 487 c 1xfa
214 40 m 1xf4
 368 40 l 1
 368 393 l 1
 353 376 334 360 315 341 c 0
 248 276 207 203 207 100 c 0xf9
 207 76 209 58 214 40 c 1xf4
EndSplineSet
Validated: 1
EndChar

StartChar: afii10022
Encoding: 1045 1045 84
Width: 540
Flags: W
HStem: -2 47<206 290.844> 384 53<247.406 346.881> 491 40<346 380 489 513> 645 39<223.858 340.834>
VStem: 40 112<334.127 519.545> 150.028 55.9721<45 110.863> 378.031 114.969<264 351.647 531 595.225>
AnchorPoint: "Yerok" 420 754 basechar 0
AnchorPoint: "Diacritic" 287 754 basechar 0
LayerCount: 2
Fore
SplineSet
97 184 m 0xf6
 61 260 40 309 40 397 c 0
 40 551 134 684 284 684 c 0
 424 684 489 604 489 531 c 1
 513 531 l 1
 513 491 l 1
 346 491 l 1
 346 531 l 1
 380 531 l 1
 380 574 363 645 283 645 c 0
 183 645 152 530 152 430 c 0xfa
 152 393 159 362 168 333 c 1
 201 397 257 437 330 437 c 0
 445 437 493 363 493 264 c 1
 378 264 l 1
 378.020725942 265.285008414 378.031142332 266.56829857 378.031142332 267.849389697 c 0
 378.031142332 328.37929454 354.777169412 384 297 384 c 0
 251 384 209 327 185 271 c 1
 202 198 206 123 206 68 c 0
 206 60 206 52 206 45 c 1
 298 45 366 116 374 175 c 1
 488 175 l 1
 472 67 364 -2 150 -2 c 1
 150.018680067 -0.655035169788 150.027938622 0.683648652109 150.027938622 2.01620790523 c 0
 150.027938622 72.0195409148 124.476958122 125.120804025 97 184 c 0xf6
EndSplineSet
Validated: 1
EndChar

StartChar: afii10024
Encoding: 1046 1046 85
Width: 826
Flags: W
HStem: 0 40<22 76 206 260 300 354 472 526 566 620 750 804> 636 40<300 354 472 526>
VStem: 76 130<40 154.004> 354 118<40 373 423 636> 620 130<40 153.187>
DStem2: 269 558 237 534 0.523826 -0.851825<-45.6959 159.124> 495 444 526 418 0.525272 0.850934<-29.5526 175.352>
CounterMasks: 1 38
AnchorPoint: "Yerok" 690 754 basechar 0
AnchorPoint: "Diacritic" 410 754 basechar 0
LayerCount: 2
Fore
SplineSet
90 520 m 0
 80 518 70 527 70 537 c 0
 70.2996598285 543.143026485 70.4646256378 549.128909947 70.4646256378 554.981195112 c 0
 70.4646256378 588.18843417 65.153231629 617.094217085 49 646 c 0
 48.0958117849 647.627538787 47.6821573668 649.5166956 47.6821573668 651.531453074 c 0
 47.6821573668 660.657946066 56.1700517163 672.361675286 66 674 c 0
 74.2878969503 675.137554483 82.5229763414 675.667707035 90.6408636895 675.667707035 c 0
 132.476813513 675.667707035 171.200249067 661.58733655 198 644 c 0
 227 625 248 599 269 558 c 0
 288 521 314 464 331 444 c 0
 338 436 346 428 354 423 c 1
 354 636 l 1
 300 636 l 1
 300 676 l 1
 526 676 l 1
 526 636 l 1
 472 636 l 1
 472 423 l 1
 480 428 488 436 495 444 c 0
 512 464 538 521 557 558 c 0
 578 599 599 625 628 644 c 0
 654.799750933 661.58733655 693.523186487 675.667707035 735.359136311 675.667707035 c 0
 743.477023659 675.667707035 751.71210305 675.137554483 760 674 c 0
 769.829948284 672.361675286 778.317842633 660.657946066 778.317842633 651.531453074 c 0
 778.317842633 649.5166956 777.904188215 647.627538787 777 646 c 0
 760.846768371 617.094217085 755.535374362 588.18843417 755.535374362 554.981195112 c 0
 755.535374362 549.128909947 755.700340171 543.143026485 756 537 c 0
 756 527 746 518 736 520 c 0
 691 531 676 545 643 570 c 0
 637 574 629 576 623 572 c 0
 606 562 608 564 589 534 c 0
 566 498 543 440 526 418 c 0
 520 411 515 406 508 400 c 1
 650 354 750 176 750 40 c 1
 804 40 l 1
 804 0 l 1
 566 0 l 1
 566 40 l 1
 620 40 l 1
 620 176 562 352 472 373 c 1
 472 40 l 1
 526 40 l 1
 526 0 l 1
 300 0 l 1
 300 40 l 1
 354 40 l 1
 354 373 l 1
 263 352 206 176 206 40 c 1
 260 40 l 1
 260 0 l 1
 22 0 l 1
 22 40 l 1
 76 40 l 1
 76 176 175 354 317 400 c 1
 311 406 305 411 300 418 c 0
 283 440 260 498 237 534 c 0
 218 564 220 562 203 572 c 0
 197 576 189 574 183 570 c 0
 150 545 135 531 90 520 c 0
EndSplineSet
Validated: 1
EndChar

StartChar: afii10025
Encoding: 1047 1047 86
Width: 667
Flags: W
HStem: -10 40<329.972 473.58> 29.068 107.136<96.3897 254.98> 647.262 38.7383<268.23 438.26>
VStem: 61 126<494.512 570.358> 504 95<473.816 593.48> 514 116<70.2492 217.814>
AnchorPoint: "Yerok" 550 754 basechar 0
AnchorPoint: "Diacritic" 340 754 basechar 0
LayerCount: 2
Fore
SplineSet
172 339 m 0xb4
 193 374 239 420 262 435 c 0
 270 440 276 437 285 435 c 0
 310 430 357 409 393 392 c 1
 410 398 430 403 446 404 c 1
 464 426 488 464 496 482 c 0
 502 496 504 515 504 531 c 0
 504 605.592515397 431.751573816 647.261697342 350.224830611 647.261697342 c 0
 299.49049191 647.261697342 260.192456635 627.294578207 225 602 c 0
 223 600 218 596 217 593 c 0
 206 570 195 531 187 496 c 1
 170.731431547 494.140735034 149.70967205 493.36174076 128.453867774 493.36174076 c 0
 103.98019365 493.36174076 79.1962477886 494.394448725 61 496 c 1
 73 545 82 586 114 626 c 0
 118 631 129 641 137 645 c 0
 191 670 259 686 340 686 c 0
 452 686 599 662 599 552 c 0xb8
 599 525 587 488 570 461 c 0
 553 434 518 388 500 368 c 1
 519 354 565 313 601 267 c 0
 620 242 630 208 630 174 c 0
 630 46 564 -10 431 -10 c 0xb4
 379 -10 344 -6 295 7 c 0
 250.335498656 19.1812276391 212.916803117 29.0679951442 158.059528391 29.0679951442 c 0
 123.907414279 29.0679951442 101.73248891 18.9588301763 75 -3 c 0
 71.9326121537 -5.62918958254 68.0491490044 -6.7702418478 63.8965324522 -6.7702418478 c 0
 50.2293929943 -6.7702418478 33.646764146 5.58971993568 33.646764146 17.9358376973 c 0
 33.646764146 49.0141372572 56.581271436 78.4025850747 76 104 c 0
 78 107 81 110 84 111 c 0
 127.76260256 124.035668848 174.993137003 136.204354724 213.582635932 136.204354724 c 0x74
 216.437346067 136.204354724 219.244768136 136.137761593 222 136 c 0
 227 136 229 133 233 131 c 0
 297 94 313 30 399 30 c 0
 484 30 514 77 514 144 c 0
 514 175 508 201 486 226 c 0
 460 255 428 294 396 317 c 1
 362 292 324 268 292 253 c 0
 284 249 278 249 270 253 c 0
 236 269 200 295 172 321 c 0
 167 326 168 333 172 339 c 0xb4
EndSplineSet
Validated: 1
EndChar

StartChar: afii10026
Encoding: 1048 1048 87
Width: 542
Flags: W
HStem: 0 40<22 76 194 248 294 348 466 520> 636 40<22 76 194 248 294 348 466 520>
VStem: 76 118<40 295 340 636> 348 118<40 371 416 636>
DStem2: 194 340 194 295 0.896744 0.442549<0 151.818>
AnchorPoint: "Yerok" 420 754 basechar 0
AnchorPoint: "Diacritic" 270 754 basechar 0
LayerCount: 2
Fore
SplineSet
248 0 m 1
 22 0 l 1
 22 40 l 1
 76 40 l 1
 76 636 l 1
 22 636 l 1
 22 676 l 1
 248 676 l 1
 248 636 l 1
 194 636 l 1
 194 340 l 1
 348 416 l 1
 348 636 l 1
 294 636 l 1
 294 676 l 1
 520 676 l 1
 520 636 l 1
 466 636 l 1
 466 40 l 1
 520 40 l 1
 520 0 l 1
 294 0 l 1
 294 40 l 1
 348 40 l 1
 348 371 l 1
 194 295 l 1
 194 40 l 1
 248 40 l 1
 248 0 l 1
EndSplineSet
Validated: 1
EndChar

StartChar: afii10027
Encoding: 1049 1049 88
Width: 542
Flags: W
HStem: 0 40<22 76 194 248 294 348 466 520> 636 40<22 76 194 248 294 348 466 520> 713 74<253.358 344.435>
VStem: 76 118<40 295 340 636> 190.775 54.3482<794.844 888.243> 348 118<40 371 416 636>
DStem2: 194 340 194 295 0.896744 0.442549<0 151.818>
AnchorPoint: "Yerok" 309 1004 basechar 0
AnchorPoint: "Diacritic" 308 1003 basechar 0
LayerCount: 2
Fore
SplineSet
248 0 m 1xf4
 22 0 l 1
 22 40 l 1
 76 40 l 1
 76 636 l 1
 22 636 l 1
 22 676 l 1
 248 676 l 1
 248 636 l 1
 194 636 l 1
 194 340 l 1
 348 416 l 1
 348 636 l 1
 294 636 l 1
 294 676 l 1
 520 676 l 1
 520 636 l 1
 466 636 l 1
 466 40 l 1
 520 40 l 1
 520 0 l 1
 294 0 l 1
 294 40 l 1
 348 40 l 1
 348 371 l 1
 194 295 l 1
 194 40 l 1
 248 40 l 1
 248 0 l 1xf4
199 765 m 0
 193.189054332 781.538845362 190.774798146 798.077690723 190.774798146 813.455478554 c 0
 190.774798146 832.480222296 194.469958206 849.727899694 200 863 c 0
 214 896 235 924 256 940 c 0
 262 944 278 939 276 933 c 0
 268 912 259 895 249 864 c 0
 246.408585025 855.793852579 245.122948411 847.541070217 245.122948411 839.644487866 c 0xec
 245.122948411 810.974565381 262.069952412 787 295 787 c 0
 334 787 357 815 375 849 c 0
 390 878 397 905 408 925 c 0
 412 932 429 928 430 921 c 0
 430.642857143 915.214285714 430.964285714 909.153061224 430.964285714 902.875364431 c 0
 430.964285714 879.857142857 426.642857143 853.928571429 418 828 c 0
 396 762 335 713 276 713 c 0
 236 713 209 737 199 765 c 0
EndSplineSet
Validated: 1
LCarets2: 1 0
Ligature2: "'ccmp' Precomposed Glyphs for Cyrillic-1" afii10026 uni0306
EndChar

StartChar: afii10028
Encoding: 1050 1050 89
Width: 556
Flags: W
HStem: 0 40<22 66 184 228 318 362 489 533> 335 39<184 268.671> 636 40<22 66 184 228 288 332 450 494>
VStem: 66 118<40 335 374 636> 332 118<497.531 636> 362 127<40 209.094>
AnchorPoint: "Yerok" 414 754 basechar 0
AnchorPoint: "Diacritic" 260 754 basechar 0
LayerCount: 2
Fore
SplineSet
460 230 m 0xf8
 483 173 489 127 489 68 c 2
 489 40 l 1
 533 40 l 1
 533 0 l 1
 318 0 l 1
 318 40 l 1
 362 40 l 1
 362 82 l 2xf4
 362 142 360 194 330 257 c 0
 306 307 272 334 217 335 c 2
 215 335 l 1
 184 335 l 1
 184 40 l 1
 228 40 l 1
 228 0 l 1
 22 0 l 1
 22 40 l 1
 66 40 l 1
 66 636 l 1
 22 636 l 1
 22 676 l 1
 228 676 l 1
 228 636 l 1
 184 636 l 1
 184 374 l 1
 212 374 l 1
 216 374 l 2
 270 374 288 409 306 459 c 0
 325 510 332 564 332 603 c 2
 332 636 l 1
 288 636 l 1
 288 676 l 1
 494 676 l 1
 494 636 l 1
 450 636 l 1
 450 612 l 2
 450 555 438 503 402 448 c 0
 376 410 346 380 310 360 c 1
 373 342 431 302 460 230 c 0xf8
EndSplineSet
Validated: 1
EndChar

StartChar: afii10029
Encoding: 1051 1051 90
Width: 537
Flags: W
HStem: 0 40<22 66 196 240 289 343 461 515> 636 40<289 343 461 515>
VStem: 66 129.95<40 160.899> 343 118<40 421 475.029 636>
AnchorPoint: "Yerok" 450 754 basechar 0
AnchorPoint: "Diacritic" 400 754 basechar 0
LayerCount: 2
Fore
SplineSet
196 40 m 1
 240 40 l 1
 240 0 l 1
 22 0 l 1
 22 40 l 1
 66 40 l 1
 66 128 97 197 137 256 c 0
 176 313 211 338 256 389 c 0
 296 434 329 475 343 529 c 1
 343 636 l 1
 289 636 l 1
 289 676 l 1
 515 676 l 1
 515 636 l 1
 461 636 l 1
 461 40 l 1
 515 40 l 1
 515 0 l 1
 289 0 l 1
 289 40 l 1
 343 40 l 1
 343 421 l 1
 331 399 314 379 300 354 c 0
 273 306 258 279 237 227 c 0
 209.934372681 161.269190797 195.949962901 121.700816672 195.949962901 47.7809974252 c 0
 195.949962901 45.2291016609 195.966629547 42.6362657794 196 40 c 1
EndSplineSet
Validated: 1
EndChar

StartChar: afii10030
Encoding: 1052 1052 91
Width: 838
Flags: W
HStem: 0 40<22 66 196 240 307 361 479 533 590 644 762 816> 636 40<307 361 479 533 590 644 762 816>
VStem: 66 130<40 169.398> 361 118<40 209 265 413 453.571 636> 644 118<40 374 430 636>
DStem2: 479 265 479 209 0.707107 0.707107<0 193.747>
AnchorPoint: "Yerok" 720 754 basechar 0
AnchorPoint: "Diacritic" 564 754 basechar 0
LayerCount: 2
Fore
SplineSet
196 40 m 1
 240 40 l 1
 240 0 l 1
 22 0 l 1
 22 40 l 1
 66 40 l 1
 66 108 80 176 126 246 c 0
 171 315 212 347 270 395 c 0
 301 421 337 450 361 473 c 1
 361 636 l 1
 307 636 l 1
 307 676 l 1
 533 676 l 1
 533 636 l 1
 479 636 l 1
 479 265 l 1
 644 430 l 1
 644 636 l 1
 590 636 l 1
 590 676 l 1
 816 676 l 1
 816 636 l 1
 762 636 l 1
 762 40 l 1
 816 40 l 1
 816 0 l 1
 590 0 l 1
 590 40 l 1
 644 40 l 1
 644 374 l 1
 479 209 l 1
 479 40 l 1
 533 40 l 1
 533 0 l 1
 307 0 l 1
 307 40 l 1
 361 40 l 1
 361 413 l 1
 344 397 322 377 304 358 c 0
 263 316 237 283 219 223 c 0
 198 154 196 91 196 40 c 1
EndSplineSet
Validated: 1
EndChar

StartChar: afii10031
Encoding: 1053 1053 92
Width: 542
Flags: W
HStem: 0 40<22 76 194 248 294 348 466 520> 636 40<22 76 194 248 294 348 466 520>
VStem: 76 118<40 351 396 636> 348 118<40 275 320 636>
DStem2: 194 396 194 351 0.896744 -0.442549<19.9147 171.732>
AnchorPoint: "Yerok" 420 754 basechar 0
AnchorPoint: "Diacritic" 275 754 basechar 0
LayerCount: 2
Fore
SplineSet
248 0 m 1
 22 0 l 1
 22 40 l 1
 76 40 l 1
 76 636 l 1
 22 636 l 1
 22 676 l 1
 248 676 l 1
 248 636 l 1
 194 636 l 1
 194 396 l 1
 348 320 l 1
 348 636 l 1
 294 636 l 1
 294 676 l 1
 520 676 l 1
 520 636 l 1
 466 636 l 1
 466 40 l 1
 520 40 l 1
 520 0 l 1
 294 0 l 1
 294 40 l 1
 348 40 l 1
 348 275 l 1
 194 351 l 1
 194 40 l 1
 248 40 l 1
 248 0 l 1
EndSplineSet
Validated: 1
EndChar

StartChar: afii10032
Encoding: 1054 1054 93
Width: 590
Flags: W
HStem: -5 46<255.78 322.232> 636 46<275.456 340.483>
VStem: 46 122<246.318 454.968> 434.015 115.985<214.459 424.802>
AnchorPoint: "Yerok" 480 754 basechar 0
AnchorPoint: "Diacritic" 330 754 basechar 0
LayerCount: 2
Fore
SplineSet
375 682 m 1
 380 652 391 616 412 592 c 0
 459 537 550 451 550 318 c 0
 550 121 348 -5 228 -5 c 1
 222 20 209 46 187 71 c 0
 105 164 46 241 46 358 c 0
 46 520 222 682 375 682 c 1
259 41 m 1
 383.767660018 41.9902195239 434.014682409 182.216367244 434.014682409 309.240139485 c 0
 434.014682409 418.335702415 399.381982036 486.236035928 361 563 c 0
 348 589 341 607 336 636 c 1
 226 636 168 515 168 370 c 0
 168 277 196 232 233 138 c 0
 247 102 255 73 259 41 c 1
EndSplineSet
Validated: 1
EndChar

StartChar: afii10033
Encoding: 1055 1055 94
Width: 542
Flags: W
HStem: 0 40<22 76 194 248 294 348 466 520> 636 40<22 76 194 348 466 520>
VStem: 76 118<40 636> 348 118<40 636>
AnchorPoint: "Yerok" 420 754 basechar 0
AnchorPoint: "Diacritic" 284 754 basechar 0
LayerCount: 2
Fore
SplineSet
520 676 m 1
 520 636 l 1
 466 636 l 1
 466 40 l 1
 520 40 l 1
 520 0 l 1
 294 0 l 1
 294 40 l 1
 348 40 l 1
 348 636 l 1
 194 636 l 1
 194 40 l 1
 248 40 l 1
 248 0 l 1
 22 0 l 1
 22 40 l 1
 76 40 l 1
 76 636 l 1
 22 636 l 1
 22 676 l 1
 520 676 l 1
EndSplineSet
Validated: 1
EndChar

StartChar: afii10034
Encoding: 1056 1056 95
Width: 566
Flags: W
HStem: 0 40<22 76 194 248> 327 49<344.715 412.923> 636 44<240.996 386.286>
VStem: 76 118<40 214 283 569.611> 430 103<391.658 590.734>
DStem2: 194 283 194 214 0.575125 0.818066<0 145.249>
AnchorPoint: "Yerok" 470 754 basechar 0
AnchorPoint: "Diacritic" 317 754 basechar 0
LayerCount: 2
Fore
SplineSet
248 40 m 1
 248 0 l 1
 22 0 l 1
 22 40 l 1
 76 40 l 1
 76 487 l 2
 76 601 178 680 316 680 c 0
 467 680 533 618 533 504 c 0
 533 399 494 327 407 327 c 0
 345 327 324 360 310 379 c 1
 194 214 l 1
 194 40 l 1
 248 40 l 1
194 536 m 2
 194 283 l 1
 292 422 l 2
 295.564659966 428.110845656 302.241189486 431.628466685 309.256399354 431.628466685 c 0
 316.017109081 431.628466685 323.09237138 428.361442929 328 421 c 0
 338 406 355 376 382 376 c 0
 416 376 430 421 430 484 c 2
 430 516 l 2
 430 605 368 636 316 636 c 0
 251 636 194 597 194 536 c 2
EndSplineSet
Validated: 1
EndChar

StartChar: afii10035
Encoding: 1057 1057 96
Width: 573
Flags: W
HStem: -2 42<213 298.901> 258 40<350 401 508.642 541> 468 40<340 380 490.241 542> 640 45<222.219 317.054>
VStem: 35 118<270.7 486.311> 380 114<508 567.719> 401 110<172.906 258>
AnchorPoint: "Yerok" 440 754 basechar 0
AnchorPoint: "Diacritic" 290 754 basechar 0
LayerCount: 2
Fore
SplineSet
269 640 m 0xfc
 209 640 153 546 153 417 c 0
 153 333 180 254 196 184 c 0
 207 134 213 86 213 40 c 1
 361 40 401 171 401 258 c 1
 350 258 l 1
 350 298 l 1
 541 298 l 1
 541 258 l 1
 511 258 l 1xfa
 487 110 428 -2 160 -2 c 1
 157 18 158 68 136 110 c 0
 87 204 35 248 35 373 c 0
 35 528 155 685 293 685 c 0
 395 685 484 584 494 508 c 1
 542 508 l 1
 542 468 l 1
 340 468 l 1
 340 508 l 1
 380 508 l 1
 376 568 317 640 269 640 c 0xfc
EndSplineSet
Validated: 1
EndChar

StartChar: afii10036
Encoding: 1058 1058 97
Width: 626
Flags: W
HStem: 0 40<196 250 368 422> 636 40<137.661 250 368 487.126>
VStem: 250 118<40 636>
AnchorPoint: "Yerok" 530 754 basechar 0
AnchorPoint: "Diacritic" 310 754 basechar 0
LayerCount: 2
Fore
SplineSet
135 611 m 0
 123 585 102 544 94 520 c 0
 92 514 85.5 511 79 511 c 0
 72.5 511 66 514 64 520 c 0
 50 566 38 591 15 632 c 0
 11.3359584122 638.513851712 8.99786257819 647.016622054 8.99786257819 654.809244146 c 0
 8.99786257819 666.157670852 13.9565461035 676 27 676 c 2
 598 676 l 2
 616.327014326 676 623.47135955 665.616092976 623.47135955 654.186902898 c 0
 623.47135955 647.530958848 621.048373876 640.520509831 617 635 c 0
 590 597 569 549 557 503 c 0
 555 496 548.75 492.5 542.5 492.5 c 0
 536.25 492.5 530 496 528 503 c 0
 518 539 502 573 489 612 c 0
 485 622 478 636 465 636 c 2
 368 636 l 1
 368 40 l 1
 422 40 l 1
 422 0 l 1
 196 0 l 1
 196 40 l 1
 250 40 l 1
 250 636 l 1
 163 636 l 2
 149 636 141 624 135 611 c 0
EndSplineSet
Validated: 1
EndChar

StartChar: uniA64A
Encoding: 42570 42570 98
Width: 552
Flags: W
HStem: -1 40<194.449 423.551> 107 40<204 293 334 414> 221 40<194.941 297 340 422.411> 332 40<114 168 278.204 303> 537 141.442<427.286 498.532> 636 40<25 87.2461 212 266>
VStem: 108 40<78.2981 182.739> 470 40<78.2981 182.156>
DStem2: 293 147 334 147 0.0550014 0.998486<2.25506 74.108>
AnchorPoint: "Yerok" 446 754 basechar 0
AnchorPoint: "Diacritic" 330 754 basechar 0
LayerCount: 2
Fore
SplineSet
510 130 m 0xfb
 510 36 422 -1 309 -1 c 0
 196 -1 108 36 108 130 c 0
 108 221 191 259 299 261 c 1
 303 332 l 1
 114 332 l 1
 114 372 l 1
 168 372 l 1
 152 457 114 566 79 636 c 1
 25 636 l 1
 25 676 l 1
 266 676 l 1
 266 636 l 1
 212 636 l 1xf7
 238 569 267 457 281 372 c 1
 305 372 l 1
 306 383 l 1
 308 420 316 471 329 507 c 0
 341 541 355 577 381 612 c 0
 411.608885229 652.811846972 448.724047228 678.442381479 499.10674732 678.442381479 c 0
 514.57630471 678.442381479 540.132714688 676.268270347 540.132714688 662.423187063 c 0
 540.132714688 659.742598293 539.174706791 656.624511318 537 653 c 0
 521.248970909 624.648147637 505.819493904 588.426566226 505.819493904 545.949850599 c 0
 505.819493904 543.323683209 505.878472463 540.673605818 506 538 c 0
 506 530 501 522 492 526 c 0
 469 536 459 537 436 537 c 0
 409 537 387 519 375 491 c 0
 360 456 348 414 346 381 c 2
 340 260 l 1
 437 253 510 215 510 130 c 0xfb
414 107 m 1
 204 107 l 1
 204 147 l 1
 293 147 l 1
 297 221 l 1
 215 219 148 199 148 130 c 0
 148 58 222 39 309 39 c 0
 396 39 470 58 470 130 c 0
 470 194 412 216 338 220 c 1
 334 147 l 1
 414 147 l 1
 414 107 l 1
EndSplineSet
Validated: 1
EndChar

StartChar: afii10038
Encoding: 1060 1060 99
Width: 728
Flags: W
HStem: 0 40<252 306 424 478> 102 44<171.178 292.982 436.236 558.822> 636 40<262 306 424 468>
VStem: 25 121<194.002 366.99> 306 118<40 132 158.437 524 550.85 636> 584 121<194.002 366.99>
CounterMasks: 1 1c
AnchorPoint: "Yerok" 620 754 basechar 0
AnchorPoint: "Diacritic" 370 754 basechar 0
LayerCount: 2
Fore
SplineSet
478 0 m 1
 252 0 l 1
 252 40 l 1
 306 40 l 1
 306 132 l 1
 289 120 258 102 221 102 c 0
 124 102 25 148 25 297 c 0
 25 409 141 461 226 513 c 0
 258 532 289 552 306 570 c 1
 306 636 l 1
 262 636 l 1
 262 676 l 1
 468 676 l 1
 468 636 l 1
 424 636 l 1
 424 570 l 1
 441 552 472 532 504 513 c 0
 589 461 705 409 705 297 c 0
 705 148 606 102 509 102 c 0
 471 102 440 120 424 132 c 1
 424 40 l 1
 478 40 l 1
 478 0 l 1
477 469 m 0
 456 488 436 507 424 524 c 1
 424 172 l 1
 448 155 465 146 504 146 c 0
 558 146 584 178 584 273 c 0
 584 362 540 409 477 469 c 0
226 146 m 0
 265 146 282 155 306 172 c 1
 306 524 l 1
 293 507 273 488 253 469 c 0
 190 409 146 362 146 273 c 0
 146 178 172 146 226 146 c 0
EndSplineSet
Validated: 1
EndChar

StartChar: afii10039
Encoding: 1061 1061 100
Width: 522
Flags: W
HStem: 0 40<19 73 118 172 274 328 446 500> 636 40<34 88 206 260>
DStem2: 73 40 118 40 0.429568 0.903034<19.3306 283.697 470.562 613.869> 206 636 88 636 0.373536 -0.927616<0 184.396 239.175 285.718 340.497 598.43>
AnchorPoint: "Yerok" 430 754 basechar 0
AnchorPoint: "Diacritic" 300 754 basechar 0
LayerCount: 2
Fore
SplineSet
359 548 m 2
 295 414 l 1
 446 40 l 1
 500 40 l 1
 500 0 l 1
 274 0 l 1
 274 40 l 1
 328 40 l 1
 231 279 l 1
 118 40 l 1
 172 40 l 1
 172 0 l 1
 19 0 l 1
 19 40 l 1
 73 40 l 1
 211 330 l 1
 88 636 l 1
 34 636 l 1
 34 676 l 1
 260 676 l 1
 260 636 l 1
 206 636 l 1
 275 465 l 1
 347 616 l 2
 356 635 382 661 406 667 c 0
 429 673 476 679 494 680 c 0
 504 681 515 671 512 661 c 0
 498 619 494 577 494 529 c 0
 494 517 485 509 475 514 c 0
 448 527 434 542 405 564 c 0
 400.474702323 567.620238142 395.312301386 569.238151752 390.061955646 569.238151752 c 0
 377.908985249 569.238151752 365.284821394 560.569642787 359 548 c 2
EndSplineSet
Validated: 1
EndChar

StartChar: afii10040
Encoding: 1062 1062 101
Width: 549
Flags: W
HStem: 0 40<22 80 198 352> 636 40<26 80 198 252 298 352 470 524>
VStem: 80 118<40 636> 352 118<40 636> 422 105<-125 0>
AnchorPoint: "Yerok" 420 754 basechar 0
AnchorPoint: "Diacritic" 278 754 basechar 0
LayerCount: 2
Fore
SplineSet
422 0 m 1xe8
 22 0 l 1
 22 40 l 1
 80 40 l 1
 80 636 l 1
 26 636 l 1
 26 676 l 1
 252 676 l 1
 252 636 l 1
 198 636 l 1
 198 40 l 1
 352 40 l 1
 352 636 l 1
 298 636 l 1
 298 676 l 1
 524 676 l 1
 524 636 l 1
 470 636 l 1
 470 40 l 1xf0
 527 40 l 1
 527 -125 l 1
 334 -261 l 1
 287 -261 l 1
 122 -173 l 1
 66 -221 l 2
 61.7171309717 -224.467084451 56.9767276163 -225.937655476 52.287766453 -225.937655476 c 0
 38.5217861743 -225.937655476 25.1991903698 -213.262683167 25.1991903698 -201.221256923 c 0
 25.1991903698 -197.253308306 26.6458456998 -193.3541543 30 -190 c 2
 141 -80 l 1
 206 -80 l 1
 385 -176 l 1
 422 -150 l 1
 422 0 l 1xe8
EndSplineSet
Validated: 1
EndChar

StartChar: afii10041
Encoding: 1063 1063 102
Width: 532
Flags: W
HStem: 0 40<284 338 456 510> 636 40<22 66 184 228 294 338 456 500>
VStem: 66 118<352.425 636> 338 118<40 281.061 317 636>
DStem2: 245 345 236 306 0.949561 -0.313583<-60.4381 97.0895>
AnchorPoint: "Yerok" 420 754 basechar 0
AnchorPoint: "Diacritic" 260 754 basechar 0
LayerCount: 2
Fore
SplineSet
228 636 m 1
 184 636 l 1
 184 356 l 1
 204 353 224 349 245 345 c 0
 278 337 306 328 338 317 c 1
 338 636 l 1
 294 636 l 1
 294 676 l 1
 500 676 l 1
 500 636 l 1
 456 636 l 1
 456 40 l 1
 510 40 l 1
 510 0 l 1
 284 0 l 1
 284 40 l 1
 338 40 l 1
 338 273 l 1
 302 287 273 297 236 306 c 0
 180 319 131 323 66 323 c 1
 66 636 l 1
 22 636 l 1
 22 676 l 1
 228 676 l 1
 228 636 l 1
EndSplineSet
Validated: 1
EndChar

StartChar: afii10042
Encoding: 1064 1064 103
Width: 870
Flags: W
HStem: 0 40<22 76 194 376 494 676 794 848> 636 40<22 76 194 248 322 376 494 548 622 676 794 848>
VStem: 76 118<40 636> 376 118<40 636> 676 118<40 636>
CounterMasks: 1 38
AnchorPoint: "Yerok" 730 754 basechar 0
AnchorPoint: "Diacritic" 430 754 basechar 0
LayerCount: 2
Fore
SplineSet
676 40 m 1
 676 636 l 1
 622 636 l 1
 622 676 l 1
 848 676 l 1
 848 636 l 1
 794 636 l 1
 794 40 l 1
 848 40 l 1
 848 0 l 1
 22 0 l 1
 22 40 l 1
 76 40 l 1
 76 636 l 1
 22 636 l 1
 22 676 l 1
 248 676 l 1
 248 636 l 1
 194 636 l 1
 194 40 l 1
 376 40 l 1
 376 636 l 1
 322 636 l 1
 322 676 l 1
 548 676 l 1
 548 636 l 1
 494 636 l 1
 494 40 l 1
 676 40 l 1
EndSplineSet
Validated: 1
EndChar

StartChar: afii10043
Encoding: 1065 1065 104
Width: 870
Flags: W
HStem: 0 40<22 76 194 376 494 676 794 848> 636 40<22 76 194 248 322 376 494 548 622 676 794 848>
VStem: 76 118<40 636> 376 118<-89.7942 0 40 636> 676 118<40 636>
CounterMasks: 1 38
AnchorPoint: "Yerok" 729 754 basechar 0
AnchorPoint: "Diacritic" 440 754 basechar 0
LayerCount: 2
Fore
SplineSet
494 -30 m 2
 494 -65 523 -112 557 -130 c 0
 561 -132 560 -144 557 -146 c 0
 524 -167 464 -217 442 -263 c 0
 440 -268 429 -268 427 -263 c 0
 405 -217 346 -167 313 -146 c 0
 310 -144 309 -132 313 -130 c 0
 347 -112 376 -65 376 -30 c 2
 376 0 l 1
 22 0 l 1
 22 40 l 1
 76 40 l 1
 76 636 l 1
 22 636 l 1
 22 676 l 1
 248 676 l 1
 248 636 l 1
 194 636 l 1
 194 40 l 1
 376 40 l 1
 376 636 l 1
 322 636 l 1
 322 676 l 1
 548 676 l 1
 548 636 l 1
 494 636 l 1
 494 40 l 1
 676 40 l 1
 676 636 l 1
 622 636 l 1
 622 676 l 1
 848 676 l 1
 848 636 l 1
 794 636 l 1
 794 40 l 1
 848 40 l 1
 848 0 l 1
 494 0 l 1
 494 -30 l 2
EndSplineSet
Validated: 1
EndChar

StartChar: afii10044
Encoding: 1066 1066 105
Width: 547
Flags: W
HStem: 0 40<181 372> 272 40<401 433> 636 40<182.898 299 428 472>
DStem2: 52 40 181 40 0.382854 0.923809<49.3881 294.157 343.544 645.155> 401 272 275 266 0.395829 -0.918324<0 201.572>
AnchorPoint: "Yerok" 420 754 basechar 0
AnchorPoint: "Diacritic" 310 754 basechar 0
LayerCount: 2
Fore
SplineSet
40 638 m 0
 35.1432169988 646.499370252 29.9178661676 658.684418804 29.9178661676 666.947416277 c 0
 29.9178661676 672.295070087 32.1064681273 676 38 676 c 2
 472 676 l 1
 472 636 l 1
 428 636 l 1
 293 312 l 1
 433 312 l 1
 433 272 l 1
 401 272 l 1
 501 40 l 1
 501 0 l 1
 52 0 l 1
 52 40 l 1
 299 636 l 1
 195 636 l 1
 167 597 133 533 117 473 c 0
 115 464 102 463 100 473 c 0
 86 538 68 593 40 638 c 0
372 40 m 1
 275 266 l 1
 181 40 l 1
 372 40 l 1
EndSplineSet
Validated: 1
EndChar

StartChar: afii10045
Encoding: 1067 1067 106
Width: 784
Flags: W
HStem: 0 40<22 76 194 318 436 480 536 590 708 762> 294 40<436 461> 325 41<194 296.723> 636 40<22 76 194 248 546 590 708 752>
VStem: 76 118<40 325 360.808 636> 318 118<40 294> 590 118<40 636>
AnchorPoint: "Yerok" 640 754 basechar 0
AnchorPoint: "Diacritic" 400 754 basechar 0
LayerCount: 2
Fore
SplineSet
194 636 m 1xde
 194 366 l 1xbe
 221 359 247 354 278 349 c 0
 336 338 384 334 461 334 c 1
 461 294 l 1
 436 294 l 1
 436 40 l 1
 480 40 l 1
 480 0 l 1
 22 0 l 1
 22 40 l 1
 76 40 l 1
 76 636 l 1
 22 636 l 1
 22 676 l 1
 248 676 l 1
 248 636 l 1
 194 636 l 1xde
762 0 m 1
 536 0 l 1
 536 40 l 1
 590 40 l 1
 590 636 l 1
 546 636 l 1
 546 676 l 1
 752 676 l 1
 752 636 l 1
 708 636 l 1
 708 40 l 1
 762 40 l 1
 762 0 l 1
271 309 m 0
 242 314 218 319 194 325 c 1
 194 40 l 1
 318 40 l 1
 318 302 l 1
 302 304 287 306 271 309 c 0
EndSplineSet
Validated: 1
EndChar

StartChar: afii10046
Encoding: 1068 1068 107
Width: 540
Flags: W
HStem: 0 40<22 76 194 356 474 518> 294 40<474 499> 335 42<194 274.471> 636 40<22 76 194 248>
VStem: 76 118<40 335 370.923 636> 356 118<40 294>
AnchorPoint: "Yerok" 420 754 basechar 0
AnchorPoint: "Diacritic" 300 754 basechar 0
LayerCount: 2
Fore
SplineSet
194 636 m 1
 194 377 l 1
 239 363 271 356 316 349 c 0
 374 338 422 334 499 334 c 1
 499 294 l 1
 474 294 l 1
 474 40 l 1
 518 40 l 1
 518 0 l 1
 22 0 l 1
 22 40 l 1
 76 40 l 1
 76 636 l 1
 22 636 l 1
 22 676 l 1
 248 676 l 1
 248 636 l 1
 194 636 l 1
309 309 m 0
 265 317 234 323 194 335 c 1
 194 40 l 1
 356 40 l 1
 356 302 l 1
 340 304 325 306 309 309 c 0
EndSplineSet
Validated: 1
EndChar

StartChar: uni0462
Encoding: 1122 1122 108
Width: 744
Flags: W
HStem: 0 40<226 280 398 560 678 722> 294 40<678 703> 335 42<398 478.555> 535 40<3 57 163 280 398 522.175> 636 40<226 280 398 452>
VStem: 57 106<315 535> 280 118<40 335 370.923 535 575 636> 560 118<40 294>
AnchorPoint: "Yerok" 580 754 basechar 0
AnchorPoint: "Diacritic" 340 754 basechar 0
LayerCount: 2
Fore
SplineSet
398 636 m 1
 398 575 l 1
 641 575 l 2
 648.734216345 575 652.26247236 567.756401653 652.26247236 559.255593079 c 0
 652.26247236 550.170529844 648.232560698 539.649503306 641 535 c 0
 616 519 592 478 576 444 c 0
 575 441 565 441 564 444 c 0
 552 473 530 517 500 535 c 1
 398 535 l 1
 398 377 l 1
 443 363 475 356 520 349 c 0
 578 338 626 334 703 334 c 1
 703 294 l 1
 678 294 l 1
 678 40 l 1
 722 40 l 1
 722 0 l 1
 226 0 l 1
 226 40 l 1
 280 40 l 1
 280 535 l 1
 163 535 l 1
 163 315 l 1
 57 315 l 1
 57 535 l 1
 3 535 l 1
 3 575 l 1
 280 575 l 1
 280 636 l 1
 226 636 l 1
 226 676 l 1
 452 676 l 1
 452 636 l 1
 398 636 l 1
560 302 m 1
 500.985698166 309.376787729 449.13786924 319.658639228 398 335 c 1
 398 40 l 1
 560 40 l 1
 560 302 l 1
EndSplineSet
Validated: 1
EndChar

StartChar: afii10048
Encoding: 1070 1070 109
Width: 791
Flags: W
HStem: -9 21G<501 563.945> 0 40<22 76 194 248> 636 40<22 76 194 248>
VStem: 76 118<40 296 341 636> 287 111<268.389 342> 658.315 104<216.849 406.495>
DStem2: 194 341 194 296 0.892579 0.450891<0 83.4608>
AnchorPoint: "Yerok" 660 754 basechar 0
AnchorPoint: "Diacritic" 380 754 basechar 0
LayerCount: 2
Fore
SplineSet
248 0 m 1x7c
 22 0 l 1
 22 40 l 1
 76 40 l 1x7c
 76 636 l 1
 22 636 l 1
 22 676 l 1
 248 676 l 1
 248 636 l 1
 194 636 l 1
 194 341 l 1
 291 390 l 1
 315 526 431 663 520 679 c 1
 532 652 561 624 583 605 c 0
 630 565 744 460 759 365 c 0
 761.246476504 351.119984455 762.314970645 337.336524841 762.314970645 323.701266548 c 0
 762.314970645 167.387170163 621.89085573 30.5500539397 506 -9 c 1xbc
 496 12 469 37 444 57 c 0
 353 127 287 232 287 342 c 1
 194 296 l 1
 194 40 l 1
 248 40 l 1
 248 0 l 1x7c
658.315380089 300.249603841 m 0
 658.315380089 411.142867197 593.016313709 487.139118452 540 555 c 0
 523 576 507 604 499 629 c 1
 430 571 398 524 398 390 c 0
 398 298 435 211 489 133 c 0
 509 104 525 78 532 49 c 1
 604.789249131 93.0566507899 658.315380089 189.398908051 658.315380089 300.249603841 c 0
EndSplineSet
Validated: 1
EndChar

StartChar: uniA656
Encoding: 42582 42582 110
Width: 777
Flags: W
HStem: 0 40<22 76 194 248 549 583 701 755> 446 122<284.803 379.544> 487 40<194 284.803 379.544 540> 636 40<22 76 194 248 529 583 701 755>
VStem: 76 118<40 487 527 636> 386 55<71.5392 181.321> 583 118<40 444 527 636>
AnchorPoint: "Yerok" 620 754 basechar 0
AnchorPoint: "Diacritic" 380 754 basechar 0
LayerCount: 2
Fore
SplineSet
322.278106509 250.641784251 m 0xbe
 322.278106509 286.101914291 344.310146141 309.507773772 371 318 c 1
 365 326 361 335 361 344 c 0
 361 377 371 408 402 428 c 0
 441 453 492 465 519 477 c 0
 527 481 534 484 540 487 c 1
 391 487 l 1xbe
 382 463 359 446 332 446 c 0xde
 305 446 282 463 274 487 c 1
 194 487 l 1
 194 40 l 1
 248 40 l 1
 248 0 l 1
 22 0 l 1
 22 40 l 1
 76 40 l 1
 76 636 l 1
 22 636 l 1
 22 676 l 1
 248 676 l 1
 248 636 l 1
 194 636 l 1
 194 527 l 1
 274 527 l 1xbe
 282 551 305 568 332 568 c 0xde
 359 568 382 551 391 527 c 1
 583 527 l 1
 583 636 l 1
 529 636 l 1
 529 676 l 1
 755 676 l 1
 755 636 l 1
 701 636 l 1
 701 40 l 1
 755 40 l 1
 755 0 l 1
 549 0 l 1
 549 40 l 1
 583 40 l 1
 583 444 l 1
 559 421 523 395 497 359 c 0
 482 339 477 319 474 295 c 1
 488.657672988 281.113783485 497.363895078 262.466406251 497.363895078 242.271768023 c 0
 497.363895078 203.922878305 469.546135703 179.851072569 441 173 c 1
 441 120 l 2
 441 94 461 63 500 42 c 0
 506.905109903 38.0542229125 511.377539052 27.7834758654 511.377539052 18.3868708429 c 0
 511.377539052 8.7320093193 506.655890874 -1.7763568394e-15 495 0 c 2
 332 0 l 2
 320.842308137 0 316.372315201 8.23101406305 316.372315201 17.3876577524 c 0
 316.372315201 26.285479417 320.593181555 36.0573424955 327 40 c 0
 367 66 386 93 386 120 c 2
 386 176 l 1
 348.769230769 187.846153846 322.278106509 216.159763314 322.278106509 250.641784251 c 0xbe
473 378 m 0
 493 402 517 423 535 436 c 1
 516 426 476 412 447 390 c 0
 433 379 430 372 424 352 c 0
 423 348 421 336 425 330 c 0
 426 328 440 322 442 323 c 0
 447 326 449 333 451 338 c 0
 457 354 460 363 473 378 c 0
EndSplineSet
Validated: 1
EndChar

StartChar: afii10065
Encoding: 1072 1072 111
Width: 407
Flags: W
HStem: -0.0762185 87.4673<88.6377 146.062> 417 20G<212 301.5>
VStem: 201 109<304.703 437> 255 108.041<0 99.6259>
AnchorPoint: "Yerok" 310 502 basechar 0
AnchorPoint: "Diacritic" 257 502 basechar 0
LayerCount: 2
Fore
SplineSet
297 437 m 2xe0
 306 437 310 428 310 419 c 0xe0
 310 386 313 285 324 199 c 0
 332 134 345 74 361 36 c 0
 362.402455544 33.1950889114 363.040935807 29.7256671575 363.040935807 26.0577186045 c 0
 363.040935807 14.0862542417 356.239578996 0 347 0 c 2
 273 0 l 2
 264 0 258 9 255 17 c 0xd0
 250 30 242 73 234 117 c 1
 201 69 169 33 133 14 c 0
 121.116010083 7.39778337949 97.027026161 -0.0762185271053 74.5467649665 -0.0762185271053 c 0
 62.9774599521 -0.0762185271053 51.8342367867 1.90332493077 43 7 c 0
 36.1379636268 11.3667504193 33.5566129979 24.6840255765 33.5566129979 37.4841012578 c 0
 33.5566129979 45.2028373166 34.4952859539 52.7335008386 36 58 c 0
 55 121 70 137 99 186 c 0
 122 225 145 243 168 283 c 0
 185 313 194 338 201 367 c 1
 200.5 377 200.25 386.5 200.25 395.25 c 0
 200.25 404 200.5 412 201 419 c 0
 201 427 208 437 216 437 c 2
 297 437 l 2xe0
114.295001733 97.4736824836 m 0
 114.295001733 90.9812858555 118.348597979 87.3911238298 124.222528099 87.3911238298 c 0
 139.469279109 87.3911238298 162.848023729 113.447607673 179 133 c 0
 198 156 212 178 222 201 c 1
 219 225 214 263 212 273 c 1
 193 236 174 210 148 170 c 0
 133.89942198 148.434410088 114.295001733 113.797194884 114.295001733 97.4736824836 c 0
EndSplineSet
Validated: 1
EndChar

StartChar: afii10066
Encoding: 1073 1073 112
Width: 442
Flags: W
HStem: 0 40<164.004 277.045> 402 40<173 262.945> 424.125 20G<349.805 357.773>
VStem: 59 108<40 51 51.0489 194 232 278.636> 70 98<173.364 194 232 400>
AnchorPoint: "Yerok" 328 502 basechar 0
AnchorPoint: "Diacritic" 217 502 basechar 0
LayerCount: 2
Fore
SplineSet
340 444 m 0xc8
 343.75 444 347.8125 444.125 351.796875 444.125 c 0xa8
 363.75 444.125 375 443 375 434 c 0
 375 426 372 414 368 407 c 0
 349 374 339 350 329 317 c 0
 326 308 320 298 313 298 c 0
 306 298 302 309 296 320 c 0
 280 351 264 385 250 402 c 1
 173 400 l 1
 171 380 170 306 168 232 c 1xc8
 189 239 221 252 249 256 c 0
 260 258 269 254 275 246 c 0
 299 216 316 188 337 150 c 0
 359 110 373 88 390 45 c 0
 391 41 392 37 392 33 c 0
 392 17 381 0 365 0 c 2
 84 0 l 2
 68 0 59 17 59 33 c 2xd0
 70 419 l 2
 70 429 79 437 89 437 c 2
 283 442 l 2
 296 442 322 444 340 444 c 0xc8
167 194 m 1x90
 165 118 164 51 164 51 c 2
 164 44 170 40 177 40 c 2
 272 40 l 2
 276 40 278 45 277 47 c 2
 277 47 261 87 247 110 c 0
 229 140 208 171 190 181 c 0
 182 186 173 191 167 194 c 1x90
EndSplineSet
Validated: 1
EndChar

StartChar: afii10067
Encoding: 1074 1074 113
Width: 416
Flags: W
HStem: 0 40<163 265.09> 397 40<176.766 247>
VStem: 64 99<40 161> 80 92<252 397>
DStem2: 172 252 212 245 0.461025 0.887387<12.2293 163.248> 381 19 265 49 0.360142 -0.932898<-238.197 -68.0806>
AnchorPoint: "Yerok" 308 502 basechar 0
AnchorPoint: "Diacritic" 207 502 basechar 0
LayerCount: 2
Fore
SplineSet
381 19 m 2xd0
 383 13 381 0 368 0 c 2
 81 0 l 2
 71 0 64 6 64 16 c 2xe0
 80 419 l 2
 81 432 90 437 98 437 c 2
 292 437 l 2
 303 437 306 427 301 417 c 2
 212 245 l 1
 281 245 l 2
 289 245 295 241 298 234 c 2
 381 19 l 2xd0
265 49 m 2
 204 206 l 1
 192 206 l 1
 168 161 l 1
 163 40 l 1
 260 40 l 2
 264 40 267 45 265 49 c 2
247 397 m 1
 189 397 l 2
 181 397 177 393 177 385 c 2
 172 252 l 1xd0
 247 397 l 1
EndSplineSet
Validated: 1
EndChar

StartChar: afii10068
Encoding: 1075 1075 114
Width: 379
Flags: W
HStem: 0 21G<72 157> 397 40<164 232.615>
VStem: 64 100<0 397>
AnchorPoint: "Yerok" 298 502 basechar 0
AnchorPoint: "Diacritic" 197 502 basechar 0
LayerCount: 2
Fore
SplineSet
341 407 m 0
 319 377 310 354 301 323 c 0
 298 314 295 302 282 302 c 0
 272 302 265 314 260 325 c 0
 245 356 233 380 220 397 c 1
 174 397 l 2
 168 397 164 390 164 384 c 2
 164 16 l 2
 164 8 161 0 153 0 c 2
 76 0 l 2
 68 0 64 8 64 16 c 2
 64 418 l 2
 64 426 67 437 75 437 c 2
 333 437 l 2
 347 437 349 418 341 407 c 0
EndSplineSet
Validated: 1
EndChar

StartChar: afii10069
Encoding: 1076 1076 115
Width: 473
Flags: W
HStem: 0 40<117.016 132.691 180 276>
VStem: 20.044 83.956<-144 14.7756> 72 32<-165.597 -82.7307> 127 53<40 100.45> 198 111.943<255.244 433.346> 359 31<-168.373 -104.792>
AnchorPoint: "Yerok" 258 502 basechar 0
AnchorPoint: "Diacritic" 257 502 basechar 0
LayerCount: 2
Fore
SplineSet
309.942972012 351.950729587 m 0xdc
 309.942972012 244.961912955 340.714302889 107.113065899 380 40 c 1
 446 40 l 2
 456.415750473 40 461.139236796 30.6245061057 461.139236796 19.8174964988 c 0
 461.139236796 11.9483508518 458.634819155 3.320207939 454 -3 c 0
 435 -28 424 -53 415 -78 c 0
 404 -108 397 -127 390 -152 c 0
 387.092038427 -162.662525768 380.425747738 -168.392244572 373.985687128 -168.392244572 c 0
 367.137964289 -168.392244572 360.546019213 -161.914172921 359 -148 c 0
 352 -89 358 -51 349 0 c 1
 120 0 l 1
 112 -47 104 -105 104 -144 c 0xdc
 104 -156.365208276 96.0257082959 -165.610041538 87.6306233924 -165.610041538 c 0
 81.7682223698 -165.610041538 75.7006250244 -161.101875073 72 -150 c 0xbc
 66 -132 62 -103 55 -78 c 0
 48 -53 37 -34 26 -10 c 0
 21.9592798315 -0.67526114971 20.0440225539 7.68335820473 20.0440225539 14.7755643301 c 0
 20.0440225539 30.500746142 29.4597910802 40 46 40 c 2
 127 40 l 1
 144.301504817 109.206019268 194.882722056 189.774269318 215 253 c 1
 208 301 206 341 203 392 c 0
 200 399 198 405 198 417 c 0
 198 426 206 437 215 436 c 0
 230.345651552 434.246211251 242.03882032 433.453602182 252.945206689 433.453602182 c 0
 266.913849029 433.453602182 279.591862803 434.753788749 297 437 c 0
 305 438 313 427 314 417 c 0
 315 406 315 399 311 388 c 0
 310.315142943 376.8140014 309.942972012 364.742058777 309.942972012 351.950729587 c 0xdc
276 40 m 1
 260 75 243 121 230 173 c 1
 208.60751216 142.69397556 185.591479509 82.868009569 180 40 c 1
 276 40 l 1
EndSplineSet
Validated: 1
EndChar

StartChar: afii10070
Encoding: 1077 1077 116
Width: 280
Flags: W
HStem: -2 124<72 216> 184 98<156.531 234.33> 352 89<168.148 239.864>
VStem: 47 90<95.4314 163.249 258 322.306>
AnchorPoint: "Yerok" 198 502 basechar 0
AnchorPoint: "Diacritic" 157 502 basechar 0
LayerCount: 2
Fore
SplineSet
226 441 m 0
 237 442 238 437 239 429 c 0
 240 419 241 406 241 392 c 0
 241 382 241 372 239 363 c 0
 238 355 237 353 227 352 c 0
 175.652765572 345.087872288 136.981196929 315.749566648 136.981196929 278.427251333 c 0
 136.981196929 277.95278133 136.987446816 277.477020995 137 277 c 1
 137 258 l 1
 163 266 189 280 217 282 c 0
 234 283 233 275 234 267 c 0
 235 261 235 251 235 241 c 0
 235 226 235 211 234 202 c 0
 233 190 233 187 221 184 c 0
 194 178 160 166 138 152 c 1
 139 126 140 104 141 95 c 1
 163 100 187 114 209 121 c 0
 212 122 214 122 216 122 c 0
 224 122 225 115 225 104 c 0
 225 101 225 98 225 94 c 0
 225 58 192 -2 72 -2 c 0
 59 -2 51 1 51 13 c 0
 52 42 53 67 53 91 c 0
 53 148 50 195 47 269 c 0
 47 272 47 274 47 277 c 0
 47 382 126 433 226 441 c 0
EndSplineSet
Validated: 1
EndChar

StartChar: afii10072
Encoding: 1078 1078 117
Width: 636
Flags: W
HStem: 0 21G<45.5 157.5 272.661 369.747 477.5 593.5> 345.926 92.1485<469.388 543.093> 382 55<158 177.763>
VStem: 39 107<6.58565 96.5464> 61.5243 96.1143<282.791 382> 71 91.0984<246 366.852> 261.328 116.032<0 233.408> 268 118<294.026 316.813 376 437> 478.002 121.998<7.26144 114.239>
AnchorPoint: "Yerok" 538 502 basechar 0
AnchorPoint: "Diacritic" 328 502 basechar 0
LayerCount: 2
Fore
SplineSet
377.359375 31.23046875 m 0xc280
 377.359375 17.0757607657 376.493531266 0 363 0 c 2
 280 0 l 2
 265.321928667 0 261.327659201 20.7142505531 261.327659201 45.719819291 c 0xc280
 261.327659201 74.4524211445 266.601339477 108.850900142 267 124 c 0
 268 165 268 202 268 239 c 1
 230 208 194 173 166 140 c 0
 152 123 146 107 146 87 c 0
 146 62.8859084421 167 36.9733493482 167 12 c 0
 167 2 162 0 153 0 c 2
 51 0 l 2
 40 0 39 6 39 18 c 0xd180
 39 41 44 71 55 88 c 0
 109 175 186 246 268 302 c 1
 268 308 l 1
 240 336 206 366 178 381 c 0
 173 383 165 382 158 382 c 1
 157.747724071 377.837447165 157.638645216 373.245303105 157.638645216 368.333950299 c 0xa980
 157.638645216 336.929925123 162.098379005 292.474919168 162.098379005 263.826033417 c 0
 162.098379005 261.434998387 162.067314435 259.154061929 162 257 c 0
 162 251 157 246 151 246 c 2
 89 246 l 2
 81 246 71 254 71 261 c 0xa480
 71.1547005384 267.342722074 71.237604307 274.020495739 71.237604307 280.933358006 c 0
 71.237604307 320.469939185 61.5243312387 366.539469174 61.5243312387 403.580894425 c 0
 61.5243312387 420.937298001 81.5302736719 437 99 437 c 2
 165 437 l 2
 174 437 184 438 189 436 c 0
 215 423 244 399 268 376 c 1
 271 424 l 2
 271 430 275 437 282 437 c 2
 377 437 l 2xa980
 384 437 390 429 390 423 c 0
 390.5 414.5 390.75 406 390.75 397.625 c 0
 390.75 389.25 390.5 381 390 373 c 1
 411 383 432 393 453 402 c 0
 490.849554241 418.367374807 515.510653511 438.074147196 551.636516297 438.074147196 c 0
 566.656082578 438.074147196 591.772557921 431.403656355 591.772557921 414.437767455 c 0
 591.772557921 411.314870365 590.921575082 407.843150163 589 404 c 0
 581 389 578 383 574 364 c 0
 570.567163368 345.691537965 575.968367114 308.405469679 555.139817131 308.405469679 c 0
 551.896551724 308.405469679 548.448275862 309 545 309 c 0
 533 309 516 329 503 337 c 0
 492.090909091 343.545454545 478.504132231 345.925619835 466.459053343 345.925619835 c 0
 456.421487603 345.925619835 447.454545455 344.272727273 442 342 c 0
 424 335 405 327 387 317 c 0
 386 313 386 310 386 306 c 0xc980
 465 259 535 197 572 127 c 0
 592 89 600 46 600 16 c 0
 600 4 597 0 590 0 c 2
 482 0 l 2
 473 0 470 3 470 14 c 0
 470 25 472 46 476 59 c 0
 477.384101608 63.4291251467 478.001908312 69.1609516318 478.001908312 75.5803140492 c 0
 478.001908312 92.3505873444 473.785437427 113.813226755 468 129 c 0
 456 161 428 200 378 235 c 1
 375.320550528 201.060306691 371.843384448 165.525180166 371.843384448 127.682139977 c 0
 371.843384448 123.154864262 371.893149824 118.594557571 372 114 c 0
 372 81.625 377.359375 60.734375 377.359375 31.23046875 c 0xc280
EndSplineSet
Validated: 1
EndChar

StartChar: afii10073
Encoding: 1079 1079 118
Width: 450
Flags: W
HStem: -137 53<219.45 322.73> -80.9684 62.2241<85.6299 168.912> 381.044 57.9558<172.881 291.232>
VStem: 38.4444 113<303.16 358.231> 327.025 72.9977<229.657 346.091> 330.655 79.3661<-64.0132 58.4543>
AnchorPoint: "Yerok" 338 502 basechar 0
AnchorPoint: "Diacritic" 217 502 basechar 0
LayerCount: 2
Fore
SplineSet
268 -84 m 0xf4
 302.831530034 -84 330.654768969 -75.3809762545 330.654768969 -32.4440095487 c 0xf4
 330.654768969 -17.2204860433 324.24578372 -6.13397813779 320 10 c 0
 316 24 318 35 313 48 c 0
 303 77 285 93 265 109 c 1
 238 92 212 76 189 62 c 0
 186 60 180 60 175 62 c 0
 146 76 123 92 102 120 c 0
 98.3651848889 125.192593016 96.6177813337 130.385186032 96.6177813337 135.577779048 c 0
 96.6177813337 140.385186032 98.1155558096 145.192593016 101 150 c 0
 124 190 148 207 182 227 c 0
 186 230 190 229 195 227 c 0
 219 219 243 208 266 195 c 1
 298.445969344 217.613857421 327.025121694 243.127827589 327.025121694 295.30377142 c 0
 327.025121694 339.617778336 280.952435209 381.04421995 232.992597247 381.04421995 c 0
 200.067739399 381.04421995 168.557286311 365.144086867 154 337 c 0
 152 333 151.444444444 329.333333333 151.444444444 325.777777778 c 0
 151.444444444 321.333333333 152.3125 317.0625 152.3125 312.53125 c 0
 152.3125 294.864193555 143.918779904 284.758563653 125.577118663 284.758563653 c 0
 105.491122275 284.758563653 71.5580611373 293.879281827 50 303 c 0
 42 306.333333333 38.4444444444 315 38.4444444444 323.962962963 c 0
 38.4444444444 328.444444444 39.3333333333 333 41 337 c 0
 71 418 137 439 217 439 c 0
 302.483660931 439 400.022804381 411.40475413 400.022804381 298.222848645 c 0xf8
 400.022804381 238.570578096 368.345160705 192.421304809 326 155 c 1
 375.302719387 112.599661327 410.020889941 58.5316835865 410.020889941 0.466017910186 c 0
 410.020889941 -78.5828368891 322.979730273 -137 234 -137 c 4
 195 -137 179 -131 147 -113 c 0
 129.381223687 -103.211790937 114.636718474 -80.9684071088 94.3262944317 -80.9684071088 c 0
 76.1430890372 -80.9684071088 68.3329340483 -93.8789330734 46 -102 c 0
 45.4521630117 -102.205438871 44.8574314349 -102.303020188 44.2283294325 -102.303020188 c 0
 37.720591624 -102.303020188 27.5349287973 -91.860997418 27.5349287973 -82.3522034431 c 0
 27.5349287973 -79.357040947 28.5455285752 -76.4544714248 31 -74 c 0
 63 -43 106 -23 142 -19 c 0
 143.620689655 -18.8275862069 145.219976219 -18.744351962 146.799458772 -18.744351962 c 0
 191.024970273 -18.744351962 219.724137931 -84 268 -84 c 0xf4
EndSplineSet
Validated: 1
EndChar

StartChar: afii10074
Encoding: 1080 1080 119
Width: 453
Flags: W
HStem: 0 21G<71 150 297 384.585> 417 20G<78.5 162.269 296.5 380.269>
VStem: 58.4384 101.668<0 196 242 358.41> 70 105.076<244.836 437> 282.625 104.494<26.5528 253 298 437> 286 111.345<0 223.056>
DStem2: 164 242 162 196 0.904649 0.426157<0 112.341>
AnchorPoint: "Yerok" 318 502 basechar 0
AnchorPoint: "Diacritic" 227 502 basechar 0
LayerCount: 2
Fore
SplineSet
160.106609072 107.041703193 m 0xe8
 160.106609072 73.7919952478 163.483696145 54.7911427109 163.483696145 26.2695232204 c 0
 163.483696145 12.9603428453 160.995725844 -1.7763568394e-15 150 0 c 2
 75 0 l 2
 67 0 60 9 60 16 c 0
 58.9106694182 37.7866116352 58.438392217 63.9875282233 58.438392217 92.8240709906 c 0xe8
 58.438392217 196.346534984 64.5250628145 333.836737264 70 423 c 0
 70 429 75 437 82 437 c 2
 158 437 l 2
 166.538149682 437 175.076299365 427.1 175.076299365 415.838149682 c 0
 175.076299365 365.187848574 167.023441314 302.468826282 164 242 c 1
 283 298 l 1
 284 344 286 388 288 424 c 0
 288 430 293 437 300 437 c 2
 376 437 l 2
 384.538149682 437 393.076299365 427.1 393.076299365 415.838149682 c 0
 393.076299365 415.228967443 393.051316702 414.615800423 393 414 c 0
 389.117749006 359.648486085 387.11948211 291.402589452 387.11948211 226.290447148 c 0xd8
 387.11948211 157.228591107 389.367532368 91.6922086867 394 50 c 0
 394.642079918 42.2950409838 397.345492942 34.1778153465 397.345492942 26.1777393246 c 0
 397.345492942 15.7293288022 389.169090801 0 380 0 c 2
 301 0 l 2
 293 0 286 9 286 16 c 0xc4
 283.75 59.5 282.625 121.5625 282.625 187 c 0
 282.625 208.8125 282.75 231 283 253 c 1
 162 196 l 1
 160.902832459 164.182141319 160.106609072 133.869003404 160.106609072 107.041703193 c 0xe8
EndSplineSet
Validated: 1
EndChar

StartChar: afii10075
Encoding: 1081 1081 120
Width: 453
Flags: W
HStem: 0 21G<71 150 297 384.585> 417 20G<78.5 162.269 296.5 380.269> 475.991 84.8424<200.141 271.442>
VStem: 58.4384 101.668<0 196 242 358.41> 70 105.076<244.836 437> 129.355 63.7191<565.764 670.304> 282.625 104.494<26.5528 253 298 437> 286 111.345<0 223.056> 293.538 54.953<582.215 695.973>
DStem2: 164 242 162 196 0.904649 0.426157<0 112.341>
AnchorPoint: "Yerok" 249 772 basechar 0
AnchorPoint: "Diacritic" 247 772 basechar 0
LayerCount: 2
Fore
SplineSet
160.106609072 107.041703193 m 0xf2
 160.106609072 73.7919952478 163.483696145 54.7911427109 163.483696145 26.2695232204 c 0
 163.483696145 12.9603428453 160.995725844 -1.7763568394e-15 150 0 c 2
 75 0 l 2
 67 0 60 9 60 16 c 0
 58.9106694182 37.7866116352 58.438392217 63.9875282233 58.438392217 92.8240709906 c 0xf2
 58.438392217 196.346534984 64.5250628145 333.836737264 70 423 c 0
 70 429 75 437 82 437 c 2
 158 437 l 2
 166.538149682 437 175.076299365 427.1 175.076299365 415.838149682 c 0
 175.076299365 365.187848574 167.023441314 302.468826282 164 242 c 1
 283 298 l 1
 284 344 286 388 288 424 c 0
 288 430 293 437 300 437 c 2
 376 437 l 2
 384.538149682 437 393.076299365 427.1 393.076299365 415.838149682 c 0
 393.076299365 415.228967443 393.051316702 414.615800423 393 414 c 0
 389.117749006 359.648486085 387.11948211 291.402589452 387.11948211 226.290447148 c 0xea
 387.11948211 157.228591107 389.367532368 91.6922086867 394 50 c 0
 394.642079918 42.2950409838 397.345492942 34.1778153465 397.345492942 26.1777393246 c 0
 397.345492942 15.7293288022 389.169090801 0 380 0 c 2
 301 0 l 2
 293 0 286 9 286 16 c 0xe1
 283.75 59.5 282.625 121.5625 282.625 187 c 0
 282.625 208.8125 282.75 231 283 253 c 1
 162 196 l 1
 160.902832459 164.182141319 160.106609072 133.869003404 160.106609072 107.041703193 c 0xf2
293.538165062 653.177261973 m 0xe480
 293.538165062 659.097978075 292.678966922 664.3775759 292.678966922 669.95277296 c 0
 292.678966922 689.417361851 303.762862253 698.384470188 315.93822256 698.384470188 c 0
 329.749996635 698.384470188 344.966346219 686.84495126 347 666 c 0
 347.991158444 655.2954888 348.491119358 644.836576366 348.491119358 634.680711537 c 0
 348.491119358 542.983170299 307.732673993 475.991058946 219.765272532 475.991058946 c 0
 155.830466992 475.991058946 129.354688515 525.279254986 129.354688515 581.263643808 c 0
 129.354688515 616.90431901 140.180663033 654.98685551 159 684 c 0
 165.513652513 694.345212815 176.284752787 699.405318065 186.025746423 699.405318065 c 0
 197.484932116 699.405318065 207.518565424 692.4026983 207.518565424 678.763760084 c 0
 207.518565424 673.737624001 206.155974201 667.810260118 203 661 c 0
 196.294564468 646.583313606 193.073751026 630.930148406 193.073751026 616.377095278 c 0
 193.073751026 586.082492377 206.30937277 560.833412545 233.118285349 560.833412545 c 0
 275.692633564 560.833412545 293.538165062 615.476751113 293.538165062 653.177261973 c 0xe480
EndSplineSet
Validated: 1
LCarets2: 1 0
Ligature2: "'ccmp' Precomposed Glyphs for Cyrillic-1" afii10074 uni0306
EndChar

StartChar: afii10076
Encoding: 1082 1082 121
Width: 442
Flags: W
HStem: 0 21G<73 159.585 303 390> 360 81.142<301.821 389.667>
VStem: 60.2939 105.654<0 370.848> 70 111.076<146.497 437> 219.883 47.9637<215.167 300.367> 289 108<0 47.1429>
DStem2: 225 256 271 266 0.347314 0.937749<2.64172 130.7>
AnchorPoint: "Yerok" 358 502 basechar 0
AnchorPoint: "Diacritic" 237 502 basechar 0
LayerCount: 2
Fore
SplineSet
172.345492942 26.1777393246 m 0xec
 172.345492942 15.7293288022 164.169090801 0 155 0 c 2
 77 0 l 2
 69 0 62 9 62 16 c 0
 60.803151699 39.9369660206 60.2938774087 69.2599284587 60.2938774087 101.582414133 c 0xec
 60.2938774087 204.291601422 65.4362179612 337.288141264 70 424 c 0
 70 430 75 437 82 437 c 2
 164 437 l 2
 172.538149682 437 181.076299365 427.1 181.076299365 415.838149682 c 0xdc
 181.076299365 330.012011003 165.948350887 210.351683962 165.948350887 121.758598073 c 0
 165.948350887 94.03227446 166.841391565 69.4274759112 169 50 c 0
 169.642079918 42.2950409838 172.345492942 34.1778153465 172.345492942 26.1777393246 c 0xec
225 256 m 2
 275 391 l 2
 280.029255354 403.070212849 314.459997782 441.142033689 370.250889644 441.142033689 c 0
 387.380596695 441.142033689 403.369311953 436.33809621 407 420 c 0
 408.398671724 413.006641378 409.111111115 406.097396265 409.111111115 399.517004802 c 0
 409.111111115 373.110708364 397.638574519 352 373 352 c 0
 356 352 341 360 321 360 c 0
 311 360 303 351 300 342 c 2
 271 266 l 2
 269.03859522 260.508066615 267.846612182 251.476793215 267.846612182 242.528133761 c 0
 267.846612182 228.664930146 270.707371473 215 278 215 c 2
 332 215 l 2
 342 215 346 204 348 198 c 2
 397 22 l 2
 400 12 395 0 385 0 c 2
 309 0 l 2
 297 0 292 11 289 23 c 2
 259 164 l 2
 256 178 246 185 237 194 c 0
 225.869306419 205.130693581 219.882931437 216.690080379 219.882931437 230.923644081 c 0
 219.882931437 238.429119475 221.547466813 246.678160394 225 256 c 2
EndSplineSet
Validated: 1
EndChar

StartChar: afii10077
Encoding: 1083 1083 122
Width: 418
Flags: W
HStem: 0 21G<39.5 137.5 281 374.822> 417 20G<204 291>
VStem: 26 113.864<10.5 79.1735>
AnchorPoint: "Yerok" 318 502 basechar 0
AnchorPoint: "Diacritic" 247 502 basechar 0
LayerCount: 2
Fore
SplineSet
286 437 m 2
 296 437 305 429 306 420 c 0
 320 308 344 154 380 29 c 0
 380.915475947 25.9484135086 381.45846469 22.0587308069 381.45846469 18.1266257401 c 0
 381.45846469 9.17328555441 378.643254859 1.7763568394e-15 371 0 c 2
 288 0 l 2
 274 0 268 17 266 30 c 0
 255 118 241 193 227 263 c 1
 203.844680484 207.427233161 171.415821556 169.173225267 148 120 c 0
 141.449593469 105.708203932 139.863728757 88.9341369555 139.863728757 74.7458147295 c 0
 139.863728757 65.1078990343 140.595491503 56.6631189606 141 51 c 0
 142 40 149 34 149 22 c 0
 149 11 143 0 132 0 c 2
 45 0 l 2
 34 0 26 11 26 21 c 0
 27 51 58 100 90 141 c 0
 134.749439896 199.309876228 192.440014516 248.500060484 212 330 c 1
 203 366 l 2
 201 376 190 387 190 402 c 0
 190 417 194 437 214 437 c 2
 286 437 l 2
EndSplineSet
Validated: 1
EndChar

StartChar: afii10078
Encoding: 1084 1084 123
Width: 685
Flags: W
HStem: 0 21G<44.5 154.5 296 391.822 544 637> 417 20G<212 303 467.519 543>
VStem: 35 116.25<10.7542 106.547> 198 120<364.749 436.871>
DStem2: 366 150 384 78 0.363208 0.931708<0 177.893>
AnchorPoint: "Yerok" 538 502 basechar 0
AnchorPoint: "Diacritic" 387 502 basechar 0
LayerCount: 2
Fore
SplineSet
397 29 m 0
 397.915475947 25.9484135086 398.45846469 22.0587308069 398.45846469 18.1266257401 c 0
 398.45846469 9.17328555441 395.643254859 1.7763568394e-15 388 0 c 2
 303 0 l 2
 289 0 283 17 281 30 c 0
 266 154 252 211 229 293 c 1
 225 279 219 265 211 247 c 0
 188 196 171 166 157 117 c 0
 153 104 151.25 90.75 151.25 78.25 c 0
 151.25 65.75 153 54 156 44 c 0
 159 33 168 32 168 21 c 0
 168 10 160 0 149 0 c 2
 50 0 l 2
 39 0 35 15 35 26 c 0
 35 69 47 97 73 130 c 0
 116 184 141 205 174 266 c 0
 193 301 201 332 207 364 c 1
 202 380 198 395 198 402 c 0
 198 417 202 437 222 437 c 2
 298 437 l 2
 308 437 317 429 318 420 c 0
 327 342 344 244 366 150 c 1
 458 386 l 1
 457 392 456 399 456 405 c 0
 455.848083783 406.519162174 455.742324639 408.315266792 455.742324639 410.269109718 c 0
 455.742324639 421.176585747 459.038324347 437 476 437 c 2
 538 437 l 2
 548 437 557 429 558 420 c 0
 569 309 601 150 646 29 c 0
 646.915475947 26.2535721577 647.45846469 22.4828045029 647.45846469 18.5686216497 c 0
 647.45846469 9.65609005727 644.643254859 -3.5527136788e-15 637 0 c 2
 551 0 l 2
 537 0 534 12 530 26 c 0
 508 108 486 209 471 300 c 1
 384 78 l 1
 388 61 392 45 397 29 c 0
EndSplineSet
Validated: 1
EndChar

StartChar: afii10079
Encoding: 1085 1085 124
Width: 458
Flags: W
HStem: 0 21G<77 155 303 383.585> 417 20G<79.5 162.269 302.5 382.269>
VStem: 63.5171 101.483<0 239 284 409.421> 71 104.076<286.187 437> 294 101.076<0 183 231.328 437>
DStem2: 168 284 166 239 0.90752 -0.420009<17.0854 131.515>
AnchorPoint: "Yerok" 338 502 basechar 0
AnchorPoint: "Diacritic" 237 502 basechar 0
LayerCount: 2
Fore
SplineSet
396.345492942 26.1777393246 m 0xd8
 396.345492942 15.7293288022 388.169090801 0 379 0 c 2
 307 0 l 2
 299 0 293 9 292 16 c 0
 288 59 287 119 287 183 c 1
 166 239 l 1
 165.333333333 214.666666667 165 190.555555556 165 167.555555556 c 0
 165 121.555555556 166.333333333 80 169 50 c 0
 169.501253907 43.9849531205 170.521154432 35.4341619294 170.521154432 27.1012325815 c 0
 170.521154432 13.2496234 167.703012412 -1.7763568394e-15 155 0 c 2
 81 0 l 2
 73 0 66 9 66 16 c 0
 64.2915619759 50.1687604822 63.5171273061 95.1953099584 63.5171273061 144.258087165 c 0xe8
 63.5171273061 238.784882757 66.3918132338 348.294074555 71 424 c 0
 71 430 76 437 83 437 c 2
 158 437 l 2
 166.538149682 437 175.076299365 427.1 175.076299365 415.838149682 c 0
 175.076299365 376.061064201 169.014630847 330.673018945 168 284 c 1
 287 228 l 1
 288 299 290 370 294 424 c 0
 294 430 299 437 306 437 c 2
 378 437 l 2
 386.538149682 437 395.076299365 427.1 395.076299365 415.838149682 c 0
 395.076299365 415.228967443 395.051316702 414.615800423 395 414 c 0
 391.09793033 351.566885278 389.06028691 270.800245762 389.06028691 197.509439723 c 0
 389.06028691 139.322418443 390.344631146 85.8474795315 393 50 c 0
 393.642079918 42.2950409838 396.345492942 34.1778153465 396.345492942 26.1777393246 c 0xd8
EndSplineSet
Validated: 1
EndChar

StartChar: afii10080
Encoding: 1086 1086 125
Width: 442
Flags: W
HStem: -7 21G<211 272> 422 20G<167 247.863>
VStem: 26.8165 71.0347<201.744 298.362> 341.741 71.0956<132.462 243.511>
AnchorPoint: "Yerok" 358 502 basechar 0
AnchorPoint: "Diacritic" 227 512 basechar 0
LayerCount: 2
Fore
SplineSet
194 442 m 1
 301.726919532 430.030342274 412.837047129 356.608962897 412.837047129 224.256730171 c 0
 412.837047129 187.55617936 403.781362067 150.672043101 384 121 c 0
 343 60 296 16 248 -7 c 1
 174 6 117 31 69 93 c 0
 41.1838060314 129.375022882 26.816506443 168.897659342 26.816506443 209.8841665 c 0
 26.816506443 245.51843552 37.6764867403 282.25921776 60 319 c 0
 94 376 140 412 194 442 c 1
271.278711324 92.9180549402 m 0
 312.939660542 92.9180549402 341.741432715 131.811660981 341.741432715 171.760508069 c 0
 341.741432715 211.110593736 319.325759957 254.383782172 289 286 c 0
 257.455539374 318.8867781 212.39745725 346.818561651 172.267650066 346.818561651 c 0
 152.60563009 346.818561651 134.12669811 340.1132219 119 324 c 0
 104.088133251 308.094008801 97.8511987613 289.552595143 97.8511987613 270.122384295 c 0
 97.8511987613 230.917448861 123.243241566 188.094008801 154 156 c 0
 185.833062204 122.782891614 231.554107219 92.9180549402 271.278711324 92.9180549402 c 0
EndSplineSet
Validated: 1
EndChar

StartChar: afii10081
Encoding: 1087 1087 126
Width: 461
Flags: W
HStem: 0 21G<76 160.352 311 391.585> 397 40<172 298>
VStem: 63.1549 101.187<0 376.509> 73 99<165.296 397> 294.06 102.058<51.9888 397> 298 103.076<0 224.808 231.139 397>
AnchorPoint: "Yerok" 348 502 basechar 0
AnchorPoint: "Diacritic" 237 502 basechar 0
LayerCount: 2
Fore
SplineSet
404.345492942 26.1777393246 m 0xc8
 404.345492942 15.7293288022 396.169090801 0 387 0 c 2
 315 0 l 2
 307 0 301 9 300 16 c 0
 296.09793033 67.8417827601 294.06028691 144.231844482 294.06028691 221.785867269 c 0xc8
 294.06028691 283.357540691 295.344631146 345.662868819 298 397 c 1
 172 397 l 1xd4
 167.57052447 326.128391524 164.342288949 237.238182923 164.342288949 161.747804653 c 0
 164.342288949 117.939036931 165.42947553 78.6429869541 168 50 c 0
 168.481080726 44.2270312831 169.507235393 35.7020359698 169.507235393 27.3199434506 c 0
 169.507235393 13.4647486744 166.703524719 0 154 0 c 2
 80 0 l 2
 72 0 65 9 65 16 c 0
 63.7130748866 41.7385022682 63.1548673221 73.6379801773 63.1548673221 108.782712994 c 0xe0
 63.1548673221 210.183348863 67.8016951588 338.599277608 73 424 c 0
 73 430 78 437 85 437 c 2
 384 437 l 2
 392.538149682 437 401.076299365 427.1 401.076299365 415.838149682 c 0xd4
 401.076299365 361.199688343 396.117809657 293.446893893 396.117809657 228.073402649 c 0
 396.117809657 158.357827882 397.885122951 92.0508401562 401 50 c 0
 401.642079918 42.2950409838 404.345492942 34.1778153465 404.345492942 26.1777393246 c 0xc8
EndSplineSet
Validated: 1
EndChar

StartChar: afii10082
Encoding: 1088 1088 127
Width: 352
Flags: W
HStem: -4 78<126 191.094> 344.17 95.6086<150.598 241.341>
VStem: 39 64<76.2191 294.559> 63 88.5361<-364.305 -27.0138> 250 61.5477<128.437 343.213>
AnchorPoint: "Yerok" 268 502 basechar 0
AnchorPoint: "Diacritic" 187 502 basechar 0
LayerCount: 2
Fore
SplineSet
126 -4 m 1xe8
 136.213176095 -62.2151037388 151.536061063 -146.86466988 151.536061063 -248.052551571 c 0
 151.536061063 -322.698735541 132.304714485 -386.809382588 84 -426 c 0
 80.1659021246 -429.012505474 75.4317854827 -430.374976542 70.6397998462 -430.374976542 c 0
 58.8749211073 -430.374976542 46.7612316407 -422.162555933 46.7612316407 -409.993202586 c 0
 46.7612316407 -351.533857711 63 -300.241659873 63 -230 c 0xd8
 63 -67 39 25 39 188 c 0
 39 334.401970435 105.97980296 439.778811557 226.149756351 439.778811557 c 0
 253.034537061 439.778811557 282.162239142 437.351043433 288 414 c 0
 296 377 307 284 311 217 c 0
 311.36591869 211.511219648 311.54772971 205.729540729 311.54772971 199.732283836 c 0
 311.54772971 140.171185231 293.615252116 59.3470894965 260 33 c 0
 234 12 188 -4 126 -4 c 1xe8
112 74 m 1
 242 90 250 151 250 236 c 0
 250 277 243 323 237 344 c 1
 233.773031164 344.11256868 230.599565095 344.170226627 227.480130101 344.170226627 c 0
 147.465384671 344.170226627 103 306.234592533 103 184 c 0xe8
 103 143 107 108 112 74 c 1
EndSplineSet
Validated: 1
EndChar

StartChar: afii10083
Encoding: 1089 1089 128
Width: 281
Flags: W
HStem: -2 21G<71.5 133.5> 344 97<180.227 235.865>
VStem: 44 92.9785<117 252.922 253 303.325>
AnchorPoint: "Yerok" 198 502 basechar 0
AnchorPoint: "Diacritic" 137 502 basechar 0
LayerCount: 2
Fore
SplineSet
219 441 m 0
 230 442 234 440 235 430 c 0
 236 421 237 405 237 389 c 0
 237 384 237 379 237 373 c 0
 237 359 236 346 226 344 c 0
 170.802133786 329.214857264 136.978533376 294.998563798 136.978533376 254.758095331 c 0
 136.978533376 254.173322014 136.985676182 253.587276522 137 253 c 2
 137 253 137 146 140 117 c 1
 162 122 201 139 221 145 c 0
 222 145 224 146 225 146 c 0
 234 146 236 130 236 106 c 0
 236 72 189 -2 78 -2 c 0
 65 -2 47 11 47 23 c 0
 47 40 47 55 47 69 c 0
 47 138 44 182 44 269 c 0
 45 380 110 432 219 441 c 0
EndSplineSet
Validated: 1
EndChar

StartChar: afii10084
Encoding: 1090 1090 129
Width: 632
Flags: W
HStem: 0 21G<292 389> 397 40<148 282 397 501.615>
VStem: 52 96<197.052 396.802> 282 115<0 397>
AnchorPoint: "Yerok" 538 502 basechar 0
AnchorPoint: "Diacritic" 344 502 basechar 0
LayerCount: 2
Fore
SplineSet
42 407 m 0
 40.1296665193 411.488800354 38.9589625043 416.817156067 38.9589625043 421.728868341 c 0
 38.9589625043 429.947734984 42.2369337461 437 51 437 c 2
 595 437 l 2
 603.366718471 437 606.376142709 430.571246922 606.376142709 422.836366205 c 0
 606.376142709 417.628498769 605.011886261 411.828527025 603 407 c 0
 590 377 582 349 573 323 c 0
 570 314 564 302 551 302 c 0
 541 302 534 314 529 325 c 0
 514 356 502 380 489 397 c 1
 407 397 l 2
 401 397 397 390 397 384 c 2
 397 16 l 2
 397 8 393 0 385 0 c 2
 296 0 l 2
 288 0 282 8 282 16 c 2
 282 384 l 2
 282 390 278 397 272 397 c 2
 157 397 l 2
 152 397 148 392 148 387 c 2
 148 210 l 2
 148 206 146 198 142 197 c 0
 103 185 82 170 63 160 c 0
 58 157 52 165 52 171 c 2
 52 368 l 2
 52 384 49 389 42 407 c 0
EndSplineSet
Validated: 1
EndChar

StartChar: uniA64B
Encoding: 42571 42571 130
Width: 381
Flags: W
HStem: 0 60<134.566 228.108>
VStem: 16 102<408.883 545.142> 51 66<77.8229 182.657> 248 91.0442<79.428 184.416>
DStem2: 132 262 142 186 0.655828 0.75491<-108.737 0 98.563 276.155>
AnchorPoint: "Yerok" 116 712 basechar 0
AnchorPoint: "Diacritic" 117 712 basechar 0
LayerCount: 2
Fore
SplineSet
242 297 m 1xd0
 261 282 279 265 293 250 c 0
 323.086652365 218.942810462 339.044168665 186.001736116 339.044168665 136.54973507 c 0
 339.044168665 53.1523699254 269.22379741 0 187 0 c 0
 115 0 51 48 51 124 c 0xb0
 51 158 62 190 81 209 c 0
 98 226 115 244 132 262 c 1
 60 324 16 398 16 506 c 0
 16 520 46 565 89 588 c 0
 93.970106474 590.631232839 99.3675824699 591.809409304 104.567700921 591.809409304 c 0
 116.891528383 591.809409304 130.054869684 584.757422893 130.054869684 573.879591526 c 0
 130.054869684 563.152263374 118 526.666666667 118 518 c 0
 118 438 143 381 197 333 c 1
 211 349 224 365 237 380 c 0
 296 449 327 542 339 712 c 1
 307 690 293 667 263 645 c 0
 261.318853666 643.777348121 259.123843152 643.232062662 256.639863067 643.232062662 c 0
 244.597360797 643.232062662 225.762988489 656.048318577 225.762988489 666.630497598 c 0
 225.762988489 668.147707904 226.150150298 669.618994234 227 671 c 0
 262 723 302 760 338 796 c 0
 342.15500122 800.15500122 352.514265068 801.882247499 362.633111847 801.882247499 c 0
 371.996996828 801.882247499 381.15500122 800.403124237 385 798 c 0
 391 794 395 774 395 752 c 0
 395 559 354 439 281 346 c 0
 268 330 255 314 242 297 c 1xd0
179 225 m 1
 167 212 154 198 142 186 c 0
 128 172 117 151 117 130 c 0
 117 92 140 60 191 60 c 0
 217 60 248 96 248 132 c 0
 248 157 239 172 225 186 c 0
 213 199 198 211 179 225 c 1
EndSplineSet
Validated: 1
EndChar

StartChar: afii10086
Encoding: 1092 1092 131
Width: 611
Flags: W
HStem: -3 56<129.5 266.153>
VStem: 28 101<96.5477 229.161> 264 95<115.348 367> 267 78<-229.394 12 59.6419 296.706> 273 56<-350.692 -103.048> 488.017 94.9833<105.07 230.133>
AnchorPoint: "Yerok" 498 502 basechar 0
AnchorPoint: "Diacritic" 327 772 basechar 0
LayerCount: 2
Fore
SplineSet
375 622 m 0xd4
 370 567 367 512 364 457 c 1
 381 416 397 395 435 361 c 0
 511 291 583 247 583 146 c 0
 583 66 525 -3 435 -3 c 0
 402 -3 370 4 345 14 c 1xd4
 341 -93 336 -204 329 -322 c 0
 327.974392602 -341.486540562 313.537435885 -351.769213944 299.578759702 -351.769213944 c 0
 286.317124859 -351.769213944 273.487196301 -342.48785204 273 -323 c 0xcc
 270 -203 268 -92 267 12 c 1
 241 1 208 -3 170 -3 c 0
 89 -3 28 70 28 152 c 0
 28 250 108 287 181 354 c 0
 217 387 242 408 262 444 c 1
 261 494 259 543 257 592 c 0
 256 605 248 617 235 620 c 0
 225.513470457 622.232124598 220.075124845 635.051807169 220.075124845 646.295132999 c 0
 220.075124845 655.200011867 223.486529543 663.116062299 231 664 c 0
 287 669 337 675 399 696 c 0
 399.95037099 696.339418211 400.896133791 696.499117056 401.829467888 696.499117056 c 0
 410.649690948 696.499117056 418.359945255 682.236912924 418.359945255 670.609235682 c 0
 418.359945255 665.342016813 416.777803122 660.615402162 413 658 c 0
 398 648 377 641 375 622 c 0xd4
267 56 m 1
 266 165 266 268 264 367 c 1xe4
 253 354 240 341 223 327 c 0
 162 276 129 238 129 164 c 0
 129 105 173 53 233 53 c 0
 246 53 257 54 267 56 c 1
359 375 m 1
 354 272 351 168 347 60 c 1
 356 59 366 59 378 61 c 0
 444.253522549 69.8997269096 488.016696969 107.156849287 488.016696969 168.903580534 c 0
 488.016696969 241.375670397 459.230545319 277.79460508 404 327 c 0
 385 344 371 358 359 375 c 1
EndSplineSet
Validated: 1
EndChar

StartChar: afii10087
Encoding: 1093 1093 132
Width: 480
Flags: W
HStem: 339 103.233<329.562 403.547>
DStem2: 228 222 50 417 0.338072 -0.94112<-236.243 0 70.2277 135.558 203.565 550.246> 178 60 201 -4 0.299897 0.953972<-486.302 -54.1565 169.538 309.411>
AnchorPoint: "Yerok" 378 502 basechar 0
AnchorPoint: "Diacritic" 227 502 basechar 0
LayerCount: 2
Fore
SplineSet
415.08 330.982 m 0
 415.08 316.019612247 410.482963123 314.972243807 398.469078525 314.972243807 c 0
 396.51332705 314.972243807 394.361022528 315 392 315 c 0
 377 315 362 339 337 339 c 0
 316 339 302 316 296 296 c 2
 252 156 l 1
 417 -302 l 2
 417.574604646 -303.436511614 417.839674449 -304.893658885 417.839674449 -306.335869779 c 0
 417.839674449 -314.933333333 408.419837224 -323 399 -323 c 2
 331 -323 l 2
 320 -323 313 -313 309 -303 c 2
 201 -4 l 1
 75 -407 l 2
 69.8626167791 -423.202516312 60.8209870555 -430.347180738 52.6272216182 -430.347180738 c 0
 43.2310249987 -430.347180738 34.9497991433 -420.951700726 34.9497991433 -405.04585639 c 0
 34.9497991433 -399.723494158 35.8770346013 -393.672176967 38 -387 c 2
 178 60 l 1
 50 417 l 2
 47 426 57 437 67 437 c 2
 134 437 l 2
 144 437 155 428 158 419 c 2
 228 222 l 1
 256 309 l 2
 275.886080833 373.629762709 318.774174331 442.232623002 401.645528175 442.232623002 c 0
 423.596550973 442.232623002 446.026964906 431.86085633 446.026964906 414.073426867 c 0
 446.026964906 404.417102717 426.352974657 389.95807407 419 370 c 0
 415.5 360.5 415 349.75 415 340.75 c 0
 415 337.15 415.08 333.83 415.08 330.982 c 0
EndSplineSet
Validated: 1
EndChar

StartChar: afii10088
Encoding: 1094 1094 133
Width: 499
Flags: W
HStem: 0 40<166 286> 417 20G<83.5 165.269 301.5 383.269>
VStem: 63.4384 99.8416<40 358.41> 75 103.076<154.096 437> 284.98 103.51<40.1413 392.054> 293 103.076<195.551 437> 378 39<-377.13 -213.524>
AnchorPoint: "Yerok" 358 502 basechar 0
AnchorPoint: "Diacritic" 237 502 basechar 0
LayerCount: 2
Fore
SplineSet
356 0 m 2xc2
 80 0 l 2
 72 0 65 9 65 16 c 0
 63.9106694182 37.7866116352 63.438392217 63.9875282233 63.438392217 92.8240709906 c 0xe2
 63.438392217 196.346534984 69.5250628145 333.836737264 75 423 c 0
 75 429 80 437 87 437 c 2
 161 437 l 2
 169.538149682 437 178.076299365 427.1 178.076299365 415.838149682 c 0xd0
 178.076299365 325.598816802 163.28 197.73582071 163.28 107.696 c 0
 163.28 85.36 163.8 65.4 165 49 c 0
 165 46 166 43 166 40 c 1
 286 40 l 1
 285.298571137 64.5500102082 284.979810846 92.8720391997 284.979810846 123.20221841 c 0xe8
 284.979810846 222.593729336 288.402857726 343.550010208 293 424 c 0
 293 430 298 437 305 437 c 2
 379 437 l 2
 387.538149682 437 396.076299365 427.1 396.076299365 415.838149682 c 0xc4
 396.076299365 351.064945502 388.489795918 267.523022271 388.489795918 192.005830904 c 0xc8
 388.489795918 135.959183673 390.142857143 84.7142857143 394 50 c 0
 394 47 395 43 396 40 c 1
 458 40 l 2
 475.674953358 40 479.485824932 25.6737821556 479.485824932 13.9861386986 c 0
 479.485824932 8.48116366772 478.640388203 3.56155281281 478 1 c 0
 449 -134 429 -232 417 -356 c 0
 415.948773546 -369.14033068 405.22812283 -377.307814597 395.293223995 -377.307814597 c 0
 386.326583978 -377.307814597 378 -370.654763503 378 -355 c 2
 378 -43 l 2
 378 -24 369 0 356 0 c 2xc2
EndSplineSet
Validated: 1
EndChar

StartChar: afii10089
Encoding: 1095 1095 134
Width: 401
Flags: W
HStem: 0 21G<247 333.585> 253.234 49.7664<179.315 234> 417 20G<42.5 135 248.5 330.269>
VStem: 34.5361 106.464<346.779 437> 233.402 103.218<26.5528 254 303 437>
AnchorPoint: "Yerok" 318 502 basechar 0
AnchorPoint: "Diacritic" 197 502 basechar 0
LayerCount: 2
Fore
SplineSet
346.345492942 26.1777393246 m 0
 346.345492942 15.7293288022 338.169090801 0 329 0 c 2
 251 0 l 2
 243 0 236 9 236 16 c 0
 234.098076211 52.7705265805 233.401923789 103.206461975 233.401923789 157.625046262 c 0
 233.401923789 189.043630549 233.633974596 221.789764467 234 254 c 1
 227.799777283 253.483314774 220.865404601 253.23359317 213.524480336 253.23359317 c 0
 192.449944321 253.23359317 168.024749443 255.291713066 148 259 c 0
 85.4252286599 269.429128557 34.5361382443 327.499879344 34.5361382443 410.201555488 c 0
 34.5361382443 414.728494145 34.6886155764 419.329233646 35 424 c 0
 35 429 38 437 47 437 c 2
 131 437 l 2
 139 437 141 431 141 426 c 0
 141 367.466552461 170.735629885 303 235 303 c 1
 236 348 238 389 240 424 c 0
 240 430 245 437 252 437 c 2
 326 437 l 2
 334.538149682 437 343.076299365 427.1 343.076299365 415.838149682 c 0
 343.076299365 357.403643189 336.619494798 283.884988831 336.619494798 214.499973643 c 0
 336.619494798 149.823048689 338.632011236 89.3118988764 343 50 c 0
 343.642079918 42.2950409838 346.345492942 34.1778153465 346.345492942 26.1777393246 c 0
EndSplineSet
Validated: 1
EndChar

StartChar: afii10090
Encoding: 1096 1096 135
Width: 668
Flags: W
HStem: 0 40<172.136 283 386.136 501> 417 20G<80.5 162.269 294.5 376.269 516.5 598.269>
VStem: 63.0748 104.415<40.1413 391.77> 72 103.076<195.551 437> 280.6 100.89<40.1413 412.788> 280.6 100.89<40.1413 437> 499.137 104.352<40.673 406.829> 501 111.345<40 131.708> 508 103.076<195.551 437>
AnchorPoint: "Yerok" 558 502 basechar 0
AnchorPoint: "Diacritic" 337 502 basechar 0
LayerCount: 2
Fore
SplineSet
612.345492942 26.1777393246 m 0xc1
 612.345492942 15.7293288022 604.169090801 0 595 0 c 2
 81 0 l 2
 73 0 67 9 66 16 c 0
 63.9183829399 45.4400127065 63.0748029041 83.1925597183 63.0748029041 124.760831368 c 0xe1
 63.0748029041 222.977108536 67.7842431943 342.495368424 72 424 c 0
 72 430 77 437 84 437 c 2
 158 437 l 2
 166.538149682 437 175.076299365 427.1 175.076299365 415.838149682 c 0xd0
 175.076299365 351.064945502 167.489795918 267.523022271 167.489795918 192.005830904 c 0
 167.489795918 135.959183673 169.142857143 84.7142857143 173 50 c 0
 173 47 174 43 175 40 c 1
 283 40 l 1
 281.4 81.2 280.6 133.76 280.6 188.848 c 0
 280.6 271.48 282.4 359.8 286 424 c 0
 286 430 291 437 298 437 c 2
 372 437 l 2
 380.538149682 437 389.076299365 427.1 389.076299365 415.838149682 c 0
 389.076299365 351.064945502 381.489795918 267.523022271 381.489795918 192.005830904 c 0
 381.489795918 135.959183673 383.142857143 84.7142857143 387 50 c 0
 387 47 387 43 388 40 c 1
 501 40 l 1xe9
 499.692744729 67.1909096289 499.137412649 99.0984283633 499.137412649 133.309847116 c 0xc2
 499.137412649 229.950525583 503.568706325 344.975262791 508 424 c 0
 508 430 513 437 520 437 c 2
 594 437 l 2
 602.538149682 437 611.076299365 427.1 611.076299365 415.838149682 c 0xc080
 611.076299365 351.064945502 603.489795918 267.523022271 603.489795918 192.005830904 c 0xc2
 603.489795918 135.959183673 605.142857143 84.7142857143 609 50 c 0
 609.642079918 42.2950409838 612.345492942 34.1778153465 612.345492942 26.1777393246 c 0xc1
EndSplineSet
Validated: 1
EndChar

StartChar: afii10091
Encoding: 1097 1097 136
Width: 668
Flags: W
HStem: 0 40<172.136 283 389 501> 417 20G<80.5 162.269 294.5 376.269 516.5 598.269>
VStem: 63.0748 104.415<40.1413 391.77> 72 103.076<195.551 437> 282.919 107.052<-192.695 0 40 437> 310.286 79.6842<-314.038 -25.2511> 499.137 104.352<40.673 406.829> 501 111.345<40 131.708> 508 103.076<195.551 437>
AnchorPoint: "Yerok" 548 502 basechar 0
AnchorPoint: "Diacritic" 337 502 basechar 0
LayerCount: 2
Fore
SplineSet
612.345492942 26.1777393246 m 0xc1
 612.345492942 15.7293288022 604.169090801 0 595 0 c 2
 389 0 l 1
 389.51892763 -21.2760328393 389.970533789 -45.4468889468 389.970533789 -71.9361412912 c 0
 389.970533789 -147.539168492 386.291796068 -242.02761504 370 -342 c 0
 363 -382 346 -401 317 -409 c 0
 314.961605624 -409.536419573 312.854152217 -409.796603026 310.733206704 -409.796603026 c 0
 297.104644606 -409.796603026 282.918998327 -399.053723028 282.918998327 -381.826974055 c 0xc9
 282.918998327 -376.745676161 284.15321608 -371.100251258 287 -365 c 0
 294 -350 301 -341 306 -316 c 0
 309.165942097 -300.170289513 310.286335345 -284.749688795 310.286335345 -269.738197848 c 0
 310.286335345 -251.558798565 308.643167673 -233.979399283 307 -217 c 0
 299 -129 291 -58 287 0 c 1
 81 0 l 2
 73 0 67 9 66 16 c 0
 63.9183829399 45.4400127065 63.0748029041 83.1925597183 63.0748029041 124.760831368 c 0xe4
 63.0748029041 222.977108536 67.7842431943 342.495368424 72 424 c 0
 72 430 77 437 84 437 c 2
 158 437 l 2
 166.538149682 437 175.076299365 427.1 175.076299365 415.838149682 c 0xd0
 175.076299365 351.064945502 167.489795918 267.523022271 167.489795918 192.005830904 c 0
 167.489795918 135.959183673 169.142857143 84.7142857143 173 50 c 0
 173 47 174 43 175 40 c 1
 283 40 l 1
 282.131482908 85.1628887747 281.451546301 143.337830993 281.451546301 203.469313902 c 0
 281.451546301 281.807144895 282.605551275 363.465664412 286 424 c 0
 286 430 291 437 298 437 c 2
 372 437 l 2
 380.538149682 437 389.076299365 427.1 389.076299365 415.838149682 c 0
 389.076299365 366.030001948 384.381197846 306.729354443 384.381197846 247.628456709 c 0
 384.381197846 167.970912967 386.690598923 89.6521231503 389 40 c 1
 501 40 l 1xe1
 499.692744729 67.1909096289 499.137412649 99.0984283633 499.137412649 133.309847116 c 0xc2
 499.137412649 229.950525583 503.568706325 344.975262791 508 424 c 0
 508 430 513 437 520 437 c 2
 594 437 l 2
 602.538149682 437 611.076299365 427.1 611.076299365 415.838149682 c 0xc080
 611.076299365 351.064945502 603.489795918 267.523022271 603.489795918 192.005830904 c 0xc2
 603.489795918 135.959183673 605.142857143 84.7142857143 609 50 c 0
 609.642079918 42.2950409838 612.345492942 34.1778153465 612.345492942 26.1777393246 c 0xc1
EndSplineSet
Validated: 1
EndChar

StartChar: afii10092
Encoding: 1098 1098 137
Width: 446
Flags: W
HStem: 0 40<169 282> 397 40<157 282>
VStem: 55 102<243 396.766>
DStem2: 55 35 169 40 0.531207 0.847242<64.7938 201.852 254.852 427.286>
AnchorPoint: "Yerok" 338 502 basechar 0
AnchorPoint: "Diacritic" 227 502 basechar 0
LayerCount: 2
Fore
SplineSet
270 201 m 1
 314 201 l 2
 323 201 327 194 330 185 c 2
 386 21 l 2
 386.340784219 19.8640526043 386.500915729 18.7152014437 386.500915729 17.571036116 c 0
 386.500915729 8.64285714286 376.750457865 1.7763568394e-15 367 0 c 2
 58 0 l 2
 51 0 48.25 5.75 48.25 13 c 0
 48.25 20.25 51 29 55 35 c 2
 282 397 l 1
 157 397 l 1
 157 259 l 2
 157 250 148 243 139 243 c 2
 73 243 l 2
 63 243 55 254 55 263 c 0
 56 314 61 349 61 382 c 0
 61 400 31 401 31 417 c 0
 31 428 38 437 50 437 c 2
 394 437 l 2
 403 437 411 426 406 418 c 2
 270 201 l 1
242 156 m 1
 169 40 l 1
 282 40 l 1
 242 156 l 1
EndSplineSet
Validated: 1
EndChar

StartChar: afii10093
Encoding: 1099 1099 138
Width: 574
Flags: W
HStem: 0 40<149 262> 422.369 14.6307G<155.625 163.325 414.5 496.269>
VStem: 52 97<40 175.125> 68 120.4<270.051 418.575> 403.408 103.539<59.0357 437> 415 110.605<0 291.168>
AnchorPoint: "Yerok" 438 502 basechar 0
AnchorPoint: "Diacritic" 297 502 basechar 0
LayerCount: 2
Fore
SplineSet
163 241 m 1xd0
 181 246 195 252 218 260 c 0
 228.122364671 263.572599296 238.244729342 268.208820735 246.889356788 268.208820735 c 0
 252.76294434 268.208820735 257.954332159 266.068501761 262 260 c 0
 312 187 357 102 390 23 c 0
 391.017259355 20.5585775476 391.496414081 18.1585477591 391.496414081 15.8841247834 c 0
 391.496414081 6.97937813942 384.151673806 0 373 0 c 2
 69 0 l 2
 58 0 52 4 52 15 c 2xe0
 68 381 l 2
 69 393 71 401 79 409 c 0
 101 430 109 436 151 442 c 0
 152.710801238 442.244400177 154.615729678 442.369337461 156.634494249 442.369337461 c 0
 170.016214239 442.369337461 188.399807221 436.879688328 188.399807221 424.305926474 c 0
 188.399807221 378.492234692 170.010933175 310.107769866 163 241 c 1xd0
525.604932639 27.1406537746 m 0xc4
 525.604932639 16.519443778 517.492647053 0 508 0 c 2
 430 0 l 2
 422 0 416 9 415 16 c 0xc4
 407.967425905 85.6224835453 403.407706729 202.723781563 403.407706729 305.741398541 c 0
 403.407706729 349.210140013 404.219544457 390.171344689 406 424 c 0
 406 430 411 437 418 437 c 2
 492 437 l 2
 500.538149682 437 509.076299365 427.1 509.076299365 415.838149682 c 0
 509.076299365 388.39903903 506.946643758 358.195619768 506.946643758 326.310335004 c 0xc8
 506.946643758 225.656109961 513.598245749 111.867463121 522 50 c 0
 523.2326664 42.6040016013 525.604932639 34.8281365893 525.604932639 27.1406537746 c 0xc4
159 192 m 1
 154 137 151 83 149 40 c 1xe0
 262 40 l 2
 266 40 265 46 264 50 c 0
 255 87 213 158 159 192 c 1
EndSplineSet
Validated: 1
EndChar

StartChar: afii10094
Encoding: 1100 1100 139
Width: 402
Flags: W
HStem: 0 40<145 240> 417 20G<100 181.5>
DStem2: 82 417 156 174 0.0939643 0.995576<-369.412 -234.972>
AnchorPoint: "Yerok" 308 502 basechar 0
AnchorPoint: "Diacritic" 207 502 basechar 0
LayerCount: 2
Fore
SplineSet
161 218 m 1
 174 221 187 224 204 230 c 0
 214.122364671 233.572599296 226.017432916 238.208820735 236.096414329 238.208820735 c 0
 242.944572926 238.208820735 248.954332159 236.068501761 253 230 c 0
 303 157 332 100 365 21 c 0
 366.017259355 18.5585775476 366.496414081 16.2413330868 366.496414081 14.0987951068 c 0
 366.496414081 5.71040029589 359.151673806 8.881784197e-16 348 0 c 2
 76 0 l 2
 65 0 50 1 50 13 c 0
 54 146 71 324 82 417 c 0
 83 429 94 437 106 437 c 2
 177 437 l 2
 186 437 195 435 191 418 c 0
 180 368 169 293 161 218 c 1
156 174 m 1
 151 125 147 78 145 40 c 1
 240 40 l 2
 244 40 243 46 242 50 c 0
 231 86 203 140 156 174 c 1
EndSplineSet
Validated: 1
EndChar

StartChar: uni0463
Encoding: 1123 1123 140
Width: 597
Flags: W
HStem: 0 40<338 423> 397 40<141 242 342 427.206>
VStem: 41 100<188 397> 241.402 96.5981<40 158 196 397 437 696.293>
AnchorPoint: "Yerok" 458 502 basechar 0
AnchorPoint: "Diacritic" 327 882 basechar 0
LayerCount: 2
Fore
SplineSet
56 437 m 2
 242 437 l 1
 244 585 253 723 258 767 c 0
 259 779 271 784 282 787 c 0
 308.09081537 794.827244611 323.592487347 800.385387066 344.950217431 800.385387066 c 0
 346.310865347 800.385387066 347.664653696 800.394059623 348.997686939 800.394059623 c 0
 360.213954384 800.394059623 369.960822893 799.78006878 369.960822893 788.21973336 c 0
 369.960822893 786.174755712 369.655821819 783.787242732 369 781 c 0
 359 736 347 590 342 437 c 1
 527 437 l 2
 535.366718471 437 538.376142709 430.571246922 538.376142709 422.836366205 c 0
 538.376142709 417.628498769 537.011886261 411.828527025 535 407 c 0
 522 377 511 329 502 303 c 0
 499 294 493 282 480 282 c 0
 470 282 463 294 458 305 c 0
 443 336 429 380 416 397 c 1
 341 397 l 1
 340 331 339 259 339 196 c 1
 359 202 375 208 400 215 c 0
 410.937253933 218.038126093 421.136091054 222.922294216 429.699150009 222.922294216 c 0
 435.228756555 222.922294216 440.076252185 220.885621722 444 215 c 0
 484 155 520 87 548 21 c 0
 549.017259355 18.5585775476 549.496414081 16.2413330868 549.496414081 14.0987951068 c 0
 549.496414081 5.71040029589 542.151673806 8.881784197e-16 531 0 c 2
 270 0 l 2
 259 0 244 1 244 13 c 0
 242.098076211 58.0121963313 241.401923789 137.187914698 241.401923789 229.123159483 c 0
 241.401923789 282.201997808 241.633974596 339.534011606 242 397 c 1
 154 397 l 2
 148 397 141 393 141 387 c 2
 141 202 l 2
 141 196 138 188 132 188 c 2
 49 188 l 2
 44 188 41 194 41 199 c 2
 41 416 l 2
 41 426 46 437 56 437 c 2
425 50 m 0
 413 87 390 126 338 158 c 1
 338 40 l 1
 423 40 l 2
 427 40 426 46 425 50 c 0
EndSplineSet
Validated: 1
EndChar

StartChar: afii10096
Encoding: 1102 1102 141
Width: 506
Flags: W
HStem: 0 21G<70 156.585 342.781 349.253> 213 43<164 241> 417 20G<75.5 158.269 354.678 360.671>
VStem: 57.2939 108.706<0 213 256 375.576> 67 104.076<156.837 210.002 258.657 437> 241 73<137.844 213 256 285.477> 396 64<132.835 281.981>
AnchorPoint: "Yerok" 398 502 basechar 0
AnchorPoint: "Diacritic" 247 502 basechar 0
LayerCount: 2
Fore
SplineSet
169.345492942 26.1777393246 m 0xf6
 169.345492942 15.7293288022 161.169090801 0 152 0 c 2
 74 0 l 2
 66 0 59 9 59 16 c 0
 57.803151699 39.9369660206 57.2938774087 69.2599284587 57.2938774087 101.582414133 c 0xf6
 57.2938774087 204.291601422 62.4362179612 337.288141264 67 424 c 0
 67 430 72 437 79 437 c 2
 154 437 l 2
 162.538149682 437 171.076299365 427.1 171.076299365 415.838149682 c 0xee
 171.076299365 369.066402047 165.012339054 312.690987011 164 256 c 1
 243 256 l 1
 252 336 297 406 343 438 c 0
 346.307323378 440.362373842 351.846970824 441.385353243 357.509508744 441.385353243 c 0
 363.831818057 441.385353243 370.307323378 440.110100927 374 438 c 0
 432 405 460 314 460 220 c 0
 460 124 429 36 364 -4 c 0
 359.819295032 -6.61294060472 352.634508279 -8.13348783283 345.870870552 -8.13348783283 c 0
 339.691929878 -8.13348783283 333.864471274 -6.86447127434 331 -4 c 0
 279 46 244 117 241 213 c 1
 163 213 l 1
 163 149 163 88 166 50 c 0
 166.642079918 42.2950409838 169.345492942 34.1778153465 169.345492942 26.1777393246 c 0xf6
353 304 m 1
 321 279 314 247 314 208 c 0
 314 172 322 140 356 117 c 1
 387 134 396 172 396 207 c 0
 396 246 385 281 353 304 c 1
EndSplineSet
Validated: 1
EndChar

StartChar: uniA657
Encoding: 42583 42583 142
Width: 580
Flags: W
HStem: -0.0762185 87.4673<273.725 325.205> 314 40<171 385> 417 20G<83.5 163.269 420 499.5>
VStem: 61.6509 99.3024<0 310.722> 216 77.8558<51 143.881> 406 97.3344<168.945 268 354 437>
AnchorPoint: "Yerok" 408 502 basechar 0
AnchorPoint: "Diacritic" 287 502 basechar 0
LayerCount: 2
Fore
SplineSet
160.953310697 110.972200794 m 0
 160.953310697 76.1737085709 164.483696145 55.6686683666 164.483696145 26.2695232204 c 0
 164.483696145 12.9603428453 161.995725844 -1.7763568394e-15 151 0 c 2
 78 0 l 2
 70 0 63 9 63 16 c 0
 62.0608194552 34.7836108965 61.6508749678 56.8484853494 61.6508749678 81.054726133 c 0
 61.6508749678 185.717428158 69.3148527628 330.413316422 75 423 c 0
 75 429 80 437 87 437 c 2
 159 437 l 2
 167.538149682 437 176.076299365 427.1 176.076299365 415.838149682 c 0
 176.076299365 396.197832577 173.038838471 375.407803943 171 354 c 1
 407 354 l 1
 407 383 408 407 409 419 c 0
 409 427 416 437 424 437 c 2
 495 437 l 2
 504 437 508 428 508 419 c 0
 508 395.24 503.3344 336.7472 503.3344 273.38144 c 0
 503.3344 192.586042083 514.770610372 90.3528427914 527 36 c 0
 527.649044009 33.0793019612 527.996953571 29.690207102 527.996953571 26.1826331273 c 0
 527.996953571 13.8264509461 523.679563448 -3.5527136788e-15 513 0 c 2
 444 0 l 2
 435 0 429 9 426 17 c 0
 421 30 416 73 412 119 c 1
 379 71 349 33 313 14 c 0
 301.116010083 7.39778337949 282.257737877 -0.0762185271053 263.33204175 -0.0762185271053 c 0
 253.592068125 -0.0762185271053 243.834236787 1.90332493077 235 7 c 0
 224 14 216 44 216 58 c 0
 216 127 240 150 277 192 c 0
 306 225 328 245 358 281 c 0
 368 293 377 304 385 314 c 1
 169 314 l 1
 164.722534342 244.134727585 160.953310697 169.695277056 160.953310697 110.972200794 c 0
293.855803424 98.8609508681 m 0
 293.855803424 91.7319407905 297.67884488 87.3911238298 304.222528099 87.3911238298 c 0
 319.469279109 87.3911238298 342.848023729 113.447607673 359 133 c 0
 381 159 395 185 406 212 c 1
 405.666666667 217.666666667 405.555555556 223.666666667 405.555555556 229.851851852 c 0
 405.555555556 242.222222222 406 255.333333333 406 268 c 1
 378 235 353 206 324 166 c 0
 309.570524443 145.959061726 293.855803424 114.993537025 293.855803424 98.8609508681 c 0
EndSplineSet
Validated: 1
EndChar

